%TF.GenerationSoftware,KiCad,Pcbnew,10.0.1*%
%TF.CreationDate,2026-07-18T21:35:24+01:00*%
%TF.ProjectId,SERVO PCB,53455256-4f20-4504-9342-2e6b69636164,rev?*%
%TF.SameCoordinates,Original*%
%TF.FileFunction,Soldermask,Top*%
%TF.FilePolarity,Negative*%
%FSLAX46Y46*%
G04 Gerber Fmt 4.6, Leading zero omitted, Abs format (unit mm)*
G04 Created by KiCad (PCBNEW 10.0.1) date 2026-07-18 21:35:24*
%MOMM*%
%LPD*%
G01*
G04 APERTURE LIST*
G04 Aperture macros list*
%AMRoundRect*
0 Rectangle with rounded corners*
0 $1 Rounding radius*
0 $2 $3 $4 $5 $6 $7 $8 $9 X,Y pos of 4 corners*
0 Add a 4 corners polygon primitive as box body*
4,1,4,$2,$3,$4,$5,$6,$7,$8,$9,$2,$3,0*
0 Add four circle primitives for the rounded corners*
1,1,$1+$1,$2,$3*
1,1,$1+$1,$4,$5*
1,1,$1+$1,$6,$7*
1,1,$1+$1,$8,$9*
0 Add four rect primitives between the rounded corners*
20,1,$1+$1,$2,$3,$4,$5,0*
20,1,$1+$1,$4,$5,$6,$7,0*
20,1,$1+$1,$6,$7,$8,$9,0*
20,1,$1+$1,$8,$9,$2,$3,0*%
G04 Aperture macros list end*
%ADD10R,1.700000X1.700000*%
%ADD11C,1.700000*%
%ADD12R,1.500000X1.000000*%
%ADD13RoundRect,0.250001X-0.949999X0.949999X-0.949999X-0.949999X0.949999X-0.949999X0.949999X0.949999X0*%
%ADD14C,2.400000*%
%ADD15C,1.600000*%
%ADD16RoundRect,0.250000X1.050000X-1.050000X1.050000X1.050000X-1.050000X1.050000X-1.050000X-1.050000X0*%
%ADD17C,2.600000*%
%ADD18RoundRect,0.250000X0.350000X0.350000X-0.350000X0.350000X-0.350000X-0.350000X0.350000X-0.350000X0*%
%ADD19C,1.200000*%
%ADD20RoundRect,0.100000X0.637500X0.100000X-0.637500X0.100000X-0.637500X-0.100000X0.637500X-0.100000X0*%
G04 APERTURE END LIST*
%TO.C,JP2*%
G36*
X120586638Y-99675000D02*
G01*
X122086638Y-99675000D01*
X122086638Y-101275000D01*
X120586638Y-101275000D01*
X120586638Y-99675000D01*
G37*
%TO.C,JP1*%
G36*
X113336638Y-99675000D02*
G01*
X114836638Y-99675000D01*
X114836638Y-101275000D01*
X113336638Y-101275000D01*
X113336638Y-99675000D01*
G37*
%TD*%
D10*
%TO.C,J10*%
X164830000Y-112000000D03*
D11*
X162290000Y-112000000D03*
X159750000Y-112000000D03*
%TD*%
D10*
%TO.C,J16*%
X154750000Y-74500000D03*
D11*
X152210000Y-74500000D03*
X149670000Y-74500000D03*
%TD*%
D10*
%TO.C,J9*%
X153580000Y-112000000D03*
D11*
X151040000Y-112000000D03*
X148500000Y-112000000D03*
%TD*%
D12*
%TO.C,JP2*%
X121336638Y-99175000D03*
X121336638Y-100475000D03*
X121336638Y-101775000D03*
%TD*%
D13*
%TO.C,C2*%
X144500000Y-92434785D03*
D14*
X144500000Y-99934785D03*
%TD*%
D10*
%TO.C,J6*%
X120120000Y-111750000D03*
D11*
X117580000Y-111750000D03*
X115040000Y-111750000D03*
%TD*%
D10*
%TO.C,J12*%
X108500000Y-74250000D03*
D11*
X105960000Y-74250000D03*
X103420000Y-74250000D03*
%TD*%
D12*
%TO.C,JP1*%
X114086638Y-99175000D03*
X114086638Y-100475000D03*
X114086638Y-101775000D03*
%TD*%
D15*
%TO.C,R2*%
X107836638Y-89175000D03*
X100216638Y-89175000D03*
%TD*%
D10*
%TO.C,J2*%
X97580000Y-111750000D03*
D11*
X95040000Y-111750000D03*
X92500000Y-111750000D03*
%TD*%
D10*
%TO.C,J4*%
X100311638Y-101175000D03*
D11*
X102851638Y-101175000D03*
%TD*%
D10*
%TO.C,J3*%
X108830000Y-111750000D03*
D11*
X106290000Y-111750000D03*
X103750000Y-111750000D03*
%TD*%
D10*
%TO.C,J1*%
X104796638Y-83675000D03*
D11*
X107336638Y-83675000D03*
%TD*%
D10*
%TO.C,J7*%
X131330000Y-111750000D03*
D11*
X128790000Y-111750000D03*
X126250000Y-111750000D03*
%TD*%
D15*
%TO.C,R1*%
X107836638Y-93175000D03*
X100216638Y-93175000D03*
%TD*%
D16*
%TO.C,J5*%
X159750000Y-99500000D03*
D17*
X159750000Y-94500000D03*
%TD*%
D18*
%TO.C,C1*%
X109086638Y-99675000D03*
D19*
X107086638Y-99675000D03*
%TD*%
D10*
%TO.C,J13*%
X120250000Y-74500000D03*
D11*
X117710000Y-74500000D03*
X115170000Y-74500000D03*
%TD*%
D20*
%TO.C,U1*%
X119836638Y-94125000D03*
X119836638Y-93475000D03*
X119836638Y-92825000D03*
X119836638Y-92175000D03*
X119836638Y-91525000D03*
X119836638Y-90875000D03*
X119836638Y-90225000D03*
X119836638Y-89575000D03*
X119836638Y-88925000D03*
X119836638Y-88275000D03*
X119836638Y-87625000D03*
X119836638Y-86975000D03*
X119836638Y-86325000D03*
X119836638Y-85675000D03*
X114111638Y-85675000D03*
X114111638Y-86325000D03*
X114111638Y-86975000D03*
X114111638Y-87625000D03*
X114111638Y-88275000D03*
X114111638Y-88925000D03*
X114111638Y-89575000D03*
X114111638Y-90225000D03*
X114111638Y-90875000D03*
X114111638Y-91525000D03*
X114111638Y-92175000D03*
X114111638Y-92825000D03*
X114111638Y-93475000D03*
X114111638Y-94125000D03*
%TD*%
D10*
%TO.C,J14*%
X131750000Y-74500000D03*
D11*
X129210000Y-74500000D03*
X126670000Y-74500000D03*
%TD*%
D10*
%TO.C,J11*%
X96750000Y-74250000D03*
D11*
X94210000Y-74250000D03*
X91670000Y-74250000D03*
%TD*%
D10*
%TO.C,J15*%
X143250000Y-74500000D03*
D11*
X140710000Y-74500000D03*
X138170000Y-74500000D03*
%TD*%
D10*
%TO.C,J17*%
X166210000Y-74500000D03*
D11*
X163670000Y-74500000D03*
X161130000Y-74500000D03*
%TD*%
D10*
%TO.C,J8*%
X142330000Y-111750000D03*
D11*
X139790000Y-111750000D03*
X137250000Y-111750000D03*
%TD*%
M02*
