%TF.GenerationSoftware,KiCad,Pcbnew,10.0.1*%
%TF.CreationDate,2026-07-18T21:35:24+01:00*%
%TF.ProjectId,SERVO PCB,53455256-4f20-4504-9342-2e6b69636164,rev?*%
%TF.SameCoordinates,Original*%
%TF.FileFunction,Legend,Top*%
%TF.FilePolarity,Positive*%
%FSLAX46Y46*%
G04 Gerber Fmt 4.6, Leading zero omitted, Abs format (unit mm)*
G04 Created by KiCad (PCBNEW 10.0.1) date 2026-07-18 21:35:24*
%MOMM*%
%LPD*%
G01*
G04 APERTURE LIST*
%ADD10C,0.150000*%
%ADD11C,0.200000*%
%ADD12C,0.300000*%
%ADD13C,1.000000*%
%ADD14C,0.100000*%
%ADD15C,0.250000*%
%ADD16C,0.120000*%
G04 APERTURE END LIST*
D10*
X102050447Y-92963152D02*
X102050447Y-93629819D01*
X101812352Y-92582200D02*
X101574257Y-93296485D01*
X101574257Y-93296485D02*
X102193304Y-93296485D01*
X102574257Y-93534580D02*
X102621876Y-93582200D01*
X102621876Y-93582200D02*
X102574257Y-93629819D01*
X102574257Y-93629819D02*
X102526638Y-93582200D01*
X102526638Y-93582200D02*
X102574257Y-93534580D01*
X102574257Y-93534580D02*
X102574257Y-93629819D01*
X102955209Y-92629819D02*
X103621875Y-92629819D01*
X103621875Y-92629819D02*
X103193304Y-93629819D01*
X104764733Y-93629819D02*
X104764733Y-92629819D01*
X105336161Y-93629819D02*
X104907590Y-93058390D01*
X105336161Y-92629819D02*
X104764733Y-93201247D01*
X105717114Y-93629819D02*
X105955209Y-93629819D01*
X105955209Y-93629819D02*
X105955209Y-93439342D01*
X105955209Y-93439342D02*
X105859971Y-93391723D01*
X105859971Y-93391723D02*
X105764733Y-93296485D01*
X105764733Y-93296485D02*
X105717114Y-93153628D01*
X105717114Y-93153628D02*
X105717114Y-92915533D01*
X105717114Y-92915533D02*
X105764733Y-92772676D01*
X105764733Y-92772676D02*
X105859971Y-92677438D01*
X105859971Y-92677438D02*
X106002828Y-92629819D01*
X106002828Y-92629819D02*
X106193304Y-92629819D01*
X106193304Y-92629819D02*
X106336161Y-92677438D01*
X106336161Y-92677438D02*
X106431399Y-92772676D01*
X106431399Y-92772676D02*
X106479018Y-92915533D01*
X106479018Y-92915533D02*
X106479018Y-93153628D01*
X106479018Y-93153628D02*
X106431399Y-93296485D01*
X106431399Y-93296485D02*
X106336161Y-93391723D01*
X106336161Y-93391723D02*
X106240923Y-93439342D01*
X106240923Y-93439342D02*
X106240923Y-93629819D01*
X106240923Y-93629819D02*
X106479018Y-93629819D01*
X91927800Y-86789160D02*
X91880180Y-86932017D01*
X91880180Y-86932017D02*
X91880180Y-87170112D01*
X91880180Y-87170112D02*
X91927800Y-87265350D01*
X91927800Y-87265350D02*
X91975419Y-87312969D01*
X91975419Y-87312969D02*
X92070657Y-87360588D01*
X92070657Y-87360588D02*
X92165895Y-87360588D01*
X92165895Y-87360588D02*
X92261133Y-87312969D01*
X92261133Y-87312969D02*
X92308752Y-87265350D01*
X92308752Y-87265350D02*
X92356371Y-87170112D01*
X92356371Y-87170112D02*
X92403990Y-86979636D01*
X92403990Y-86979636D02*
X92451609Y-86884398D01*
X92451609Y-86884398D02*
X92499228Y-86836779D01*
X92499228Y-86836779D02*
X92594466Y-86789160D01*
X92594466Y-86789160D02*
X92689704Y-86789160D01*
X92689704Y-86789160D02*
X92784942Y-86836779D01*
X92784942Y-86836779D02*
X92832561Y-86884398D01*
X92832561Y-86884398D02*
X92880180Y-86979636D01*
X92880180Y-86979636D02*
X92880180Y-87217731D01*
X92880180Y-87217731D02*
X92832561Y-87360588D01*
X91927800Y-88170112D02*
X91880180Y-88074874D01*
X91880180Y-88074874D02*
X91880180Y-87884398D01*
X91880180Y-87884398D02*
X91927800Y-87789160D01*
X91927800Y-87789160D02*
X92023038Y-87741541D01*
X92023038Y-87741541D02*
X92403990Y-87741541D01*
X92403990Y-87741541D02*
X92499228Y-87789160D01*
X92499228Y-87789160D02*
X92546847Y-87884398D01*
X92546847Y-87884398D02*
X92546847Y-88074874D01*
X92546847Y-88074874D02*
X92499228Y-88170112D01*
X92499228Y-88170112D02*
X92403990Y-88217731D01*
X92403990Y-88217731D02*
X92308752Y-88217731D01*
X92308752Y-88217731D02*
X92213514Y-87741541D01*
X91880180Y-88646303D02*
X92546847Y-88646303D01*
X92356371Y-88646303D02*
X92451609Y-88693922D01*
X92451609Y-88693922D02*
X92499228Y-88741541D01*
X92499228Y-88741541D02*
X92546847Y-88836779D01*
X92546847Y-88836779D02*
X92546847Y-88932017D01*
X92546847Y-89170113D02*
X91880180Y-89408208D01*
X91880180Y-89408208D02*
X92546847Y-89646303D01*
X91880180Y-90170113D02*
X91927800Y-90074875D01*
X91927800Y-90074875D02*
X91975419Y-90027256D01*
X91975419Y-90027256D02*
X92070657Y-89979637D01*
X92070657Y-89979637D02*
X92356371Y-89979637D01*
X92356371Y-89979637D02*
X92451609Y-90027256D01*
X92451609Y-90027256D02*
X92499228Y-90074875D01*
X92499228Y-90074875D02*
X92546847Y-90170113D01*
X92546847Y-90170113D02*
X92546847Y-90312970D01*
X92546847Y-90312970D02*
X92499228Y-90408208D01*
X92499228Y-90408208D02*
X92451609Y-90455827D01*
X92451609Y-90455827D02*
X92356371Y-90503446D01*
X92356371Y-90503446D02*
X92070657Y-90503446D01*
X92070657Y-90503446D02*
X91975419Y-90455827D01*
X91975419Y-90455827D02*
X91927800Y-90408208D01*
X91927800Y-90408208D02*
X91880180Y-90312970D01*
X91880180Y-90312970D02*
X91880180Y-90170113D01*
X91975419Y-92265351D02*
X91927800Y-92217732D01*
X91927800Y-92217732D02*
X91880180Y-92074875D01*
X91880180Y-92074875D02*
X91880180Y-91979637D01*
X91880180Y-91979637D02*
X91927800Y-91836780D01*
X91927800Y-91836780D02*
X92023038Y-91741542D01*
X92023038Y-91741542D02*
X92118276Y-91693923D01*
X92118276Y-91693923D02*
X92308752Y-91646304D01*
X92308752Y-91646304D02*
X92451609Y-91646304D01*
X92451609Y-91646304D02*
X92642085Y-91693923D01*
X92642085Y-91693923D02*
X92737323Y-91741542D01*
X92737323Y-91741542D02*
X92832561Y-91836780D01*
X92832561Y-91836780D02*
X92880180Y-91979637D01*
X92880180Y-91979637D02*
X92880180Y-92074875D01*
X92880180Y-92074875D02*
X92832561Y-92217732D01*
X92832561Y-92217732D02*
X92784942Y-92265351D01*
X91880180Y-92836780D02*
X91927800Y-92741542D01*
X91927800Y-92741542D02*
X92023038Y-92693923D01*
X92023038Y-92693923D02*
X92880180Y-92693923D01*
X91880180Y-93360590D02*
X91927800Y-93265352D01*
X91927800Y-93265352D02*
X91975419Y-93217733D01*
X91975419Y-93217733D02*
X92070657Y-93170114D01*
X92070657Y-93170114D02*
X92356371Y-93170114D01*
X92356371Y-93170114D02*
X92451609Y-93217733D01*
X92451609Y-93217733D02*
X92499228Y-93265352D01*
X92499228Y-93265352D02*
X92546847Y-93360590D01*
X92546847Y-93360590D02*
X92546847Y-93503447D01*
X92546847Y-93503447D02*
X92499228Y-93598685D01*
X92499228Y-93598685D02*
X92451609Y-93646304D01*
X92451609Y-93646304D02*
X92356371Y-93693923D01*
X92356371Y-93693923D02*
X92070657Y-93693923D01*
X92070657Y-93693923D02*
X91975419Y-93646304D01*
X91975419Y-93646304D02*
X91927800Y-93598685D01*
X91927800Y-93598685D02*
X91880180Y-93503447D01*
X91880180Y-93503447D02*
X91880180Y-93360590D01*
X91927800Y-94551066D02*
X91880180Y-94455828D01*
X91880180Y-94455828D02*
X91880180Y-94265352D01*
X91880180Y-94265352D02*
X91927800Y-94170114D01*
X91927800Y-94170114D02*
X91975419Y-94122495D01*
X91975419Y-94122495D02*
X92070657Y-94074876D01*
X92070657Y-94074876D02*
X92356371Y-94074876D01*
X92356371Y-94074876D02*
X92451609Y-94122495D01*
X92451609Y-94122495D02*
X92499228Y-94170114D01*
X92499228Y-94170114D02*
X92546847Y-94265352D01*
X92546847Y-94265352D02*
X92546847Y-94455828D01*
X92546847Y-94455828D02*
X92499228Y-94551066D01*
X91880180Y-94979638D02*
X92880180Y-94979638D01*
X92261133Y-95074876D02*
X91880180Y-95360590D01*
X92546847Y-95360590D02*
X92165895Y-94979638D01*
X92546847Y-96455829D02*
X91880180Y-96693924D01*
X91880180Y-96693924D02*
X92546847Y-96932019D01*
X91880180Y-97836781D02*
X91880180Y-97265353D01*
X91880180Y-97551067D02*
X92880180Y-97551067D01*
X92880180Y-97551067D02*
X92737323Y-97455829D01*
X92737323Y-97455829D02*
X92642085Y-97360591D01*
X92642085Y-97360591D02*
X92594466Y-97265353D01*
X91975419Y-98265353D02*
X91927800Y-98312972D01*
X91927800Y-98312972D02*
X91880180Y-98265353D01*
X91880180Y-98265353D02*
X91927800Y-98217734D01*
X91927800Y-98217734D02*
X91975419Y-98265353D01*
X91975419Y-98265353D02*
X91880180Y-98265353D01*
X92880180Y-98646305D02*
X92880180Y-99265352D01*
X92880180Y-99265352D02*
X92499228Y-98932019D01*
X92499228Y-98932019D02*
X92499228Y-99074876D01*
X92499228Y-99074876D02*
X92451609Y-99170114D01*
X92451609Y-99170114D02*
X92403990Y-99217733D01*
X92403990Y-99217733D02*
X92308752Y-99265352D01*
X92308752Y-99265352D02*
X92070657Y-99265352D01*
X92070657Y-99265352D02*
X91975419Y-99217733D01*
X91975419Y-99217733D02*
X91927800Y-99170114D01*
X91927800Y-99170114D02*
X91880180Y-99074876D01*
X91880180Y-99074876D02*
X91880180Y-98789162D01*
X91880180Y-98789162D02*
X91927800Y-98693924D01*
X91927800Y-98693924D02*
X91975419Y-98646305D01*
D11*
X97774435Y-103367219D02*
X98393482Y-103367219D01*
X98393482Y-103367219D02*
X98060149Y-103748171D01*
X98060149Y-103748171D02*
X98203006Y-103748171D01*
X98203006Y-103748171D02*
X98298244Y-103795790D01*
X98298244Y-103795790D02*
X98345863Y-103843409D01*
X98345863Y-103843409D02*
X98393482Y-103938647D01*
X98393482Y-103938647D02*
X98393482Y-104176742D01*
X98393482Y-104176742D02*
X98345863Y-104271980D01*
X98345863Y-104271980D02*
X98298244Y-104319600D01*
X98298244Y-104319600D02*
X98203006Y-104367219D01*
X98203006Y-104367219D02*
X97917292Y-104367219D01*
X97917292Y-104367219D02*
X97822054Y-104319600D01*
X97822054Y-104319600D02*
X97774435Y-104271980D01*
X98822054Y-104271980D02*
X98869673Y-104319600D01*
X98869673Y-104319600D02*
X98822054Y-104367219D01*
X98822054Y-104367219D02*
X98774435Y-104319600D01*
X98774435Y-104319600D02*
X98822054Y-104271980D01*
X98822054Y-104271980D02*
X98822054Y-104367219D01*
X99203006Y-103367219D02*
X99822053Y-103367219D01*
X99822053Y-103367219D02*
X99488720Y-103748171D01*
X99488720Y-103748171D02*
X99631577Y-103748171D01*
X99631577Y-103748171D02*
X99726815Y-103795790D01*
X99726815Y-103795790D02*
X99774434Y-103843409D01*
X99774434Y-103843409D02*
X99822053Y-103938647D01*
X99822053Y-103938647D02*
X99822053Y-104176742D01*
X99822053Y-104176742D02*
X99774434Y-104271980D01*
X99774434Y-104271980D02*
X99726815Y-104319600D01*
X99726815Y-104319600D02*
X99631577Y-104367219D01*
X99631577Y-104367219D02*
X99345863Y-104367219D01*
X99345863Y-104367219D02*
X99250625Y-104319600D01*
X99250625Y-104319600D02*
X99203006Y-104271980D01*
X100107768Y-103367219D02*
X100441101Y-104367219D01*
X100441101Y-104367219D02*
X100774434Y-103367219D01*
X103143482Y-103414838D02*
X103048244Y-103367219D01*
X103048244Y-103367219D02*
X102905387Y-103367219D01*
X102905387Y-103367219D02*
X102762530Y-103414838D01*
X102762530Y-103414838D02*
X102667292Y-103510076D01*
X102667292Y-103510076D02*
X102619673Y-103605314D01*
X102619673Y-103605314D02*
X102572054Y-103795790D01*
X102572054Y-103795790D02*
X102572054Y-103938647D01*
X102572054Y-103938647D02*
X102619673Y-104129123D01*
X102619673Y-104129123D02*
X102667292Y-104224361D01*
X102667292Y-104224361D02*
X102762530Y-104319600D01*
X102762530Y-104319600D02*
X102905387Y-104367219D01*
X102905387Y-104367219D02*
X103000625Y-104367219D01*
X103000625Y-104367219D02*
X103143482Y-104319600D01*
X103143482Y-104319600D02*
X103191101Y-104271980D01*
X103191101Y-104271980D02*
X103191101Y-103938647D01*
X103191101Y-103938647D02*
X103000625Y-103938647D01*
X103619673Y-104367219D02*
X103619673Y-103367219D01*
X103619673Y-103367219D02*
X104191101Y-104367219D01*
X104191101Y-104367219D02*
X104191101Y-103367219D01*
X104667292Y-104367219D02*
X104667292Y-103367219D01*
X104667292Y-103367219D02*
X104905387Y-103367219D01*
X104905387Y-103367219D02*
X105048244Y-103414838D01*
X105048244Y-103414838D02*
X105143482Y-103510076D01*
X105143482Y-103510076D02*
X105191101Y-103605314D01*
X105191101Y-103605314D02*
X105238720Y-103795790D01*
X105238720Y-103795790D02*
X105238720Y-103938647D01*
X105238720Y-103938647D02*
X105191101Y-104129123D01*
X105191101Y-104129123D02*
X105143482Y-104224361D01*
X105143482Y-104224361D02*
X105048244Y-104319600D01*
X105048244Y-104319600D02*
X104905387Y-104367219D01*
X104905387Y-104367219D02*
X104667292Y-104367219D01*
X103072054Y-81569600D02*
X103214911Y-81617219D01*
X103214911Y-81617219D02*
X103453006Y-81617219D01*
X103453006Y-81617219D02*
X103548244Y-81569600D01*
X103548244Y-81569600D02*
X103595863Y-81521980D01*
X103595863Y-81521980D02*
X103643482Y-81426742D01*
X103643482Y-81426742D02*
X103643482Y-81331504D01*
X103643482Y-81331504D02*
X103595863Y-81236266D01*
X103595863Y-81236266D02*
X103548244Y-81188647D01*
X103548244Y-81188647D02*
X103453006Y-81141028D01*
X103453006Y-81141028D02*
X103262530Y-81093409D01*
X103262530Y-81093409D02*
X103167292Y-81045790D01*
X103167292Y-81045790D02*
X103119673Y-80998171D01*
X103119673Y-80998171D02*
X103072054Y-80902933D01*
X103072054Y-80902933D02*
X103072054Y-80807695D01*
X103072054Y-80807695D02*
X103119673Y-80712457D01*
X103119673Y-80712457D02*
X103167292Y-80664838D01*
X103167292Y-80664838D02*
X103262530Y-80617219D01*
X103262530Y-80617219D02*
X103500625Y-80617219D01*
X103500625Y-80617219D02*
X103643482Y-80664838D01*
X104072054Y-81617219D02*
X104072054Y-80617219D01*
X104072054Y-80617219D02*
X104310149Y-80617219D01*
X104310149Y-80617219D02*
X104453006Y-80664838D01*
X104453006Y-80664838D02*
X104548244Y-80760076D01*
X104548244Y-80760076D02*
X104595863Y-80855314D01*
X104595863Y-80855314D02*
X104643482Y-81045790D01*
X104643482Y-81045790D02*
X104643482Y-81188647D01*
X104643482Y-81188647D02*
X104595863Y-81379123D01*
X104595863Y-81379123D02*
X104548244Y-81474361D01*
X104548244Y-81474361D02*
X104453006Y-81569600D01*
X104453006Y-81569600D02*
X104310149Y-81617219D01*
X104310149Y-81617219D02*
X104072054Y-81617219D01*
X105024435Y-81331504D02*
X105500625Y-81331504D01*
X104929197Y-81617219D02*
X105262530Y-80617219D01*
X105262530Y-80617219D02*
X105595863Y-81617219D01*
X106572054Y-81569600D02*
X106714911Y-81617219D01*
X106714911Y-81617219D02*
X106953006Y-81617219D01*
X106953006Y-81617219D02*
X107048244Y-81569600D01*
X107048244Y-81569600D02*
X107095863Y-81521980D01*
X107095863Y-81521980D02*
X107143482Y-81426742D01*
X107143482Y-81426742D02*
X107143482Y-81331504D01*
X107143482Y-81331504D02*
X107095863Y-81236266D01*
X107095863Y-81236266D02*
X107048244Y-81188647D01*
X107048244Y-81188647D02*
X106953006Y-81141028D01*
X106953006Y-81141028D02*
X106762530Y-81093409D01*
X106762530Y-81093409D02*
X106667292Y-81045790D01*
X106667292Y-81045790D02*
X106619673Y-80998171D01*
X106619673Y-80998171D02*
X106572054Y-80902933D01*
X106572054Y-80902933D02*
X106572054Y-80807695D01*
X106572054Y-80807695D02*
X106619673Y-80712457D01*
X106619673Y-80712457D02*
X106667292Y-80664838D01*
X106667292Y-80664838D02*
X106762530Y-80617219D01*
X106762530Y-80617219D02*
X107000625Y-80617219D01*
X107000625Y-80617219D02*
X107143482Y-80664838D01*
X108143482Y-81521980D02*
X108095863Y-81569600D01*
X108095863Y-81569600D02*
X107953006Y-81617219D01*
X107953006Y-81617219D02*
X107857768Y-81617219D01*
X107857768Y-81617219D02*
X107714911Y-81569600D01*
X107714911Y-81569600D02*
X107619673Y-81474361D01*
X107619673Y-81474361D02*
X107572054Y-81379123D01*
X107572054Y-81379123D02*
X107524435Y-81188647D01*
X107524435Y-81188647D02*
X107524435Y-81045790D01*
X107524435Y-81045790D02*
X107572054Y-80855314D01*
X107572054Y-80855314D02*
X107619673Y-80760076D01*
X107619673Y-80760076D02*
X107714911Y-80664838D01*
X107714911Y-80664838D02*
X107857768Y-80617219D01*
X107857768Y-80617219D02*
X107953006Y-80617219D01*
X107953006Y-80617219D02*
X108095863Y-80664838D01*
X108095863Y-80664838D02*
X108143482Y-80712457D01*
X109048244Y-81617219D02*
X108572054Y-81617219D01*
X108572054Y-81617219D02*
X108572054Y-80617219D01*
D12*
X166372257Y-94909774D02*
X166300828Y-95052632D01*
X166300828Y-95052632D02*
X166300828Y-95266917D01*
X166300828Y-95266917D02*
X166372257Y-95481203D01*
X166372257Y-95481203D02*
X166515114Y-95624060D01*
X166515114Y-95624060D02*
X166657971Y-95695489D01*
X166657971Y-95695489D02*
X166943685Y-95766917D01*
X166943685Y-95766917D02*
X167157971Y-95766917D01*
X167157971Y-95766917D02*
X167443685Y-95695489D01*
X167443685Y-95695489D02*
X167586542Y-95624060D01*
X167586542Y-95624060D02*
X167729400Y-95481203D01*
X167729400Y-95481203D02*
X167800828Y-95266917D01*
X167800828Y-95266917D02*
X167800828Y-95124060D01*
X167800828Y-95124060D02*
X167729400Y-94909774D01*
X167729400Y-94909774D02*
X167657971Y-94838346D01*
X167657971Y-94838346D02*
X167157971Y-94838346D01*
X167157971Y-94838346D02*
X167157971Y-95124060D01*
X167800828Y-94195489D02*
X166300828Y-94195489D01*
X166300828Y-94195489D02*
X167800828Y-93338346D01*
X167800828Y-93338346D02*
X166300828Y-93338346D01*
X167800828Y-92624060D02*
X166300828Y-92624060D01*
X166300828Y-92624060D02*
X166300828Y-92266917D01*
X166300828Y-92266917D02*
X166372257Y-92052631D01*
X166372257Y-92052631D02*
X166515114Y-91909774D01*
X166515114Y-91909774D02*
X166657971Y-91838345D01*
X166657971Y-91838345D02*
X166943685Y-91766917D01*
X166943685Y-91766917D02*
X167157971Y-91766917D01*
X167157971Y-91766917D02*
X167443685Y-91838345D01*
X167443685Y-91838345D02*
X167586542Y-91909774D01*
X167586542Y-91909774D02*
X167729400Y-92052631D01*
X167729400Y-92052631D02*
X167800828Y-92266917D01*
X167800828Y-92266917D02*
X167800828Y-92624060D01*
X166300828Y-100981203D02*
X166300828Y-101695489D01*
X166300828Y-101695489D02*
X167015114Y-101766917D01*
X167015114Y-101766917D02*
X166943685Y-101695489D01*
X166943685Y-101695489D02*
X166872257Y-101552632D01*
X166872257Y-101552632D02*
X166872257Y-101195489D01*
X166872257Y-101195489D02*
X166943685Y-101052632D01*
X166943685Y-101052632D02*
X167015114Y-100981203D01*
X167015114Y-100981203D02*
X167157971Y-100909774D01*
X167157971Y-100909774D02*
X167515114Y-100909774D01*
X167515114Y-100909774D02*
X167657971Y-100981203D01*
X167657971Y-100981203D02*
X167729400Y-101052632D01*
X167729400Y-101052632D02*
X167800828Y-101195489D01*
X167800828Y-101195489D02*
X167800828Y-101552632D01*
X167800828Y-101552632D02*
X167729400Y-101695489D01*
X167729400Y-101695489D02*
X167657971Y-101766917D01*
X166300828Y-100481203D02*
X167800828Y-99981203D01*
X167800828Y-99981203D02*
X166300828Y-99481203D01*
X127520600Y-88875939D02*
X127449171Y-88733082D01*
X127449171Y-88733082D02*
X127449171Y-88447368D01*
X127449171Y-88447368D02*
X127520600Y-88304510D01*
X127520600Y-88304510D02*
X127663457Y-88233082D01*
X127663457Y-88233082D02*
X128234885Y-88233082D01*
X128234885Y-88233082D02*
X128377742Y-88304510D01*
X128377742Y-88304510D02*
X128449171Y-88447368D01*
X128449171Y-88447368D02*
X128449171Y-88733082D01*
X128449171Y-88733082D02*
X128377742Y-88875939D01*
X128377742Y-88875939D02*
X128234885Y-88947368D01*
X128234885Y-88947368D02*
X128092028Y-88947368D01*
X128092028Y-88947368D02*
X127949171Y-88233082D01*
X127449171Y-89804510D02*
X127520600Y-89661653D01*
X127520600Y-89661653D02*
X127663457Y-89590224D01*
X127663457Y-89590224D02*
X128949171Y-89590224D01*
X127520600Y-90947367D02*
X127449171Y-90804510D01*
X127449171Y-90804510D02*
X127449171Y-90518796D01*
X127449171Y-90518796D02*
X127520600Y-90375938D01*
X127520600Y-90375938D02*
X127663457Y-90304510D01*
X127663457Y-90304510D02*
X128234885Y-90304510D01*
X128234885Y-90304510D02*
X128377742Y-90375938D01*
X128377742Y-90375938D02*
X128449171Y-90518796D01*
X128449171Y-90518796D02*
X128449171Y-90804510D01*
X128449171Y-90804510D02*
X128377742Y-90947367D01*
X128377742Y-90947367D02*
X128234885Y-91018796D01*
X128234885Y-91018796D02*
X128092028Y-91018796D01*
X128092028Y-91018796D02*
X127949171Y-90304510D01*
X127520600Y-92304510D02*
X127449171Y-92161652D01*
X127449171Y-92161652D02*
X127449171Y-91875938D01*
X127449171Y-91875938D02*
X127520600Y-91733081D01*
X127520600Y-91733081D02*
X127592028Y-91661652D01*
X127592028Y-91661652D02*
X127734885Y-91590224D01*
X127734885Y-91590224D02*
X128163457Y-91590224D01*
X128163457Y-91590224D02*
X128306314Y-91661652D01*
X128306314Y-91661652D02*
X128377742Y-91733081D01*
X128377742Y-91733081D02*
X128449171Y-91875938D01*
X128449171Y-91875938D02*
X128449171Y-92161652D01*
X128449171Y-92161652D02*
X128377742Y-92304510D01*
X128449171Y-92733081D02*
X128449171Y-93304509D01*
X128949171Y-92947366D02*
X127663457Y-92947366D01*
X127663457Y-92947366D02*
X127520600Y-93018795D01*
X127520600Y-93018795D02*
X127449171Y-93161652D01*
X127449171Y-93161652D02*
X127449171Y-93304509D01*
X127449171Y-93804509D02*
X128449171Y-93804509D01*
X128163457Y-93804509D02*
X128306314Y-93875938D01*
X128306314Y-93875938D02*
X128377742Y-93947367D01*
X128377742Y-93947367D02*
X128449171Y-94090224D01*
X128449171Y-94090224D02*
X128449171Y-94233081D01*
X127449171Y-94947366D02*
X127520600Y-94804509D01*
X127520600Y-94804509D02*
X127592028Y-94733080D01*
X127592028Y-94733080D02*
X127734885Y-94661652D01*
X127734885Y-94661652D02*
X128163457Y-94661652D01*
X128163457Y-94661652D02*
X128306314Y-94733080D01*
X128306314Y-94733080D02*
X128377742Y-94804509D01*
X128377742Y-94804509D02*
X128449171Y-94947366D01*
X128449171Y-94947366D02*
X128449171Y-95161652D01*
X128449171Y-95161652D02*
X128377742Y-95304509D01*
X128377742Y-95304509D02*
X128306314Y-95375938D01*
X128306314Y-95375938D02*
X128163457Y-95447366D01*
X128163457Y-95447366D02*
X127734885Y-95447366D01*
X127734885Y-95447366D02*
X127592028Y-95375938D01*
X127592028Y-95375938D02*
X127520600Y-95304509D01*
X127520600Y-95304509D02*
X127449171Y-95161652D01*
X127449171Y-95161652D02*
X127449171Y-94947366D01*
X128449171Y-96090223D02*
X127449171Y-96090223D01*
X128306314Y-96090223D02*
X128377742Y-96161652D01*
X128377742Y-96161652D02*
X128449171Y-96304509D01*
X128449171Y-96304509D02*
X128449171Y-96518795D01*
X128449171Y-96518795D02*
X128377742Y-96661652D01*
X128377742Y-96661652D02*
X128234885Y-96733081D01*
X128234885Y-96733081D02*
X127449171Y-96733081D01*
X127449171Y-97447366D02*
X128449171Y-97447366D01*
X128949171Y-97447366D02*
X128877742Y-97375938D01*
X128877742Y-97375938D02*
X128806314Y-97447366D01*
X128806314Y-97447366D02*
X128877742Y-97518795D01*
X128877742Y-97518795D02*
X128949171Y-97447366D01*
X128949171Y-97447366D02*
X128806314Y-97447366D01*
X127520600Y-98804510D02*
X127449171Y-98661652D01*
X127449171Y-98661652D02*
X127449171Y-98375938D01*
X127449171Y-98375938D02*
X127520600Y-98233081D01*
X127520600Y-98233081D02*
X127592028Y-98161652D01*
X127592028Y-98161652D02*
X127734885Y-98090224D01*
X127734885Y-98090224D02*
X128163457Y-98090224D01*
X128163457Y-98090224D02*
X128306314Y-98161652D01*
X128306314Y-98161652D02*
X128377742Y-98233081D01*
X128377742Y-98233081D02*
X128449171Y-98375938D01*
X128449171Y-98375938D02*
X128449171Y-98661652D01*
X128449171Y-98661652D02*
X128377742Y-98804510D01*
X127520600Y-99375938D02*
X127449171Y-99518795D01*
X127449171Y-99518795D02*
X127449171Y-99804509D01*
X127449171Y-99804509D02*
X127520600Y-99947366D01*
X127520600Y-99947366D02*
X127663457Y-100018795D01*
X127663457Y-100018795D02*
X127734885Y-100018795D01*
X127734885Y-100018795D02*
X127877742Y-99947366D01*
X127877742Y-99947366D02*
X127949171Y-99804509D01*
X127949171Y-99804509D02*
X127949171Y-99590224D01*
X127949171Y-99590224D02*
X128020600Y-99447366D01*
X128020600Y-99447366D02*
X128163457Y-99375938D01*
X128163457Y-99375938D02*
X128234885Y-99375938D01*
X128234885Y-99375938D02*
X128377742Y-99447366D01*
X128377742Y-99447366D02*
X128449171Y-99590224D01*
X128449171Y-99590224D02*
X128449171Y-99804509D01*
X128449171Y-99804509D02*
X128377742Y-99947366D01*
D13*
X131342476Y-91110274D02*
X131342476Y-93491227D01*
X129913904Y-90634084D02*
X134913904Y-92300751D01*
X134913904Y-92300751D02*
X129913904Y-93967417D01*
X129913904Y-95634084D02*
X134913904Y-95634084D01*
X129913904Y-98491227D02*
X132771047Y-96348369D01*
X134913904Y-98491227D02*
X132056761Y-95634084D01*
D10*
X167440476Y-111454819D02*
X167440476Y-112169104D01*
X167440476Y-112169104D02*
X167392857Y-112311961D01*
X167392857Y-112311961D02*
X167297619Y-112407200D01*
X167297619Y-112407200D02*
X167154762Y-112454819D01*
X167154762Y-112454819D02*
X167059524Y-112454819D01*
X168440476Y-112454819D02*
X167869048Y-112454819D01*
X168154762Y-112454819D02*
X168154762Y-111454819D01*
X168154762Y-111454819D02*
X168059524Y-111597676D01*
X168059524Y-111597676D02*
X167964286Y-111692914D01*
X167964286Y-111692914D02*
X167869048Y-111740533D01*
X169059524Y-111454819D02*
X169154762Y-111454819D01*
X169154762Y-111454819D02*
X169250000Y-111502438D01*
X169250000Y-111502438D02*
X169297619Y-111550057D01*
X169297619Y-111550057D02*
X169345238Y-111645295D01*
X169345238Y-111645295D02*
X169392857Y-111835771D01*
X169392857Y-111835771D02*
X169392857Y-112073866D01*
X169392857Y-112073866D02*
X169345238Y-112264342D01*
X169345238Y-112264342D02*
X169297619Y-112359580D01*
X169297619Y-112359580D02*
X169250000Y-112407200D01*
X169250000Y-112407200D02*
X169154762Y-112454819D01*
X169154762Y-112454819D02*
X169059524Y-112454819D01*
X169059524Y-112454819D02*
X168964286Y-112407200D01*
X168964286Y-112407200D02*
X168916667Y-112359580D01*
X168916667Y-112359580D02*
X168869048Y-112264342D01*
X168869048Y-112264342D02*
X168821429Y-112073866D01*
X168821429Y-112073866D02*
X168821429Y-111835771D01*
X168821429Y-111835771D02*
X168869048Y-111645295D01*
X168869048Y-111645295D02*
X168916667Y-111550057D01*
X168916667Y-111550057D02*
X168964286Y-111502438D01*
X168964286Y-111502438D02*
X169059524Y-111454819D01*
X158095238Y-109657200D02*
X158238095Y-109704819D01*
X158238095Y-109704819D02*
X158476190Y-109704819D01*
X158476190Y-109704819D02*
X158571428Y-109657200D01*
X158571428Y-109657200D02*
X158619047Y-109609580D01*
X158619047Y-109609580D02*
X158666666Y-109514342D01*
X158666666Y-109514342D02*
X158666666Y-109419104D01*
X158666666Y-109419104D02*
X158619047Y-109323866D01*
X158619047Y-109323866D02*
X158571428Y-109276247D01*
X158571428Y-109276247D02*
X158476190Y-109228628D01*
X158476190Y-109228628D02*
X158285714Y-109181009D01*
X158285714Y-109181009D02*
X158190476Y-109133390D01*
X158190476Y-109133390D02*
X158142857Y-109085771D01*
X158142857Y-109085771D02*
X158095238Y-108990533D01*
X158095238Y-108990533D02*
X158095238Y-108895295D01*
X158095238Y-108895295D02*
X158142857Y-108800057D01*
X158142857Y-108800057D02*
X158190476Y-108752438D01*
X158190476Y-108752438D02*
X158285714Y-108704819D01*
X158285714Y-108704819D02*
X158523809Y-108704819D01*
X158523809Y-108704819D02*
X158666666Y-108752438D01*
X159095238Y-109181009D02*
X159428571Y-109181009D01*
X159571428Y-109704819D02*
X159095238Y-109704819D01*
X159095238Y-109704819D02*
X159095238Y-108704819D01*
X159095238Y-108704819D02*
X159571428Y-108704819D01*
X160571428Y-109704819D02*
X160238095Y-109228628D01*
X160000000Y-109704819D02*
X160000000Y-108704819D01*
X160000000Y-108704819D02*
X160380952Y-108704819D01*
X160380952Y-108704819D02*
X160476190Y-108752438D01*
X160476190Y-108752438D02*
X160523809Y-108800057D01*
X160523809Y-108800057D02*
X160571428Y-108895295D01*
X160571428Y-108895295D02*
X160571428Y-109038152D01*
X160571428Y-109038152D02*
X160523809Y-109133390D01*
X160523809Y-109133390D02*
X160476190Y-109181009D01*
X160476190Y-109181009D02*
X160380952Y-109228628D01*
X160380952Y-109228628D02*
X160000000Y-109228628D01*
X160857143Y-108704819D02*
X161190476Y-109704819D01*
X161190476Y-109704819D02*
X161523809Y-108704819D01*
X162047619Y-108704819D02*
X162238095Y-108704819D01*
X162238095Y-108704819D02*
X162333333Y-108752438D01*
X162333333Y-108752438D02*
X162428571Y-108847676D01*
X162428571Y-108847676D02*
X162476190Y-109038152D01*
X162476190Y-109038152D02*
X162476190Y-109371485D01*
X162476190Y-109371485D02*
X162428571Y-109561961D01*
X162428571Y-109561961D02*
X162333333Y-109657200D01*
X162333333Y-109657200D02*
X162238095Y-109704819D01*
X162238095Y-109704819D02*
X162047619Y-109704819D01*
X162047619Y-109704819D02*
X161952381Y-109657200D01*
X161952381Y-109657200D02*
X161857143Y-109561961D01*
X161857143Y-109561961D02*
X161809524Y-109371485D01*
X161809524Y-109371485D02*
X161809524Y-109038152D01*
X161809524Y-109038152D02*
X161857143Y-108847676D01*
X161857143Y-108847676D02*
X161952381Y-108752438D01*
X161952381Y-108752438D02*
X162047619Y-108704819D01*
X162666667Y-109800057D02*
X163428571Y-109800057D01*
X163571429Y-108704819D02*
X164238095Y-108704819D01*
X164238095Y-108704819D02*
X163809524Y-109704819D01*
X164380953Y-109800057D02*
X165142857Y-109800057D01*
X165904762Y-109704819D02*
X165333334Y-109704819D01*
X165619048Y-109704819D02*
X165619048Y-108704819D01*
X165619048Y-108704819D02*
X165523810Y-108847676D01*
X165523810Y-108847676D02*
X165428572Y-108942914D01*
X165428572Y-108942914D02*
X165333334Y-108990533D01*
X157190476Y-73954819D02*
X157190476Y-74669104D01*
X157190476Y-74669104D02*
X157142857Y-74811961D01*
X157142857Y-74811961D02*
X157047619Y-74907200D01*
X157047619Y-74907200D02*
X156904762Y-74954819D01*
X156904762Y-74954819D02*
X156809524Y-74954819D01*
X158190476Y-74954819D02*
X157619048Y-74954819D01*
X157904762Y-74954819D02*
X157904762Y-73954819D01*
X157904762Y-73954819D02*
X157809524Y-74097676D01*
X157809524Y-74097676D02*
X157714286Y-74192914D01*
X157714286Y-74192914D02*
X157619048Y-74240533D01*
X159047619Y-73954819D02*
X158857143Y-73954819D01*
X158857143Y-73954819D02*
X158761905Y-74002438D01*
X158761905Y-74002438D02*
X158714286Y-74050057D01*
X158714286Y-74050057D02*
X158619048Y-74192914D01*
X158619048Y-74192914D02*
X158571429Y-74383390D01*
X158571429Y-74383390D02*
X158571429Y-74764342D01*
X158571429Y-74764342D02*
X158619048Y-74859580D01*
X158619048Y-74859580D02*
X158666667Y-74907200D01*
X158666667Y-74907200D02*
X158761905Y-74954819D01*
X158761905Y-74954819D02*
X158952381Y-74954819D01*
X158952381Y-74954819D02*
X159047619Y-74907200D01*
X159047619Y-74907200D02*
X159095238Y-74859580D01*
X159095238Y-74859580D02*
X159142857Y-74764342D01*
X159142857Y-74764342D02*
X159142857Y-74526247D01*
X159142857Y-74526247D02*
X159095238Y-74431009D01*
X159095238Y-74431009D02*
X159047619Y-74383390D01*
X159047619Y-74383390D02*
X158952381Y-74335771D01*
X158952381Y-74335771D02*
X158761905Y-74335771D01*
X158761905Y-74335771D02*
X158666667Y-74383390D01*
X158666667Y-74383390D02*
X158619048Y-74431009D01*
X158619048Y-74431009D02*
X158571429Y-74526247D01*
X148345238Y-77657200D02*
X148488095Y-77704819D01*
X148488095Y-77704819D02*
X148726190Y-77704819D01*
X148726190Y-77704819D02*
X148821428Y-77657200D01*
X148821428Y-77657200D02*
X148869047Y-77609580D01*
X148869047Y-77609580D02*
X148916666Y-77514342D01*
X148916666Y-77514342D02*
X148916666Y-77419104D01*
X148916666Y-77419104D02*
X148869047Y-77323866D01*
X148869047Y-77323866D02*
X148821428Y-77276247D01*
X148821428Y-77276247D02*
X148726190Y-77228628D01*
X148726190Y-77228628D02*
X148535714Y-77181009D01*
X148535714Y-77181009D02*
X148440476Y-77133390D01*
X148440476Y-77133390D02*
X148392857Y-77085771D01*
X148392857Y-77085771D02*
X148345238Y-76990533D01*
X148345238Y-76990533D02*
X148345238Y-76895295D01*
X148345238Y-76895295D02*
X148392857Y-76800057D01*
X148392857Y-76800057D02*
X148440476Y-76752438D01*
X148440476Y-76752438D02*
X148535714Y-76704819D01*
X148535714Y-76704819D02*
X148773809Y-76704819D01*
X148773809Y-76704819D02*
X148916666Y-76752438D01*
X149345238Y-77181009D02*
X149678571Y-77181009D01*
X149821428Y-77704819D02*
X149345238Y-77704819D01*
X149345238Y-77704819D02*
X149345238Y-76704819D01*
X149345238Y-76704819D02*
X149821428Y-76704819D01*
X150821428Y-77704819D02*
X150488095Y-77228628D01*
X150250000Y-77704819D02*
X150250000Y-76704819D01*
X150250000Y-76704819D02*
X150630952Y-76704819D01*
X150630952Y-76704819D02*
X150726190Y-76752438D01*
X150726190Y-76752438D02*
X150773809Y-76800057D01*
X150773809Y-76800057D02*
X150821428Y-76895295D01*
X150821428Y-76895295D02*
X150821428Y-77038152D01*
X150821428Y-77038152D02*
X150773809Y-77133390D01*
X150773809Y-77133390D02*
X150726190Y-77181009D01*
X150726190Y-77181009D02*
X150630952Y-77228628D01*
X150630952Y-77228628D02*
X150250000Y-77228628D01*
X151107143Y-76704819D02*
X151440476Y-77704819D01*
X151440476Y-77704819D02*
X151773809Y-76704819D01*
X152297619Y-76704819D02*
X152488095Y-76704819D01*
X152488095Y-76704819D02*
X152583333Y-76752438D01*
X152583333Y-76752438D02*
X152678571Y-76847676D01*
X152678571Y-76847676D02*
X152726190Y-77038152D01*
X152726190Y-77038152D02*
X152726190Y-77371485D01*
X152726190Y-77371485D02*
X152678571Y-77561961D01*
X152678571Y-77561961D02*
X152583333Y-77657200D01*
X152583333Y-77657200D02*
X152488095Y-77704819D01*
X152488095Y-77704819D02*
X152297619Y-77704819D01*
X152297619Y-77704819D02*
X152202381Y-77657200D01*
X152202381Y-77657200D02*
X152107143Y-77561961D01*
X152107143Y-77561961D02*
X152059524Y-77371485D01*
X152059524Y-77371485D02*
X152059524Y-77038152D01*
X152059524Y-77038152D02*
X152107143Y-76847676D01*
X152107143Y-76847676D02*
X152202381Y-76752438D01*
X152202381Y-76752438D02*
X152297619Y-76704819D01*
X152916667Y-77800057D02*
X153678571Y-77800057D01*
X154345238Y-76704819D02*
X154154762Y-76704819D01*
X154154762Y-76704819D02*
X154059524Y-76752438D01*
X154059524Y-76752438D02*
X154011905Y-76800057D01*
X154011905Y-76800057D02*
X153916667Y-76942914D01*
X153916667Y-76942914D02*
X153869048Y-77133390D01*
X153869048Y-77133390D02*
X153869048Y-77514342D01*
X153869048Y-77514342D02*
X153916667Y-77609580D01*
X153916667Y-77609580D02*
X153964286Y-77657200D01*
X153964286Y-77657200D02*
X154059524Y-77704819D01*
X154059524Y-77704819D02*
X154250000Y-77704819D01*
X154250000Y-77704819D02*
X154345238Y-77657200D01*
X154345238Y-77657200D02*
X154392857Y-77609580D01*
X154392857Y-77609580D02*
X154440476Y-77514342D01*
X154440476Y-77514342D02*
X154440476Y-77276247D01*
X154440476Y-77276247D02*
X154392857Y-77181009D01*
X154392857Y-77181009D02*
X154345238Y-77133390D01*
X154345238Y-77133390D02*
X154250000Y-77085771D01*
X154250000Y-77085771D02*
X154059524Y-77085771D01*
X154059524Y-77085771D02*
X153964286Y-77133390D01*
X153964286Y-77133390D02*
X153916667Y-77181009D01*
X153916667Y-77181009D02*
X153869048Y-77276247D01*
X154630953Y-77800057D02*
X155392857Y-77800057D01*
X155583334Y-76800057D02*
X155630953Y-76752438D01*
X155630953Y-76752438D02*
X155726191Y-76704819D01*
X155726191Y-76704819D02*
X155964286Y-76704819D01*
X155964286Y-76704819D02*
X156059524Y-76752438D01*
X156059524Y-76752438D02*
X156107143Y-76800057D01*
X156107143Y-76800057D02*
X156154762Y-76895295D01*
X156154762Y-76895295D02*
X156154762Y-76990533D01*
X156154762Y-76990533D02*
X156107143Y-77133390D01*
X156107143Y-77133390D02*
X155535715Y-77704819D01*
X155535715Y-77704819D02*
X156154762Y-77704819D01*
X156166666Y-111454819D02*
X156166666Y-112169104D01*
X156166666Y-112169104D02*
X156119047Y-112311961D01*
X156119047Y-112311961D02*
X156023809Y-112407200D01*
X156023809Y-112407200D02*
X155880952Y-112454819D01*
X155880952Y-112454819D02*
X155785714Y-112454819D01*
X156690476Y-112454819D02*
X156880952Y-112454819D01*
X156880952Y-112454819D02*
X156976190Y-112407200D01*
X156976190Y-112407200D02*
X157023809Y-112359580D01*
X157023809Y-112359580D02*
X157119047Y-112216723D01*
X157119047Y-112216723D02*
X157166666Y-112026247D01*
X157166666Y-112026247D02*
X157166666Y-111645295D01*
X157166666Y-111645295D02*
X157119047Y-111550057D01*
X157119047Y-111550057D02*
X157071428Y-111502438D01*
X157071428Y-111502438D02*
X156976190Y-111454819D01*
X156976190Y-111454819D02*
X156785714Y-111454819D01*
X156785714Y-111454819D02*
X156690476Y-111502438D01*
X156690476Y-111502438D02*
X156642857Y-111550057D01*
X156642857Y-111550057D02*
X156595238Y-111645295D01*
X156595238Y-111645295D02*
X156595238Y-111883390D01*
X156595238Y-111883390D02*
X156642857Y-111978628D01*
X156642857Y-111978628D02*
X156690476Y-112026247D01*
X156690476Y-112026247D02*
X156785714Y-112073866D01*
X156785714Y-112073866D02*
X156976190Y-112073866D01*
X156976190Y-112073866D02*
X157071428Y-112026247D01*
X157071428Y-112026247D02*
X157119047Y-111978628D01*
X157119047Y-111978628D02*
X157166666Y-111883390D01*
X146845238Y-109657200D02*
X146988095Y-109704819D01*
X146988095Y-109704819D02*
X147226190Y-109704819D01*
X147226190Y-109704819D02*
X147321428Y-109657200D01*
X147321428Y-109657200D02*
X147369047Y-109609580D01*
X147369047Y-109609580D02*
X147416666Y-109514342D01*
X147416666Y-109514342D02*
X147416666Y-109419104D01*
X147416666Y-109419104D02*
X147369047Y-109323866D01*
X147369047Y-109323866D02*
X147321428Y-109276247D01*
X147321428Y-109276247D02*
X147226190Y-109228628D01*
X147226190Y-109228628D02*
X147035714Y-109181009D01*
X147035714Y-109181009D02*
X146940476Y-109133390D01*
X146940476Y-109133390D02*
X146892857Y-109085771D01*
X146892857Y-109085771D02*
X146845238Y-108990533D01*
X146845238Y-108990533D02*
X146845238Y-108895295D01*
X146845238Y-108895295D02*
X146892857Y-108800057D01*
X146892857Y-108800057D02*
X146940476Y-108752438D01*
X146940476Y-108752438D02*
X147035714Y-108704819D01*
X147035714Y-108704819D02*
X147273809Y-108704819D01*
X147273809Y-108704819D02*
X147416666Y-108752438D01*
X147845238Y-109181009D02*
X148178571Y-109181009D01*
X148321428Y-109704819D02*
X147845238Y-109704819D01*
X147845238Y-109704819D02*
X147845238Y-108704819D01*
X147845238Y-108704819D02*
X148321428Y-108704819D01*
X149321428Y-109704819D02*
X148988095Y-109228628D01*
X148750000Y-109704819D02*
X148750000Y-108704819D01*
X148750000Y-108704819D02*
X149130952Y-108704819D01*
X149130952Y-108704819D02*
X149226190Y-108752438D01*
X149226190Y-108752438D02*
X149273809Y-108800057D01*
X149273809Y-108800057D02*
X149321428Y-108895295D01*
X149321428Y-108895295D02*
X149321428Y-109038152D01*
X149321428Y-109038152D02*
X149273809Y-109133390D01*
X149273809Y-109133390D02*
X149226190Y-109181009D01*
X149226190Y-109181009D02*
X149130952Y-109228628D01*
X149130952Y-109228628D02*
X148750000Y-109228628D01*
X149607143Y-108704819D02*
X149940476Y-109704819D01*
X149940476Y-109704819D02*
X150273809Y-108704819D01*
X150797619Y-108704819D02*
X150988095Y-108704819D01*
X150988095Y-108704819D02*
X151083333Y-108752438D01*
X151083333Y-108752438D02*
X151178571Y-108847676D01*
X151178571Y-108847676D02*
X151226190Y-109038152D01*
X151226190Y-109038152D02*
X151226190Y-109371485D01*
X151226190Y-109371485D02*
X151178571Y-109561961D01*
X151178571Y-109561961D02*
X151083333Y-109657200D01*
X151083333Y-109657200D02*
X150988095Y-109704819D01*
X150988095Y-109704819D02*
X150797619Y-109704819D01*
X150797619Y-109704819D02*
X150702381Y-109657200D01*
X150702381Y-109657200D02*
X150607143Y-109561961D01*
X150607143Y-109561961D02*
X150559524Y-109371485D01*
X150559524Y-109371485D02*
X150559524Y-109038152D01*
X150559524Y-109038152D02*
X150607143Y-108847676D01*
X150607143Y-108847676D02*
X150702381Y-108752438D01*
X150702381Y-108752438D02*
X150797619Y-108704819D01*
X151416667Y-109800057D02*
X152178571Y-109800057D01*
X152845238Y-108704819D02*
X152654762Y-108704819D01*
X152654762Y-108704819D02*
X152559524Y-108752438D01*
X152559524Y-108752438D02*
X152511905Y-108800057D01*
X152511905Y-108800057D02*
X152416667Y-108942914D01*
X152416667Y-108942914D02*
X152369048Y-109133390D01*
X152369048Y-109133390D02*
X152369048Y-109514342D01*
X152369048Y-109514342D02*
X152416667Y-109609580D01*
X152416667Y-109609580D02*
X152464286Y-109657200D01*
X152464286Y-109657200D02*
X152559524Y-109704819D01*
X152559524Y-109704819D02*
X152750000Y-109704819D01*
X152750000Y-109704819D02*
X152845238Y-109657200D01*
X152845238Y-109657200D02*
X152892857Y-109609580D01*
X152892857Y-109609580D02*
X152940476Y-109514342D01*
X152940476Y-109514342D02*
X152940476Y-109276247D01*
X152940476Y-109276247D02*
X152892857Y-109181009D01*
X152892857Y-109181009D02*
X152845238Y-109133390D01*
X152845238Y-109133390D02*
X152750000Y-109085771D01*
X152750000Y-109085771D02*
X152559524Y-109085771D01*
X152559524Y-109085771D02*
X152464286Y-109133390D01*
X152464286Y-109133390D02*
X152416667Y-109181009D01*
X152416667Y-109181009D02*
X152369048Y-109276247D01*
X153130953Y-109800057D02*
X153892857Y-109800057D01*
X154654762Y-109704819D02*
X154083334Y-109704819D01*
X154369048Y-109704819D02*
X154369048Y-108704819D01*
X154369048Y-108704819D02*
X154273810Y-108847676D01*
X154273810Y-108847676D02*
X154178572Y-108942914D01*
X154178572Y-108942914D02*
X154083334Y-108990533D01*
X120416666Y-96704819D02*
X120416666Y-97419104D01*
X120416666Y-97419104D02*
X120369047Y-97561961D01*
X120369047Y-97561961D02*
X120273809Y-97657200D01*
X120273809Y-97657200D02*
X120130952Y-97704819D01*
X120130952Y-97704819D02*
X120035714Y-97704819D01*
X120892857Y-97704819D02*
X120892857Y-96704819D01*
X120892857Y-96704819D02*
X121273809Y-96704819D01*
X121273809Y-96704819D02*
X121369047Y-96752438D01*
X121369047Y-96752438D02*
X121416666Y-96800057D01*
X121416666Y-96800057D02*
X121464285Y-96895295D01*
X121464285Y-96895295D02*
X121464285Y-97038152D01*
X121464285Y-97038152D02*
X121416666Y-97133390D01*
X121416666Y-97133390D02*
X121369047Y-97181009D01*
X121369047Y-97181009D02*
X121273809Y-97228628D01*
X121273809Y-97228628D02*
X120892857Y-97228628D01*
X121845238Y-96800057D02*
X121892857Y-96752438D01*
X121892857Y-96752438D02*
X121988095Y-96704819D01*
X121988095Y-96704819D02*
X122226190Y-96704819D01*
X122226190Y-96704819D02*
X122321428Y-96752438D01*
X122321428Y-96752438D02*
X122369047Y-96800057D01*
X122369047Y-96800057D02*
X122416666Y-96895295D01*
X122416666Y-96895295D02*
X122416666Y-96990533D01*
X122416666Y-96990533D02*
X122369047Y-97133390D01*
X122369047Y-97133390D02*
X121797619Y-97704819D01*
X121797619Y-97704819D02*
X122416666Y-97704819D01*
X144333333Y-90859580D02*
X144285714Y-90907200D01*
X144285714Y-90907200D02*
X144142857Y-90954819D01*
X144142857Y-90954819D02*
X144047619Y-90954819D01*
X144047619Y-90954819D02*
X143904762Y-90907200D01*
X143904762Y-90907200D02*
X143809524Y-90811961D01*
X143809524Y-90811961D02*
X143761905Y-90716723D01*
X143761905Y-90716723D02*
X143714286Y-90526247D01*
X143714286Y-90526247D02*
X143714286Y-90383390D01*
X143714286Y-90383390D02*
X143761905Y-90192914D01*
X143761905Y-90192914D02*
X143809524Y-90097676D01*
X143809524Y-90097676D02*
X143904762Y-90002438D01*
X143904762Y-90002438D02*
X144047619Y-89954819D01*
X144047619Y-89954819D02*
X144142857Y-89954819D01*
X144142857Y-89954819D02*
X144285714Y-90002438D01*
X144285714Y-90002438D02*
X144333333Y-90050057D01*
X144714286Y-90050057D02*
X144761905Y-90002438D01*
X144761905Y-90002438D02*
X144857143Y-89954819D01*
X144857143Y-89954819D02*
X145095238Y-89954819D01*
X145095238Y-89954819D02*
X145190476Y-90002438D01*
X145190476Y-90002438D02*
X145238095Y-90050057D01*
X145238095Y-90050057D02*
X145285714Y-90145295D01*
X145285714Y-90145295D02*
X145285714Y-90240533D01*
X145285714Y-90240533D02*
X145238095Y-90383390D01*
X145238095Y-90383390D02*
X144666667Y-90954819D01*
X144666667Y-90954819D02*
X145285714Y-90954819D01*
X142476190Y-95454819D02*
X141904762Y-95454819D01*
X142190476Y-95454819D02*
X142190476Y-94454819D01*
X142190476Y-94454819D02*
X142095238Y-94597676D01*
X142095238Y-94597676D02*
X142000000Y-94692914D01*
X142000000Y-94692914D02*
X141904762Y-94740533D01*
X143095238Y-94454819D02*
X143190476Y-94454819D01*
X143190476Y-94454819D02*
X143285714Y-94502438D01*
X143285714Y-94502438D02*
X143333333Y-94550057D01*
X143333333Y-94550057D02*
X143380952Y-94645295D01*
X143380952Y-94645295D02*
X143428571Y-94835771D01*
X143428571Y-94835771D02*
X143428571Y-95073866D01*
X143428571Y-95073866D02*
X143380952Y-95264342D01*
X143380952Y-95264342D02*
X143333333Y-95359580D01*
X143333333Y-95359580D02*
X143285714Y-95407200D01*
X143285714Y-95407200D02*
X143190476Y-95454819D01*
X143190476Y-95454819D02*
X143095238Y-95454819D01*
X143095238Y-95454819D02*
X143000000Y-95407200D01*
X143000000Y-95407200D02*
X142952381Y-95359580D01*
X142952381Y-95359580D02*
X142904762Y-95264342D01*
X142904762Y-95264342D02*
X142857143Y-95073866D01*
X142857143Y-95073866D02*
X142857143Y-94835771D01*
X142857143Y-94835771D02*
X142904762Y-94645295D01*
X142904762Y-94645295D02*
X142952381Y-94550057D01*
X142952381Y-94550057D02*
X143000000Y-94502438D01*
X143000000Y-94502438D02*
X143095238Y-94454819D01*
X144047619Y-94454819D02*
X144142857Y-94454819D01*
X144142857Y-94454819D02*
X144238095Y-94502438D01*
X144238095Y-94502438D02*
X144285714Y-94550057D01*
X144285714Y-94550057D02*
X144333333Y-94645295D01*
X144333333Y-94645295D02*
X144380952Y-94835771D01*
X144380952Y-94835771D02*
X144380952Y-95073866D01*
X144380952Y-95073866D02*
X144333333Y-95264342D01*
X144333333Y-95264342D02*
X144285714Y-95359580D01*
X144285714Y-95359580D02*
X144238095Y-95407200D01*
X144238095Y-95407200D02*
X144142857Y-95454819D01*
X144142857Y-95454819D02*
X144047619Y-95454819D01*
X144047619Y-95454819D02*
X143952381Y-95407200D01*
X143952381Y-95407200D02*
X143904762Y-95359580D01*
X143904762Y-95359580D02*
X143857143Y-95264342D01*
X143857143Y-95264342D02*
X143809524Y-95073866D01*
X143809524Y-95073866D02*
X143809524Y-94835771D01*
X143809524Y-94835771D02*
X143857143Y-94645295D01*
X143857143Y-94645295D02*
X143904762Y-94550057D01*
X143904762Y-94550057D02*
X143952381Y-94502438D01*
X143952381Y-94502438D02*
X144047619Y-94454819D01*
X145000000Y-94454819D02*
X145095238Y-94454819D01*
X145095238Y-94454819D02*
X145190476Y-94502438D01*
X145190476Y-94502438D02*
X145238095Y-94550057D01*
X145238095Y-94550057D02*
X145285714Y-94645295D01*
X145285714Y-94645295D02*
X145333333Y-94835771D01*
X145333333Y-94835771D02*
X145333333Y-95073866D01*
X145333333Y-95073866D02*
X145285714Y-95264342D01*
X145285714Y-95264342D02*
X145238095Y-95359580D01*
X145238095Y-95359580D02*
X145190476Y-95407200D01*
X145190476Y-95407200D02*
X145095238Y-95454819D01*
X145095238Y-95454819D02*
X145000000Y-95454819D01*
X145000000Y-95454819D02*
X144904762Y-95407200D01*
X144904762Y-95407200D02*
X144857143Y-95359580D01*
X144857143Y-95359580D02*
X144809524Y-95264342D01*
X144809524Y-95264342D02*
X144761905Y-95073866D01*
X144761905Y-95073866D02*
X144761905Y-94835771D01*
X144761905Y-94835771D02*
X144809524Y-94645295D01*
X144809524Y-94645295D02*
X144857143Y-94550057D01*
X144857143Y-94550057D02*
X144904762Y-94502438D01*
X144904762Y-94502438D02*
X145000000Y-94454819D01*
X146190476Y-94788152D02*
X146190476Y-95454819D01*
X145761905Y-94788152D02*
X145761905Y-95311961D01*
X145761905Y-95311961D02*
X145809524Y-95407200D01*
X145809524Y-95407200D02*
X145904762Y-95454819D01*
X145904762Y-95454819D02*
X146047619Y-95454819D01*
X146047619Y-95454819D02*
X146142857Y-95407200D01*
X146142857Y-95407200D02*
X146190476Y-95359580D01*
X147000000Y-94931009D02*
X146666667Y-94931009D01*
X146666667Y-95454819D02*
X146666667Y-94454819D01*
X146666667Y-94454819D02*
X147142857Y-94454819D01*
X122666666Y-111204819D02*
X122666666Y-111919104D01*
X122666666Y-111919104D02*
X122619047Y-112061961D01*
X122619047Y-112061961D02*
X122523809Y-112157200D01*
X122523809Y-112157200D02*
X122380952Y-112204819D01*
X122380952Y-112204819D02*
X122285714Y-112204819D01*
X123571428Y-111204819D02*
X123380952Y-111204819D01*
X123380952Y-111204819D02*
X123285714Y-111252438D01*
X123285714Y-111252438D02*
X123238095Y-111300057D01*
X123238095Y-111300057D02*
X123142857Y-111442914D01*
X123142857Y-111442914D02*
X123095238Y-111633390D01*
X123095238Y-111633390D02*
X123095238Y-112014342D01*
X123095238Y-112014342D02*
X123142857Y-112109580D01*
X123142857Y-112109580D02*
X123190476Y-112157200D01*
X123190476Y-112157200D02*
X123285714Y-112204819D01*
X123285714Y-112204819D02*
X123476190Y-112204819D01*
X123476190Y-112204819D02*
X123571428Y-112157200D01*
X123571428Y-112157200D02*
X123619047Y-112109580D01*
X123619047Y-112109580D02*
X123666666Y-112014342D01*
X123666666Y-112014342D02*
X123666666Y-111776247D01*
X123666666Y-111776247D02*
X123619047Y-111681009D01*
X123619047Y-111681009D02*
X123571428Y-111633390D01*
X123571428Y-111633390D02*
X123476190Y-111585771D01*
X123476190Y-111585771D02*
X123285714Y-111585771D01*
X123285714Y-111585771D02*
X123190476Y-111633390D01*
X123190476Y-111633390D02*
X123142857Y-111681009D01*
X123142857Y-111681009D02*
X123095238Y-111776247D01*
X113345238Y-109407200D02*
X113488095Y-109454819D01*
X113488095Y-109454819D02*
X113726190Y-109454819D01*
X113726190Y-109454819D02*
X113821428Y-109407200D01*
X113821428Y-109407200D02*
X113869047Y-109359580D01*
X113869047Y-109359580D02*
X113916666Y-109264342D01*
X113916666Y-109264342D02*
X113916666Y-109169104D01*
X113916666Y-109169104D02*
X113869047Y-109073866D01*
X113869047Y-109073866D02*
X113821428Y-109026247D01*
X113821428Y-109026247D02*
X113726190Y-108978628D01*
X113726190Y-108978628D02*
X113535714Y-108931009D01*
X113535714Y-108931009D02*
X113440476Y-108883390D01*
X113440476Y-108883390D02*
X113392857Y-108835771D01*
X113392857Y-108835771D02*
X113345238Y-108740533D01*
X113345238Y-108740533D02*
X113345238Y-108645295D01*
X113345238Y-108645295D02*
X113392857Y-108550057D01*
X113392857Y-108550057D02*
X113440476Y-108502438D01*
X113440476Y-108502438D02*
X113535714Y-108454819D01*
X113535714Y-108454819D02*
X113773809Y-108454819D01*
X113773809Y-108454819D02*
X113916666Y-108502438D01*
X114345238Y-108931009D02*
X114678571Y-108931009D01*
X114821428Y-109454819D02*
X114345238Y-109454819D01*
X114345238Y-109454819D02*
X114345238Y-108454819D01*
X114345238Y-108454819D02*
X114821428Y-108454819D01*
X115821428Y-109454819D02*
X115488095Y-108978628D01*
X115250000Y-109454819D02*
X115250000Y-108454819D01*
X115250000Y-108454819D02*
X115630952Y-108454819D01*
X115630952Y-108454819D02*
X115726190Y-108502438D01*
X115726190Y-108502438D02*
X115773809Y-108550057D01*
X115773809Y-108550057D02*
X115821428Y-108645295D01*
X115821428Y-108645295D02*
X115821428Y-108788152D01*
X115821428Y-108788152D02*
X115773809Y-108883390D01*
X115773809Y-108883390D02*
X115726190Y-108931009D01*
X115726190Y-108931009D02*
X115630952Y-108978628D01*
X115630952Y-108978628D02*
X115250000Y-108978628D01*
X116107143Y-108454819D02*
X116440476Y-109454819D01*
X116440476Y-109454819D02*
X116773809Y-108454819D01*
X117297619Y-108454819D02*
X117488095Y-108454819D01*
X117488095Y-108454819D02*
X117583333Y-108502438D01*
X117583333Y-108502438D02*
X117678571Y-108597676D01*
X117678571Y-108597676D02*
X117726190Y-108788152D01*
X117726190Y-108788152D02*
X117726190Y-109121485D01*
X117726190Y-109121485D02*
X117678571Y-109311961D01*
X117678571Y-109311961D02*
X117583333Y-109407200D01*
X117583333Y-109407200D02*
X117488095Y-109454819D01*
X117488095Y-109454819D02*
X117297619Y-109454819D01*
X117297619Y-109454819D02*
X117202381Y-109407200D01*
X117202381Y-109407200D02*
X117107143Y-109311961D01*
X117107143Y-109311961D02*
X117059524Y-109121485D01*
X117059524Y-109121485D02*
X117059524Y-108788152D01*
X117059524Y-108788152D02*
X117107143Y-108597676D01*
X117107143Y-108597676D02*
X117202381Y-108502438D01*
X117202381Y-108502438D02*
X117297619Y-108454819D01*
X117916667Y-109550057D02*
X118678571Y-109550057D01*
X118821429Y-108454819D02*
X119440476Y-108454819D01*
X119440476Y-108454819D02*
X119107143Y-108835771D01*
X119107143Y-108835771D02*
X119250000Y-108835771D01*
X119250000Y-108835771D02*
X119345238Y-108883390D01*
X119345238Y-108883390D02*
X119392857Y-108931009D01*
X119392857Y-108931009D02*
X119440476Y-109026247D01*
X119440476Y-109026247D02*
X119440476Y-109264342D01*
X119440476Y-109264342D02*
X119392857Y-109359580D01*
X119392857Y-109359580D02*
X119345238Y-109407200D01*
X119345238Y-109407200D02*
X119250000Y-109454819D01*
X119250000Y-109454819D02*
X118964286Y-109454819D01*
X118964286Y-109454819D02*
X118869048Y-109407200D01*
X118869048Y-109407200D02*
X118821429Y-109359580D01*
X119630953Y-109550057D02*
X120392857Y-109550057D01*
X121154762Y-109454819D02*
X120583334Y-109454819D01*
X120869048Y-109454819D02*
X120869048Y-108454819D01*
X120869048Y-108454819D02*
X120773810Y-108597676D01*
X120773810Y-108597676D02*
X120678572Y-108692914D01*
X120678572Y-108692914D02*
X120583334Y-108740533D01*
X110940476Y-73954819D02*
X110940476Y-74669104D01*
X110940476Y-74669104D02*
X110892857Y-74811961D01*
X110892857Y-74811961D02*
X110797619Y-74907200D01*
X110797619Y-74907200D02*
X110654762Y-74954819D01*
X110654762Y-74954819D02*
X110559524Y-74954819D01*
X111940476Y-74954819D02*
X111369048Y-74954819D01*
X111654762Y-74954819D02*
X111654762Y-73954819D01*
X111654762Y-73954819D02*
X111559524Y-74097676D01*
X111559524Y-74097676D02*
X111464286Y-74192914D01*
X111464286Y-74192914D02*
X111369048Y-74240533D01*
X112321429Y-74050057D02*
X112369048Y-74002438D01*
X112369048Y-74002438D02*
X112464286Y-73954819D01*
X112464286Y-73954819D02*
X112702381Y-73954819D01*
X112702381Y-73954819D02*
X112797619Y-74002438D01*
X112797619Y-74002438D02*
X112845238Y-74050057D01*
X112845238Y-74050057D02*
X112892857Y-74145295D01*
X112892857Y-74145295D02*
X112892857Y-74240533D01*
X112892857Y-74240533D02*
X112845238Y-74383390D01*
X112845238Y-74383390D02*
X112273810Y-74954819D01*
X112273810Y-74954819D02*
X112892857Y-74954819D01*
X102095238Y-77407200D02*
X102238095Y-77454819D01*
X102238095Y-77454819D02*
X102476190Y-77454819D01*
X102476190Y-77454819D02*
X102571428Y-77407200D01*
X102571428Y-77407200D02*
X102619047Y-77359580D01*
X102619047Y-77359580D02*
X102666666Y-77264342D01*
X102666666Y-77264342D02*
X102666666Y-77169104D01*
X102666666Y-77169104D02*
X102619047Y-77073866D01*
X102619047Y-77073866D02*
X102571428Y-77026247D01*
X102571428Y-77026247D02*
X102476190Y-76978628D01*
X102476190Y-76978628D02*
X102285714Y-76931009D01*
X102285714Y-76931009D02*
X102190476Y-76883390D01*
X102190476Y-76883390D02*
X102142857Y-76835771D01*
X102142857Y-76835771D02*
X102095238Y-76740533D01*
X102095238Y-76740533D02*
X102095238Y-76645295D01*
X102095238Y-76645295D02*
X102142857Y-76550057D01*
X102142857Y-76550057D02*
X102190476Y-76502438D01*
X102190476Y-76502438D02*
X102285714Y-76454819D01*
X102285714Y-76454819D02*
X102523809Y-76454819D01*
X102523809Y-76454819D02*
X102666666Y-76502438D01*
X103095238Y-76931009D02*
X103428571Y-76931009D01*
X103571428Y-77454819D02*
X103095238Y-77454819D01*
X103095238Y-77454819D02*
X103095238Y-76454819D01*
X103095238Y-76454819D02*
X103571428Y-76454819D01*
X104571428Y-77454819D02*
X104238095Y-76978628D01*
X104000000Y-77454819D02*
X104000000Y-76454819D01*
X104000000Y-76454819D02*
X104380952Y-76454819D01*
X104380952Y-76454819D02*
X104476190Y-76502438D01*
X104476190Y-76502438D02*
X104523809Y-76550057D01*
X104523809Y-76550057D02*
X104571428Y-76645295D01*
X104571428Y-76645295D02*
X104571428Y-76788152D01*
X104571428Y-76788152D02*
X104523809Y-76883390D01*
X104523809Y-76883390D02*
X104476190Y-76931009D01*
X104476190Y-76931009D02*
X104380952Y-76978628D01*
X104380952Y-76978628D02*
X104000000Y-76978628D01*
X104857143Y-76454819D02*
X105190476Y-77454819D01*
X105190476Y-77454819D02*
X105523809Y-76454819D01*
X106047619Y-76454819D02*
X106238095Y-76454819D01*
X106238095Y-76454819D02*
X106333333Y-76502438D01*
X106333333Y-76502438D02*
X106428571Y-76597676D01*
X106428571Y-76597676D02*
X106476190Y-76788152D01*
X106476190Y-76788152D02*
X106476190Y-77121485D01*
X106476190Y-77121485D02*
X106428571Y-77311961D01*
X106428571Y-77311961D02*
X106333333Y-77407200D01*
X106333333Y-77407200D02*
X106238095Y-77454819D01*
X106238095Y-77454819D02*
X106047619Y-77454819D01*
X106047619Y-77454819D02*
X105952381Y-77407200D01*
X105952381Y-77407200D02*
X105857143Y-77311961D01*
X105857143Y-77311961D02*
X105809524Y-77121485D01*
X105809524Y-77121485D02*
X105809524Y-76788152D01*
X105809524Y-76788152D02*
X105857143Y-76597676D01*
X105857143Y-76597676D02*
X105952381Y-76502438D01*
X105952381Y-76502438D02*
X106047619Y-76454819D01*
X106666667Y-77550057D02*
X107428571Y-77550057D01*
X107619048Y-76550057D02*
X107666667Y-76502438D01*
X107666667Y-76502438D02*
X107761905Y-76454819D01*
X107761905Y-76454819D02*
X108000000Y-76454819D01*
X108000000Y-76454819D02*
X108095238Y-76502438D01*
X108095238Y-76502438D02*
X108142857Y-76550057D01*
X108142857Y-76550057D02*
X108190476Y-76645295D01*
X108190476Y-76645295D02*
X108190476Y-76740533D01*
X108190476Y-76740533D02*
X108142857Y-76883390D01*
X108142857Y-76883390D02*
X107571429Y-77454819D01*
X107571429Y-77454819D02*
X108190476Y-77454819D01*
X108380953Y-77550057D02*
X109142857Y-77550057D01*
X109333334Y-76550057D02*
X109380953Y-76502438D01*
X109380953Y-76502438D02*
X109476191Y-76454819D01*
X109476191Y-76454819D02*
X109714286Y-76454819D01*
X109714286Y-76454819D02*
X109809524Y-76502438D01*
X109809524Y-76502438D02*
X109857143Y-76550057D01*
X109857143Y-76550057D02*
X109904762Y-76645295D01*
X109904762Y-76645295D02*
X109904762Y-76740533D01*
X109904762Y-76740533D02*
X109857143Y-76883390D01*
X109857143Y-76883390D02*
X109285715Y-77454819D01*
X109285715Y-77454819D02*
X109904762Y-77454819D01*
X113166666Y-96954819D02*
X113166666Y-97669104D01*
X113166666Y-97669104D02*
X113119047Y-97811961D01*
X113119047Y-97811961D02*
X113023809Y-97907200D01*
X113023809Y-97907200D02*
X112880952Y-97954819D01*
X112880952Y-97954819D02*
X112785714Y-97954819D01*
X113642857Y-97954819D02*
X113642857Y-96954819D01*
X113642857Y-96954819D02*
X114023809Y-96954819D01*
X114023809Y-96954819D02*
X114119047Y-97002438D01*
X114119047Y-97002438D02*
X114166666Y-97050057D01*
X114166666Y-97050057D02*
X114214285Y-97145295D01*
X114214285Y-97145295D02*
X114214285Y-97288152D01*
X114214285Y-97288152D02*
X114166666Y-97383390D01*
X114166666Y-97383390D02*
X114119047Y-97431009D01*
X114119047Y-97431009D02*
X114023809Y-97478628D01*
X114023809Y-97478628D02*
X113642857Y-97478628D01*
X115166666Y-97954819D02*
X114595238Y-97954819D01*
X114880952Y-97954819D02*
X114880952Y-96954819D01*
X114880952Y-96954819D02*
X114785714Y-97097676D01*
X114785714Y-97097676D02*
X114690476Y-97192914D01*
X114690476Y-97192914D02*
X114595238Y-97240533D01*
X103583333Y-87704819D02*
X103250000Y-87228628D01*
X103011905Y-87704819D02*
X103011905Y-86704819D01*
X103011905Y-86704819D02*
X103392857Y-86704819D01*
X103392857Y-86704819D02*
X103488095Y-86752438D01*
X103488095Y-86752438D02*
X103535714Y-86800057D01*
X103535714Y-86800057D02*
X103583333Y-86895295D01*
X103583333Y-86895295D02*
X103583333Y-87038152D01*
X103583333Y-87038152D02*
X103535714Y-87133390D01*
X103535714Y-87133390D02*
X103488095Y-87181009D01*
X103488095Y-87181009D02*
X103392857Y-87228628D01*
X103392857Y-87228628D02*
X103011905Y-87228628D01*
X103964286Y-86800057D02*
X104011905Y-86752438D01*
X104011905Y-86752438D02*
X104107143Y-86704819D01*
X104107143Y-86704819D02*
X104345238Y-86704819D01*
X104345238Y-86704819D02*
X104440476Y-86752438D01*
X104440476Y-86752438D02*
X104488095Y-86800057D01*
X104488095Y-86800057D02*
X104535714Y-86895295D01*
X104535714Y-86895295D02*
X104535714Y-86990533D01*
X104535714Y-86990533D02*
X104488095Y-87133390D01*
X104488095Y-87133390D02*
X103916667Y-87704819D01*
X103916667Y-87704819D02*
X104535714Y-87704819D01*
X102050447Y-88963152D02*
X102050447Y-89629819D01*
X101812352Y-88582200D02*
X101574257Y-89296485D01*
X101574257Y-89296485D02*
X102193304Y-89296485D01*
X102574257Y-89534580D02*
X102621876Y-89582200D01*
X102621876Y-89582200D02*
X102574257Y-89629819D01*
X102574257Y-89629819D02*
X102526638Y-89582200D01*
X102526638Y-89582200D02*
X102574257Y-89534580D01*
X102574257Y-89534580D02*
X102574257Y-89629819D01*
X102955209Y-88629819D02*
X103621875Y-88629819D01*
X103621875Y-88629819D02*
X103193304Y-89629819D01*
X104764733Y-89629819D02*
X104764733Y-88629819D01*
X105336161Y-89629819D02*
X104907590Y-89058390D01*
X105336161Y-88629819D02*
X104764733Y-89201247D01*
X105717114Y-89629819D02*
X105955209Y-89629819D01*
X105955209Y-89629819D02*
X105955209Y-89439342D01*
X105955209Y-89439342D02*
X105859971Y-89391723D01*
X105859971Y-89391723D02*
X105764733Y-89296485D01*
X105764733Y-89296485D02*
X105717114Y-89153628D01*
X105717114Y-89153628D02*
X105717114Y-88915533D01*
X105717114Y-88915533D02*
X105764733Y-88772676D01*
X105764733Y-88772676D02*
X105859971Y-88677438D01*
X105859971Y-88677438D02*
X106002828Y-88629819D01*
X106002828Y-88629819D02*
X106193304Y-88629819D01*
X106193304Y-88629819D02*
X106336161Y-88677438D01*
X106336161Y-88677438D02*
X106431399Y-88772676D01*
X106431399Y-88772676D02*
X106479018Y-88915533D01*
X106479018Y-88915533D02*
X106479018Y-89153628D01*
X106479018Y-89153628D02*
X106431399Y-89296485D01*
X106431399Y-89296485D02*
X106336161Y-89391723D01*
X106336161Y-89391723D02*
X106240923Y-89439342D01*
X106240923Y-89439342D02*
X106240923Y-89629819D01*
X106240923Y-89629819D02*
X106479018Y-89629819D01*
X99916666Y-111204819D02*
X99916666Y-111919104D01*
X99916666Y-111919104D02*
X99869047Y-112061961D01*
X99869047Y-112061961D02*
X99773809Y-112157200D01*
X99773809Y-112157200D02*
X99630952Y-112204819D01*
X99630952Y-112204819D02*
X99535714Y-112204819D01*
X100345238Y-111300057D02*
X100392857Y-111252438D01*
X100392857Y-111252438D02*
X100488095Y-111204819D01*
X100488095Y-111204819D02*
X100726190Y-111204819D01*
X100726190Y-111204819D02*
X100821428Y-111252438D01*
X100821428Y-111252438D02*
X100869047Y-111300057D01*
X100869047Y-111300057D02*
X100916666Y-111395295D01*
X100916666Y-111395295D02*
X100916666Y-111490533D01*
X100916666Y-111490533D02*
X100869047Y-111633390D01*
X100869047Y-111633390D02*
X100297619Y-112204819D01*
X100297619Y-112204819D02*
X100916666Y-112204819D01*
X90845238Y-109407200D02*
X90988095Y-109454819D01*
X90988095Y-109454819D02*
X91226190Y-109454819D01*
X91226190Y-109454819D02*
X91321428Y-109407200D01*
X91321428Y-109407200D02*
X91369047Y-109359580D01*
X91369047Y-109359580D02*
X91416666Y-109264342D01*
X91416666Y-109264342D02*
X91416666Y-109169104D01*
X91416666Y-109169104D02*
X91369047Y-109073866D01*
X91369047Y-109073866D02*
X91321428Y-109026247D01*
X91321428Y-109026247D02*
X91226190Y-108978628D01*
X91226190Y-108978628D02*
X91035714Y-108931009D01*
X91035714Y-108931009D02*
X90940476Y-108883390D01*
X90940476Y-108883390D02*
X90892857Y-108835771D01*
X90892857Y-108835771D02*
X90845238Y-108740533D01*
X90845238Y-108740533D02*
X90845238Y-108645295D01*
X90845238Y-108645295D02*
X90892857Y-108550057D01*
X90892857Y-108550057D02*
X90940476Y-108502438D01*
X90940476Y-108502438D02*
X91035714Y-108454819D01*
X91035714Y-108454819D02*
X91273809Y-108454819D01*
X91273809Y-108454819D02*
X91416666Y-108502438D01*
X91845238Y-108931009D02*
X92178571Y-108931009D01*
X92321428Y-109454819D02*
X91845238Y-109454819D01*
X91845238Y-109454819D02*
X91845238Y-108454819D01*
X91845238Y-108454819D02*
X92321428Y-108454819D01*
X93321428Y-109454819D02*
X92988095Y-108978628D01*
X92750000Y-109454819D02*
X92750000Y-108454819D01*
X92750000Y-108454819D02*
X93130952Y-108454819D01*
X93130952Y-108454819D02*
X93226190Y-108502438D01*
X93226190Y-108502438D02*
X93273809Y-108550057D01*
X93273809Y-108550057D02*
X93321428Y-108645295D01*
X93321428Y-108645295D02*
X93321428Y-108788152D01*
X93321428Y-108788152D02*
X93273809Y-108883390D01*
X93273809Y-108883390D02*
X93226190Y-108931009D01*
X93226190Y-108931009D02*
X93130952Y-108978628D01*
X93130952Y-108978628D02*
X92750000Y-108978628D01*
X93607143Y-108454819D02*
X93940476Y-109454819D01*
X93940476Y-109454819D02*
X94273809Y-108454819D01*
X94797619Y-108454819D02*
X94988095Y-108454819D01*
X94988095Y-108454819D02*
X95083333Y-108502438D01*
X95083333Y-108502438D02*
X95178571Y-108597676D01*
X95178571Y-108597676D02*
X95226190Y-108788152D01*
X95226190Y-108788152D02*
X95226190Y-109121485D01*
X95226190Y-109121485D02*
X95178571Y-109311961D01*
X95178571Y-109311961D02*
X95083333Y-109407200D01*
X95083333Y-109407200D02*
X94988095Y-109454819D01*
X94988095Y-109454819D02*
X94797619Y-109454819D01*
X94797619Y-109454819D02*
X94702381Y-109407200D01*
X94702381Y-109407200D02*
X94607143Y-109311961D01*
X94607143Y-109311961D02*
X94559524Y-109121485D01*
X94559524Y-109121485D02*
X94559524Y-108788152D01*
X94559524Y-108788152D02*
X94607143Y-108597676D01*
X94607143Y-108597676D02*
X94702381Y-108502438D01*
X94702381Y-108502438D02*
X94797619Y-108454819D01*
X95416667Y-109550057D02*
X96178571Y-109550057D01*
X96940476Y-109454819D02*
X96369048Y-109454819D01*
X96654762Y-109454819D02*
X96654762Y-108454819D01*
X96654762Y-108454819D02*
X96559524Y-108597676D01*
X96559524Y-108597676D02*
X96464286Y-108692914D01*
X96464286Y-108692914D02*
X96369048Y-108740533D01*
X97130953Y-109550057D02*
X97892857Y-109550057D01*
X98654762Y-109454819D02*
X98083334Y-109454819D01*
X98369048Y-109454819D02*
X98369048Y-108454819D01*
X98369048Y-108454819D02*
X98273810Y-108597676D01*
X98273810Y-108597676D02*
X98178572Y-108692914D01*
X98178572Y-108692914D02*
X98083334Y-108740533D01*
X101166666Y-98204819D02*
X101166666Y-98919104D01*
X101166666Y-98919104D02*
X101119047Y-99061961D01*
X101119047Y-99061961D02*
X101023809Y-99157200D01*
X101023809Y-99157200D02*
X100880952Y-99204819D01*
X100880952Y-99204819D02*
X100785714Y-99204819D01*
X102071428Y-98538152D02*
X102071428Y-99204819D01*
X101833333Y-98157200D02*
X101595238Y-98871485D01*
X101595238Y-98871485D02*
X102214285Y-98871485D01*
X111416666Y-111204819D02*
X111416666Y-111919104D01*
X111416666Y-111919104D02*
X111369047Y-112061961D01*
X111369047Y-112061961D02*
X111273809Y-112157200D01*
X111273809Y-112157200D02*
X111130952Y-112204819D01*
X111130952Y-112204819D02*
X111035714Y-112204819D01*
X111797619Y-111204819D02*
X112416666Y-111204819D01*
X112416666Y-111204819D02*
X112083333Y-111585771D01*
X112083333Y-111585771D02*
X112226190Y-111585771D01*
X112226190Y-111585771D02*
X112321428Y-111633390D01*
X112321428Y-111633390D02*
X112369047Y-111681009D01*
X112369047Y-111681009D02*
X112416666Y-111776247D01*
X112416666Y-111776247D02*
X112416666Y-112014342D01*
X112416666Y-112014342D02*
X112369047Y-112109580D01*
X112369047Y-112109580D02*
X112321428Y-112157200D01*
X112321428Y-112157200D02*
X112226190Y-112204819D01*
X112226190Y-112204819D02*
X111940476Y-112204819D01*
X111940476Y-112204819D02*
X111845238Y-112157200D01*
X111845238Y-112157200D02*
X111797619Y-112109580D01*
X102095238Y-109407200D02*
X102238095Y-109454819D01*
X102238095Y-109454819D02*
X102476190Y-109454819D01*
X102476190Y-109454819D02*
X102571428Y-109407200D01*
X102571428Y-109407200D02*
X102619047Y-109359580D01*
X102619047Y-109359580D02*
X102666666Y-109264342D01*
X102666666Y-109264342D02*
X102666666Y-109169104D01*
X102666666Y-109169104D02*
X102619047Y-109073866D01*
X102619047Y-109073866D02*
X102571428Y-109026247D01*
X102571428Y-109026247D02*
X102476190Y-108978628D01*
X102476190Y-108978628D02*
X102285714Y-108931009D01*
X102285714Y-108931009D02*
X102190476Y-108883390D01*
X102190476Y-108883390D02*
X102142857Y-108835771D01*
X102142857Y-108835771D02*
X102095238Y-108740533D01*
X102095238Y-108740533D02*
X102095238Y-108645295D01*
X102095238Y-108645295D02*
X102142857Y-108550057D01*
X102142857Y-108550057D02*
X102190476Y-108502438D01*
X102190476Y-108502438D02*
X102285714Y-108454819D01*
X102285714Y-108454819D02*
X102523809Y-108454819D01*
X102523809Y-108454819D02*
X102666666Y-108502438D01*
X103095238Y-108931009D02*
X103428571Y-108931009D01*
X103571428Y-109454819D02*
X103095238Y-109454819D01*
X103095238Y-109454819D02*
X103095238Y-108454819D01*
X103095238Y-108454819D02*
X103571428Y-108454819D01*
X104571428Y-109454819D02*
X104238095Y-108978628D01*
X104000000Y-109454819D02*
X104000000Y-108454819D01*
X104000000Y-108454819D02*
X104380952Y-108454819D01*
X104380952Y-108454819D02*
X104476190Y-108502438D01*
X104476190Y-108502438D02*
X104523809Y-108550057D01*
X104523809Y-108550057D02*
X104571428Y-108645295D01*
X104571428Y-108645295D02*
X104571428Y-108788152D01*
X104571428Y-108788152D02*
X104523809Y-108883390D01*
X104523809Y-108883390D02*
X104476190Y-108931009D01*
X104476190Y-108931009D02*
X104380952Y-108978628D01*
X104380952Y-108978628D02*
X104000000Y-108978628D01*
X104857143Y-108454819D02*
X105190476Y-109454819D01*
X105190476Y-109454819D02*
X105523809Y-108454819D01*
X106047619Y-108454819D02*
X106238095Y-108454819D01*
X106238095Y-108454819D02*
X106333333Y-108502438D01*
X106333333Y-108502438D02*
X106428571Y-108597676D01*
X106428571Y-108597676D02*
X106476190Y-108788152D01*
X106476190Y-108788152D02*
X106476190Y-109121485D01*
X106476190Y-109121485D02*
X106428571Y-109311961D01*
X106428571Y-109311961D02*
X106333333Y-109407200D01*
X106333333Y-109407200D02*
X106238095Y-109454819D01*
X106238095Y-109454819D02*
X106047619Y-109454819D01*
X106047619Y-109454819D02*
X105952381Y-109407200D01*
X105952381Y-109407200D02*
X105857143Y-109311961D01*
X105857143Y-109311961D02*
X105809524Y-109121485D01*
X105809524Y-109121485D02*
X105809524Y-108788152D01*
X105809524Y-108788152D02*
X105857143Y-108597676D01*
X105857143Y-108597676D02*
X105952381Y-108502438D01*
X105952381Y-108502438D02*
X106047619Y-108454819D01*
X106666667Y-109550057D02*
X107428571Y-109550057D01*
X107619048Y-108550057D02*
X107666667Y-108502438D01*
X107666667Y-108502438D02*
X107761905Y-108454819D01*
X107761905Y-108454819D02*
X108000000Y-108454819D01*
X108000000Y-108454819D02*
X108095238Y-108502438D01*
X108095238Y-108502438D02*
X108142857Y-108550057D01*
X108142857Y-108550057D02*
X108190476Y-108645295D01*
X108190476Y-108645295D02*
X108190476Y-108740533D01*
X108190476Y-108740533D02*
X108142857Y-108883390D01*
X108142857Y-108883390D02*
X107571429Y-109454819D01*
X107571429Y-109454819D02*
X108190476Y-109454819D01*
X108380953Y-109550057D02*
X109142857Y-109550057D01*
X109904762Y-109454819D02*
X109333334Y-109454819D01*
X109619048Y-109454819D02*
X109619048Y-108454819D01*
X109619048Y-108454819D02*
X109523810Y-108597676D01*
X109523810Y-108597676D02*
X109428572Y-108692914D01*
X109428572Y-108692914D02*
X109333334Y-108740533D01*
X101416666Y-82954819D02*
X101416666Y-83669104D01*
X101416666Y-83669104D02*
X101369047Y-83811961D01*
X101369047Y-83811961D02*
X101273809Y-83907200D01*
X101273809Y-83907200D02*
X101130952Y-83954819D01*
X101130952Y-83954819D02*
X101035714Y-83954819D01*
X102416666Y-83954819D02*
X101845238Y-83954819D01*
X102130952Y-83954819D02*
X102130952Y-82954819D01*
X102130952Y-82954819D02*
X102035714Y-83097676D01*
X102035714Y-83097676D02*
X101940476Y-83192914D01*
X101940476Y-83192914D02*
X101845238Y-83240533D01*
D14*
X103214286Y-86202300D02*
X103166667Y-86226109D01*
X103166667Y-86226109D02*
X103071429Y-86226109D01*
X103071429Y-86226109D02*
X103023810Y-86202300D01*
X103023810Y-86202300D02*
X103000001Y-86154680D01*
X103000001Y-86154680D02*
X103000001Y-85964204D01*
X103000001Y-85964204D02*
X103023810Y-85916585D01*
X103023810Y-85916585D02*
X103071429Y-85892776D01*
X103071429Y-85892776D02*
X103166667Y-85892776D01*
X103166667Y-85892776D02*
X103214286Y-85916585D01*
X103214286Y-85916585D02*
X103238096Y-85964204D01*
X103238096Y-85964204D02*
X103238096Y-86011823D01*
X103238096Y-86011823D02*
X103000001Y-86059442D01*
X103428572Y-86202300D02*
X103476191Y-86226109D01*
X103476191Y-86226109D02*
X103571429Y-86226109D01*
X103571429Y-86226109D02*
X103619048Y-86202300D01*
X103619048Y-86202300D02*
X103642857Y-86154680D01*
X103642857Y-86154680D02*
X103642857Y-86130871D01*
X103642857Y-86130871D02*
X103619048Y-86083252D01*
X103619048Y-86083252D02*
X103571429Y-86059442D01*
X103571429Y-86059442D02*
X103500000Y-86059442D01*
X103500000Y-86059442D02*
X103452381Y-86035633D01*
X103452381Y-86035633D02*
X103428572Y-85988014D01*
X103428572Y-85988014D02*
X103428572Y-85964204D01*
X103428572Y-85964204D02*
X103452381Y-85916585D01*
X103452381Y-85916585D02*
X103500000Y-85892776D01*
X103500000Y-85892776D02*
X103571429Y-85892776D01*
X103571429Y-85892776D02*
X103619048Y-85916585D01*
X103857143Y-85892776D02*
X103857143Y-86392776D01*
X103857143Y-85916585D02*
X103904762Y-85892776D01*
X103904762Y-85892776D02*
X104000000Y-85892776D01*
X104000000Y-85892776D02*
X104047619Y-85916585D01*
X104047619Y-85916585D02*
X104071429Y-85940395D01*
X104071429Y-85940395D02*
X104095238Y-85988014D01*
X104095238Y-85988014D02*
X104095238Y-86130871D01*
X104095238Y-86130871D02*
X104071429Y-86178490D01*
X104071429Y-86178490D02*
X104047619Y-86202300D01*
X104047619Y-86202300D02*
X104000000Y-86226109D01*
X104000000Y-86226109D02*
X103904762Y-86226109D01*
X103904762Y-86226109D02*
X103857143Y-86202300D01*
X104261905Y-85726109D02*
X104571429Y-85726109D01*
X104571429Y-85726109D02*
X104404762Y-85916585D01*
X104404762Y-85916585D02*
X104476191Y-85916585D01*
X104476191Y-85916585D02*
X104523810Y-85940395D01*
X104523810Y-85940395D02*
X104547619Y-85964204D01*
X104547619Y-85964204D02*
X104571429Y-86011823D01*
X104571429Y-86011823D02*
X104571429Y-86130871D01*
X104571429Y-86130871D02*
X104547619Y-86178490D01*
X104547619Y-86178490D02*
X104523810Y-86202300D01*
X104523810Y-86202300D02*
X104476191Y-86226109D01*
X104476191Y-86226109D02*
X104333334Y-86226109D01*
X104333334Y-86226109D02*
X104285715Y-86202300D01*
X104285715Y-86202300D02*
X104261905Y-86178490D01*
X104761905Y-85773728D02*
X104785714Y-85749919D01*
X104785714Y-85749919D02*
X104833333Y-85726109D01*
X104833333Y-85726109D02*
X104952381Y-85726109D01*
X104952381Y-85726109D02*
X105000000Y-85749919D01*
X105000000Y-85749919D02*
X105023809Y-85773728D01*
X105023809Y-85773728D02*
X105047619Y-85821347D01*
X105047619Y-85821347D02*
X105047619Y-85868966D01*
X105047619Y-85868966D02*
X105023809Y-85940395D01*
X105023809Y-85940395D02*
X104738095Y-86226109D01*
X104738095Y-86226109D02*
X105047619Y-86226109D01*
X105142857Y-86273728D02*
X105523809Y-86273728D01*
X105857142Y-86226109D02*
X105857142Y-85726109D01*
X105857142Y-86202300D02*
X105809523Y-86226109D01*
X105809523Y-86226109D02*
X105714285Y-86226109D01*
X105714285Y-86226109D02*
X105666666Y-86202300D01*
X105666666Y-86202300D02*
X105642856Y-86178490D01*
X105642856Y-86178490D02*
X105619047Y-86130871D01*
X105619047Y-86130871D02*
X105619047Y-85988014D01*
X105619047Y-85988014D02*
X105642856Y-85940395D01*
X105642856Y-85940395D02*
X105666666Y-85916585D01*
X105666666Y-85916585D02*
X105714285Y-85892776D01*
X105714285Y-85892776D02*
X105809523Y-85892776D01*
X105809523Y-85892776D02*
X105857142Y-85916585D01*
X106309523Y-86226109D02*
X106309523Y-85964204D01*
X106309523Y-85964204D02*
X106285713Y-85916585D01*
X106285713Y-85916585D02*
X106238094Y-85892776D01*
X106238094Y-85892776D02*
X106142856Y-85892776D01*
X106142856Y-85892776D02*
X106095237Y-85916585D01*
X106309523Y-86202300D02*
X106261904Y-86226109D01*
X106261904Y-86226109D02*
X106142856Y-86226109D01*
X106142856Y-86226109D02*
X106095237Y-86202300D01*
X106095237Y-86202300D02*
X106071428Y-86154680D01*
X106071428Y-86154680D02*
X106071428Y-86107061D01*
X106071428Y-86107061D02*
X106095237Y-86059442D01*
X106095237Y-86059442D02*
X106142856Y-86035633D01*
X106142856Y-86035633D02*
X106261904Y-86035633D01*
X106261904Y-86035633D02*
X106309523Y-86011823D01*
X106476190Y-85892776D02*
X106666666Y-85892776D01*
X106547618Y-85726109D02*
X106547618Y-86154680D01*
X106547618Y-86154680D02*
X106571428Y-86202300D01*
X106571428Y-86202300D02*
X106619047Y-86226109D01*
X106619047Y-86226109D02*
X106666666Y-86226109D01*
X107047618Y-86226109D02*
X107047618Y-85964204D01*
X107047618Y-85964204D02*
X107023808Y-85916585D01*
X107023808Y-85916585D02*
X106976189Y-85892776D01*
X106976189Y-85892776D02*
X106880951Y-85892776D01*
X106880951Y-85892776D02*
X106833332Y-85916585D01*
X107047618Y-86202300D02*
X106999999Y-86226109D01*
X106999999Y-86226109D02*
X106880951Y-86226109D01*
X106880951Y-86226109D02*
X106833332Y-86202300D01*
X106833332Y-86202300D02*
X106809523Y-86154680D01*
X106809523Y-86154680D02*
X106809523Y-86107061D01*
X106809523Y-86107061D02*
X106833332Y-86059442D01*
X106833332Y-86059442D02*
X106880951Y-86035633D01*
X106880951Y-86035633D02*
X106999999Y-86035633D01*
X106999999Y-86035633D02*
X107047618Y-86011823D01*
X107666665Y-85892776D02*
X107666665Y-86392776D01*
X107666665Y-85916585D02*
X107714284Y-85892776D01*
X107714284Y-85892776D02*
X107809522Y-85892776D01*
X107809522Y-85892776D02*
X107857141Y-85916585D01*
X107857141Y-85916585D02*
X107880951Y-85940395D01*
X107880951Y-85940395D02*
X107904760Y-85988014D01*
X107904760Y-85988014D02*
X107904760Y-86130871D01*
X107904760Y-86130871D02*
X107880951Y-86178490D01*
X107880951Y-86178490D02*
X107857141Y-86202300D01*
X107857141Y-86202300D02*
X107809522Y-86226109D01*
X107809522Y-86226109D02*
X107714284Y-86226109D01*
X107714284Y-86226109D02*
X107666665Y-86202300D01*
X108119046Y-86226109D02*
X108119046Y-85892776D01*
X108119046Y-85726109D02*
X108095237Y-85749919D01*
X108095237Y-85749919D02*
X108119046Y-85773728D01*
X108119046Y-85773728D02*
X108142856Y-85749919D01*
X108142856Y-85749919D02*
X108119046Y-85726109D01*
X108119046Y-85726109D02*
X108119046Y-85773728D01*
X108357141Y-85892776D02*
X108357141Y-86226109D01*
X108357141Y-85940395D02*
X108380951Y-85916585D01*
X108380951Y-85916585D02*
X108428570Y-85892776D01*
X108428570Y-85892776D02*
X108499998Y-85892776D01*
X108499998Y-85892776D02*
X108547617Y-85916585D01*
X108547617Y-85916585D02*
X108571427Y-85964204D01*
X108571427Y-85964204D02*
X108571427Y-86226109D01*
X108785713Y-86202300D02*
X108833332Y-86226109D01*
X108833332Y-86226109D02*
X108928570Y-86226109D01*
X108928570Y-86226109D02*
X108976189Y-86202300D01*
X108976189Y-86202300D02*
X108999998Y-86154680D01*
X108999998Y-86154680D02*
X108999998Y-86130871D01*
X108999998Y-86130871D02*
X108976189Y-86083252D01*
X108976189Y-86083252D02*
X108928570Y-86059442D01*
X108928570Y-86059442D02*
X108857141Y-86059442D01*
X108857141Y-86059442D02*
X108809522Y-86035633D01*
X108809522Y-86035633D02*
X108785713Y-85988014D01*
X108785713Y-85988014D02*
X108785713Y-85964204D01*
X108785713Y-85964204D02*
X108809522Y-85916585D01*
X108809522Y-85916585D02*
X108857141Y-85892776D01*
X108857141Y-85892776D02*
X108928570Y-85892776D01*
X108928570Y-85892776D02*
X108976189Y-85916585D01*
D10*
X133916666Y-111204819D02*
X133916666Y-111919104D01*
X133916666Y-111919104D02*
X133869047Y-112061961D01*
X133869047Y-112061961D02*
X133773809Y-112157200D01*
X133773809Y-112157200D02*
X133630952Y-112204819D01*
X133630952Y-112204819D02*
X133535714Y-112204819D01*
X134297619Y-111204819D02*
X134964285Y-111204819D01*
X134964285Y-111204819D02*
X134535714Y-112204819D01*
X124345238Y-109407200D02*
X124488095Y-109454819D01*
X124488095Y-109454819D02*
X124726190Y-109454819D01*
X124726190Y-109454819D02*
X124821428Y-109407200D01*
X124821428Y-109407200D02*
X124869047Y-109359580D01*
X124869047Y-109359580D02*
X124916666Y-109264342D01*
X124916666Y-109264342D02*
X124916666Y-109169104D01*
X124916666Y-109169104D02*
X124869047Y-109073866D01*
X124869047Y-109073866D02*
X124821428Y-109026247D01*
X124821428Y-109026247D02*
X124726190Y-108978628D01*
X124726190Y-108978628D02*
X124535714Y-108931009D01*
X124535714Y-108931009D02*
X124440476Y-108883390D01*
X124440476Y-108883390D02*
X124392857Y-108835771D01*
X124392857Y-108835771D02*
X124345238Y-108740533D01*
X124345238Y-108740533D02*
X124345238Y-108645295D01*
X124345238Y-108645295D02*
X124392857Y-108550057D01*
X124392857Y-108550057D02*
X124440476Y-108502438D01*
X124440476Y-108502438D02*
X124535714Y-108454819D01*
X124535714Y-108454819D02*
X124773809Y-108454819D01*
X124773809Y-108454819D02*
X124916666Y-108502438D01*
X125345238Y-108931009D02*
X125678571Y-108931009D01*
X125821428Y-109454819D02*
X125345238Y-109454819D01*
X125345238Y-109454819D02*
X125345238Y-108454819D01*
X125345238Y-108454819D02*
X125821428Y-108454819D01*
X126821428Y-109454819D02*
X126488095Y-108978628D01*
X126250000Y-109454819D02*
X126250000Y-108454819D01*
X126250000Y-108454819D02*
X126630952Y-108454819D01*
X126630952Y-108454819D02*
X126726190Y-108502438D01*
X126726190Y-108502438D02*
X126773809Y-108550057D01*
X126773809Y-108550057D02*
X126821428Y-108645295D01*
X126821428Y-108645295D02*
X126821428Y-108788152D01*
X126821428Y-108788152D02*
X126773809Y-108883390D01*
X126773809Y-108883390D02*
X126726190Y-108931009D01*
X126726190Y-108931009D02*
X126630952Y-108978628D01*
X126630952Y-108978628D02*
X126250000Y-108978628D01*
X127107143Y-108454819D02*
X127440476Y-109454819D01*
X127440476Y-109454819D02*
X127773809Y-108454819D01*
X128297619Y-108454819D02*
X128488095Y-108454819D01*
X128488095Y-108454819D02*
X128583333Y-108502438D01*
X128583333Y-108502438D02*
X128678571Y-108597676D01*
X128678571Y-108597676D02*
X128726190Y-108788152D01*
X128726190Y-108788152D02*
X128726190Y-109121485D01*
X128726190Y-109121485D02*
X128678571Y-109311961D01*
X128678571Y-109311961D02*
X128583333Y-109407200D01*
X128583333Y-109407200D02*
X128488095Y-109454819D01*
X128488095Y-109454819D02*
X128297619Y-109454819D01*
X128297619Y-109454819D02*
X128202381Y-109407200D01*
X128202381Y-109407200D02*
X128107143Y-109311961D01*
X128107143Y-109311961D02*
X128059524Y-109121485D01*
X128059524Y-109121485D02*
X128059524Y-108788152D01*
X128059524Y-108788152D02*
X128107143Y-108597676D01*
X128107143Y-108597676D02*
X128202381Y-108502438D01*
X128202381Y-108502438D02*
X128297619Y-108454819D01*
X128916667Y-109550057D02*
X129678571Y-109550057D01*
X130345238Y-108788152D02*
X130345238Y-109454819D01*
X130107143Y-108407200D02*
X129869048Y-109121485D01*
X129869048Y-109121485D02*
X130488095Y-109121485D01*
X130630953Y-109550057D02*
X131392857Y-109550057D01*
X132154762Y-109454819D02*
X131583334Y-109454819D01*
X131869048Y-109454819D02*
X131869048Y-108454819D01*
X131869048Y-108454819D02*
X131773810Y-108597676D01*
X131773810Y-108597676D02*
X131678572Y-108692914D01*
X131678572Y-108692914D02*
X131583334Y-108740533D01*
X103583333Y-91704819D02*
X103250000Y-91228628D01*
X103011905Y-91704819D02*
X103011905Y-90704819D01*
X103011905Y-90704819D02*
X103392857Y-90704819D01*
X103392857Y-90704819D02*
X103488095Y-90752438D01*
X103488095Y-90752438D02*
X103535714Y-90800057D01*
X103535714Y-90800057D02*
X103583333Y-90895295D01*
X103583333Y-90895295D02*
X103583333Y-91038152D01*
X103583333Y-91038152D02*
X103535714Y-91133390D01*
X103535714Y-91133390D02*
X103488095Y-91181009D01*
X103488095Y-91181009D02*
X103392857Y-91228628D01*
X103392857Y-91228628D02*
X103011905Y-91228628D01*
X104535714Y-91704819D02*
X103964286Y-91704819D01*
X104250000Y-91704819D02*
X104250000Y-90704819D01*
X104250000Y-90704819D02*
X104154762Y-90847676D01*
X104154762Y-90847676D02*
X104059524Y-90942914D01*
X104059524Y-90942914D02*
X103964286Y-90990533D01*
X160782319Y-97333333D02*
X161496604Y-97333333D01*
X161496604Y-97333333D02*
X161639461Y-97380952D01*
X161639461Y-97380952D02*
X161734700Y-97476190D01*
X161734700Y-97476190D02*
X161782319Y-97619047D01*
X161782319Y-97619047D02*
X161782319Y-97714285D01*
X160782319Y-96380952D02*
X160782319Y-96857142D01*
X160782319Y-96857142D02*
X161258509Y-96904761D01*
X161258509Y-96904761D02*
X161210890Y-96857142D01*
X161210890Y-96857142D02*
X161163271Y-96761904D01*
X161163271Y-96761904D02*
X161163271Y-96523809D01*
X161163271Y-96523809D02*
X161210890Y-96428571D01*
X161210890Y-96428571D02*
X161258509Y-96380952D01*
X161258509Y-96380952D02*
X161353747Y-96333333D01*
X161353747Y-96333333D02*
X161591842Y-96333333D01*
X161591842Y-96333333D02*
X161687080Y-96380952D01*
X161687080Y-96380952D02*
X161734700Y-96428571D01*
X161734700Y-96428571D02*
X161782319Y-96523809D01*
X161782319Y-96523809D02*
X161782319Y-96761904D01*
X161782319Y-96761904D02*
X161734700Y-96857142D01*
X161734700Y-96857142D02*
X161687080Y-96904761D01*
X107919971Y-103359580D02*
X107872352Y-103407200D01*
X107872352Y-103407200D02*
X107729495Y-103454819D01*
X107729495Y-103454819D02*
X107634257Y-103454819D01*
X107634257Y-103454819D02*
X107491400Y-103407200D01*
X107491400Y-103407200D02*
X107396162Y-103311961D01*
X107396162Y-103311961D02*
X107348543Y-103216723D01*
X107348543Y-103216723D02*
X107300924Y-103026247D01*
X107300924Y-103026247D02*
X107300924Y-102883390D01*
X107300924Y-102883390D02*
X107348543Y-102692914D01*
X107348543Y-102692914D02*
X107396162Y-102597676D01*
X107396162Y-102597676D02*
X107491400Y-102502438D01*
X107491400Y-102502438D02*
X107634257Y-102454819D01*
X107634257Y-102454819D02*
X107729495Y-102454819D01*
X107729495Y-102454819D02*
X107872352Y-102502438D01*
X107872352Y-102502438D02*
X107919971Y-102550057D01*
X108872352Y-103454819D02*
X108300924Y-103454819D01*
X108586638Y-103454819D02*
X108586638Y-102454819D01*
X108586638Y-102454819D02*
X108491400Y-102597676D01*
X108491400Y-102597676D02*
X108396162Y-102692914D01*
X108396162Y-102692914D02*
X108300924Y-102740533D01*
D15*
X106130952Y-96199619D02*
X106226190Y-96199619D01*
X106226190Y-96199619D02*
X106321428Y-96247238D01*
X106321428Y-96247238D02*
X106369047Y-96294857D01*
X106369047Y-96294857D02*
X106416666Y-96390095D01*
X106416666Y-96390095D02*
X106464285Y-96580571D01*
X106464285Y-96580571D02*
X106464285Y-96818666D01*
X106464285Y-96818666D02*
X106416666Y-97009142D01*
X106416666Y-97009142D02*
X106369047Y-97104380D01*
X106369047Y-97104380D02*
X106321428Y-97152000D01*
X106321428Y-97152000D02*
X106226190Y-97199619D01*
X106226190Y-97199619D02*
X106130952Y-97199619D01*
X106130952Y-97199619D02*
X106035714Y-97152000D01*
X106035714Y-97152000D02*
X105988095Y-97104380D01*
X105988095Y-97104380D02*
X105940476Y-97009142D01*
X105940476Y-97009142D02*
X105892857Y-96818666D01*
X105892857Y-96818666D02*
X105892857Y-96580571D01*
X105892857Y-96580571D02*
X105940476Y-96390095D01*
X105940476Y-96390095D02*
X105988095Y-96294857D01*
X105988095Y-96294857D02*
X106035714Y-96247238D01*
X106035714Y-96247238D02*
X106130952Y-96199619D01*
X106892857Y-97104380D02*
X106940476Y-97152000D01*
X106940476Y-97152000D02*
X106892857Y-97199619D01*
X106892857Y-97199619D02*
X106845238Y-97152000D01*
X106845238Y-97152000D02*
X106892857Y-97104380D01*
X106892857Y-97104380D02*
X106892857Y-97199619D01*
X107797618Y-96532952D02*
X107797618Y-97199619D01*
X107559523Y-96152000D02*
X107321428Y-96866285D01*
X107321428Y-96866285D02*
X107940475Y-96866285D01*
X108226190Y-96199619D02*
X108892856Y-96199619D01*
X108892856Y-96199619D02*
X108464285Y-97199619D01*
X109702380Y-96532952D02*
X109702380Y-97199619D01*
X109273809Y-96532952D02*
X109273809Y-97056761D01*
X109273809Y-97056761D02*
X109321428Y-97152000D01*
X109321428Y-97152000D02*
X109416666Y-97199619D01*
X109416666Y-97199619D02*
X109559523Y-97199619D01*
X109559523Y-97199619D02*
X109654761Y-97152000D01*
X109654761Y-97152000D02*
X109702380Y-97104380D01*
X110511904Y-96675809D02*
X110178571Y-96675809D01*
X110178571Y-97199619D02*
X110178571Y-96199619D01*
X110178571Y-96199619D02*
X110654761Y-96199619D01*
D10*
X122690476Y-73954819D02*
X122690476Y-74669104D01*
X122690476Y-74669104D02*
X122642857Y-74811961D01*
X122642857Y-74811961D02*
X122547619Y-74907200D01*
X122547619Y-74907200D02*
X122404762Y-74954819D01*
X122404762Y-74954819D02*
X122309524Y-74954819D01*
X123690476Y-74954819D02*
X123119048Y-74954819D01*
X123404762Y-74954819D02*
X123404762Y-73954819D01*
X123404762Y-73954819D02*
X123309524Y-74097676D01*
X123309524Y-74097676D02*
X123214286Y-74192914D01*
X123214286Y-74192914D02*
X123119048Y-74240533D01*
X124023810Y-73954819D02*
X124642857Y-73954819D01*
X124642857Y-73954819D02*
X124309524Y-74335771D01*
X124309524Y-74335771D02*
X124452381Y-74335771D01*
X124452381Y-74335771D02*
X124547619Y-74383390D01*
X124547619Y-74383390D02*
X124595238Y-74431009D01*
X124595238Y-74431009D02*
X124642857Y-74526247D01*
X124642857Y-74526247D02*
X124642857Y-74764342D01*
X124642857Y-74764342D02*
X124595238Y-74859580D01*
X124595238Y-74859580D02*
X124547619Y-74907200D01*
X124547619Y-74907200D02*
X124452381Y-74954819D01*
X124452381Y-74954819D02*
X124166667Y-74954819D01*
X124166667Y-74954819D02*
X124071429Y-74907200D01*
X124071429Y-74907200D02*
X124023810Y-74859580D01*
X113845238Y-77657200D02*
X113988095Y-77704819D01*
X113988095Y-77704819D02*
X114226190Y-77704819D01*
X114226190Y-77704819D02*
X114321428Y-77657200D01*
X114321428Y-77657200D02*
X114369047Y-77609580D01*
X114369047Y-77609580D02*
X114416666Y-77514342D01*
X114416666Y-77514342D02*
X114416666Y-77419104D01*
X114416666Y-77419104D02*
X114369047Y-77323866D01*
X114369047Y-77323866D02*
X114321428Y-77276247D01*
X114321428Y-77276247D02*
X114226190Y-77228628D01*
X114226190Y-77228628D02*
X114035714Y-77181009D01*
X114035714Y-77181009D02*
X113940476Y-77133390D01*
X113940476Y-77133390D02*
X113892857Y-77085771D01*
X113892857Y-77085771D02*
X113845238Y-76990533D01*
X113845238Y-76990533D02*
X113845238Y-76895295D01*
X113845238Y-76895295D02*
X113892857Y-76800057D01*
X113892857Y-76800057D02*
X113940476Y-76752438D01*
X113940476Y-76752438D02*
X114035714Y-76704819D01*
X114035714Y-76704819D02*
X114273809Y-76704819D01*
X114273809Y-76704819D02*
X114416666Y-76752438D01*
X114845238Y-77181009D02*
X115178571Y-77181009D01*
X115321428Y-77704819D02*
X114845238Y-77704819D01*
X114845238Y-77704819D02*
X114845238Y-76704819D01*
X114845238Y-76704819D02*
X115321428Y-76704819D01*
X116321428Y-77704819D02*
X115988095Y-77228628D01*
X115750000Y-77704819D02*
X115750000Y-76704819D01*
X115750000Y-76704819D02*
X116130952Y-76704819D01*
X116130952Y-76704819D02*
X116226190Y-76752438D01*
X116226190Y-76752438D02*
X116273809Y-76800057D01*
X116273809Y-76800057D02*
X116321428Y-76895295D01*
X116321428Y-76895295D02*
X116321428Y-77038152D01*
X116321428Y-77038152D02*
X116273809Y-77133390D01*
X116273809Y-77133390D02*
X116226190Y-77181009D01*
X116226190Y-77181009D02*
X116130952Y-77228628D01*
X116130952Y-77228628D02*
X115750000Y-77228628D01*
X116607143Y-76704819D02*
X116940476Y-77704819D01*
X116940476Y-77704819D02*
X117273809Y-76704819D01*
X117797619Y-76704819D02*
X117988095Y-76704819D01*
X117988095Y-76704819D02*
X118083333Y-76752438D01*
X118083333Y-76752438D02*
X118178571Y-76847676D01*
X118178571Y-76847676D02*
X118226190Y-77038152D01*
X118226190Y-77038152D02*
X118226190Y-77371485D01*
X118226190Y-77371485D02*
X118178571Y-77561961D01*
X118178571Y-77561961D02*
X118083333Y-77657200D01*
X118083333Y-77657200D02*
X117988095Y-77704819D01*
X117988095Y-77704819D02*
X117797619Y-77704819D01*
X117797619Y-77704819D02*
X117702381Y-77657200D01*
X117702381Y-77657200D02*
X117607143Y-77561961D01*
X117607143Y-77561961D02*
X117559524Y-77371485D01*
X117559524Y-77371485D02*
X117559524Y-77038152D01*
X117559524Y-77038152D02*
X117607143Y-76847676D01*
X117607143Y-76847676D02*
X117702381Y-76752438D01*
X117702381Y-76752438D02*
X117797619Y-76704819D01*
X118416667Y-77800057D02*
X119178571Y-77800057D01*
X119321429Y-76704819D02*
X119940476Y-76704819D01*
X119940476Y-76704819D02*
X119607143Y-77085771D01*
X119607143Y-77085771D02*
X119750000Y-77085771D01*
X119750000Y-77085771D02*
X119845238Y-77133390D01*
X119845238Y-77133390D02*
X119892857Y-77181009D01*
X119892857Y-77181009D02*
X119940476Y-77276247D01*
X119940476Y-77276247D02*
X119940476Y-77514342D01*
X119940476Y-77514342D02*
X119892857Y-77609580D01*
X119892857Y-77609580D02*
X119845238Y-77657200D01*
X119845238Y-77657200D02*
X119750000Y-77704819D01*
X119750000Y-77704819D02*
X119464286Y-77704819D01*
X119464286Y-77704819D02*
X119369048Y-77657200D01*
X119369048Y-77657200D02*
X119321429Y-77609580D01*
X120130953Y-77800057D02*
X120892857Y-77800057D01*
X121083334Y-76800057D02*
X121130953Y-76752438D01*
X121130953Y-76752438D02*
X121226191Y-76704819D01*
X121226191Y-76704819D02*
X121464286Y-76704819D01*
X121464286Y-76704819D02*
X121559524Y-76752438D01*
X121559524Y-76752438D02*
X121607143Y-76800057D01*
X121607143Y-76800057D02*
X121654762Y-76895295D01*
X121654762Y-76895295D02*
X121654762Y-76990533D01*
X121654762Y-76990533D02*
X121607143Y-77133390D01*
X121607143Y-77133390D02*
X121035715Y-77704819D01*
X121035715Y-77704819D02*
X121654762Y-77704819D01*
X116212233Y-91704819D02*
X116212233Y-92514342D01*
X116212233Y-92514342D02*
X116259852Y-92609580D01*
X116259852Y-92609580D02*
X116307471Y-92657200D01*
X116307471Y-92657200D02*
X116402709Y-92704819D01*
X116402709Y-92704819D02*
X116593185Y-92704819D01*
X116593185Y-92704819D02*
X116688423Y-92657200D01*
X116688423Y-92657200D02*
X116736042Y-92609580D01*
X116736042Y-92609580D02*
X116783661Y-92514342D01*
X116783661Y-92514342D02*
X116783661Y-91704819D01*
X117783661Y-92704819D02*
X117212233Y-92704819D01*
X117497947Y-92704819D02*
X117497947Y-91704819D01*
X117497947Y-91704819D02*
X117402709Y-91847676D01*
X117402709Y-91847676D02*
X117307471Y-91942914D01*
X117307471Y-91942914D02*
X117212233Y-91990533D01*
X112807471Y-83954819D02*
X112807471Y-82954819D01*
X112807471Y-82954819D02*
X113188423Y-82954819D01*
X113188423Y-82954819D02*
X113283661Y-83002438D01*
X113283661Y-83002438D02*
X113331280Y-83050057D01*
X113331280Y-83050057D02*
X113378899Y-83145295D01*
X113378899Y-83145295D02*
X113378899Y-83288152D01*
X113378899Y-83288152D02*
X113331280Y-83383390D01*
X113331280Y-83383390D02*
X113283661Y-83431009D01*
X113283661Y-83431009D02*
X113188423Y-83478628D01*
X113188423Y-83478628D02*
X112807471Y-83478628D01*
X114378899Y-83859580D02*
X114331280Y-83907200D01*
X114331280Y-83907200D02*
X114188423Y-83954819D01*
X114188423Y-83954819D02*
X114093185Y-83954819D01*
X114093185Y-83954819D02*
X113950328Y-83907200D01*
X113950328Y-83907200D02*
X113855090Y-83811961D01*
X113855090Y-83811961D02*
X113807471Y-83716723D01*
X113807471Y-83716723D02*
X113759852Y-83526247D01*
X113759852Y-83526247D02*
X113759852Y-83383390D01*
X113759852Y-83383390D02*
X113807471Y-83192914D01*
X113807471Y-83192914D02*
X113855090Y-83097676D01*
X113855090Y-83097676D02*
X113950328Y-83002438D01*
X113950328Y-83002438D02*
X114093185Y-82954819D01*
X114093185Y-82954819D02*
X114188423Y-82954819D01*
X114188423Y-82954819D02*
X114331280Y-83002438D01*
X114331280Y-83002438D02*
X114378899Y-83050057D01*
X114759852Y-83669104D02*
X115236042Y-83669104D01*
X114664614Y-83954819D02*
X114997947Y-82954819D01*
X114997947Y-82954819D02*
X115331280Y-83954819D01*
X115712233Y-83954819D02*
X115902709Y-83954819D01*
X115902709Y-83954819D02*
X115997947Y-83907200D01*
X115997947Y-83907200D02*
X116045566Y-83859580D01*
X116045566Y-83859580D02*
X116140804Y-83716723D01*
X116140804Y-83716723D02*
X116188423Y-83526247D01*
X116188423Y-83526247D02*
X116188423Y-83145295D01*
X116188423Y-83145295D02*
X116140804Y-83050057D01*
X116140804Y-83050057D02*
X116093185Y-83002438D01*
X116093185Y-83002438D02*
X115997947Y-82954819D01*
X115997947Y-82954819D02*
X115807471Y-82954819D01*
X115807471Y-82954819D02*
X115712233Y-83002438D01*
X115712233Y-83002438D02*
X115664614Y-83050057D01*
X115664614Y-83050057D02*
X115616995Y-83145295D01*
X115616995Y-83145295D02*
X115616995Y-83383390D01*
X115616995Y-83383390D02*
X115664614Y-83478628D01*
X115664614Y-83478628D02*
X115712233Y-83526247D01*
X115712233Y-83526247D02*
X115807471Y-83573866D01*
X115807471Y-83573866D02*
X115997947Y-83573866D01*
X115997947Y-83573866D02*
X116093185Y-83526247D01*
X116093185Y-83526247D02*
X116140804Y-83478628D01*
X116140804Y-83478628D02*
X116188423Y-83383390D01*
X117045566Y-82954819D02*
X116855090Y-82954819D01*
X116855090Y-82954819D02*
X116759852Y-83002438D01*
X116759852Y-83002438D02*
X116712233Y-83050057D01*
X116712233Y-83050057D02*
X116616995Y-83192914D01*
X116616995Y-83192914D02*
X116569376Y-83383390D01*
X116569376Y-83383390D02*
X116569376Y-83764342D01*
X116569376Y-83764342D02*
X116616995Y-83859580D01*
X116616995Y-83859580D02*
X116664614Y-83907200D01*
X116664614Y-83907200D02*
X116759852Y-83954819D01*
X116759852Y-83954819D02*
X116950328Y-83954819D01*
X116950328Y-83954819D02*
X117045566Y-83907200D01*
X117045566Y-83907200D02*
X117093185Y-83859580D01*
X117093185Y-83859580D02*
X117140804Y-83764342D01*
X117140804Y-83764342D02*
X117140804Y-83526247D01*
X117140804Y-83526247D02*
X117093185Y-83431009D01*
X117093185Y-83431009D02*
X117045566Y-83383390D01*
X117045566Y-83383390D02*
X116950328Y-83335771D01*
X116950328Y-83335771D02*
X116759852Y-83335771D01*
X116759852Y-83335771D02*
X116664614Y-83383390D01*
X116664614Y-83383390D02*
X116616995Y-83431009D01*
X116616995Y-83431009D02*
X116569376Y-83526247D01*
X117712233Y-83383390D02*
X117616995Y-83335771D01*
X117616995Y-83335771D02*
X117569376Y-83288152D01*
X117569376Y-83288152D02*
X117521757Y-83192914D01*
X117521757Y-83192914D02*
X117521757Y-83145295D01*
X117521757Y-83145295D02*
X117569376Y-83050057D01*
X117569376Y-83050057D02*
X117616995Y-83002438D01*
X117616995Y-83002438D02*
X117712233Y-82954819D01*
X117712233Y-82954819D02*
X117902709Y-82954819D01*
X117902709Y-82954819D02*
X117997947Y-83002438D01*
X117997947Y-83002438D02*
X118045566Y-83050057D01*
X118045566Y-83050057D02*
X118093185Y-83145295D01*
X118093185Y-83145295D02*
X118093185Y-83192914D01*
X118093185Y-83192914D02*
X118045566Y-83288152D01*
X118045566Y-83288152D02*
X117997947Y-83335771D01*
X117997947Y-83335771D02*
X117902709Y-83383390D01*
X117902709Y-83383390D02*
X117712233Y-83383390D01*
X117712233Y-83383390D02*
X117616995Y-83431009D01*
X117616995Y-83431009D02*
X117569376Y-83478628D01*
X117569376Y-83478628D02*
X117521757Y-83573866D01*
X117521757Y-83573866D02*
X117521757Y-83764342D01*
X117521757Y-83764342D02*
X117569376Y-83859580D01*
X117569376Y-83859580D02*
X117616995Y-83907200D01*
X117616995Y-83907200D02*
X117712233Y-83954819D01*
X117712233Y-83954819D02*
X117902709Y-83954819D01*
X117902709Y-83954819D02*
X117997947Y-83907200D01*
X117997947Y-83907200D02*
X118045566Y-83859580D01*
X118045566Y-83859580D02*
X118093185Y-83764342D01*
X118093185Y-83764342D02*
X118093185Y-83573866D01*
X118093185Y-83573866D02*
X118045566Y-83478628D01*
X118045566Y-83478628D02*
X117997947Y-83431009D01*
X117997947Y-83431009D02*
X117902709Y-83383390D01*
X118997947Y-82954819D02*
X118521757Y-82954819D01*
X118521757Y-82954819D02*
X118474138Y-83431009D01*
X118474138Y-83431009D02*
X118521757Y-83383390D01*
X118521757Y-83383390D02*
X118616995Y-83335771D01*
X118616995Y-83335771D02*
X118855090Y-83335771D01*
X118855090Y-83335771D02*
X118950328Y-83383390D01*
X118950328Y-83383390D02*
X118997947Y-83431009D01*
X118997947Y-83431009D02*
X119045566Y-83526247D01*
X119045566Y-83526247D02*
X119045566Y-83764342D01*
X119045566Y-83764342D02*
X118997947Y-83859580D01*
X118997947Y-83859580D02*
X118950328Y-83907200D01*
X118950328Y-83907200D02*
X118855090Y-83954819D01*
X118855090Y-83954819D02*
X118616995Y-83954819D01*
X118616995Y-83954819D02*
X118521757Y-83907200D01*
X118521757Y-83907200D02*
X118474138Y-83859580D01*
X119474138Y-83954819D02*
X119474138Y-82954819D01*
X119474138Y-82954819D02*
X119855090Y-82954819D01*
X119855090Y-82954819D02*
X119950328Y-83002438D01*
X119950328Y-83002438D02*
X119997947Y-83050057D01*
X119997947Y-83050057D02*
X120045566Y-83145295D01*
X120045566Y-83145295D02*
X120045566Y-83288152D01*
X120045566Y-83288152D02*
X119997947Y-83383390D01*
X119997947Y-83383390D02*
X119950328Y-83431009D01*
X119950328Y-83431009D02*
X119855090Y-83478628D01*
X119855090Y-83478628D02*
X119474138Y-83478628D01*
X120378900Y-82954819D02*
X120616995Y-83954819D01*
X120616995Y-83954819D02*
X120807471Y-83240533D01*
X120807471Y-83240533D02*
X120997947Y-83954819D01*
X120997947Y-83954819D02*
X121236043Y-82954819D01*
X134190476Y-73954819D02*
X134190476Y-74669104D01*
X134190476Y-74669104D02*
X134142857Y-74811961D01*
X134142857Y-74811961D02*
X134047619Y-74907200D01*
X134047619Y-74907200D02*
X133904762Y-74954819D01*
X133904762Y-74954819D02*
X133809524Y-74954819D01*
X135190476Y-74954819D02*
X134619048Y-74954819D01*
X134904762Y-74954819D02*
X134904762Y-73954819D01*
X134904762Y-73954819D02*
X134809524Y-74097676D01*
X134809524Y-74097676D02*
X134714286Y-74192914D01*
X134714286Y-74192914D02*
X134619048Y-74240533D01*
X136047619Y-74288152D02*
X136047619Y-74954819D01*
X135809524Y-73907200D02*
X135571429Y-74621485D01*
X135571429Y-74621485D02*
X136190476Y-74621485D01*
X125345238Y-77657200D02*
X125488095Y-77704819D01*
X125488095Y-77704819D02*
X125726190Y-77704819D01*
X125726190Y-77704819D02*
X125821428Y-77657200D01*
X125821428Y-77657200D02*
X125869047Y-77609580D01*
X125869047Y-77609580D02*
X125916666Y-77514342D01*
X125916666Y-77514342D02*
X125916666Y-77419104D01*
X125916666Y-77419104D02*
X125869047Y-77323866D01*
X125869047Y-77323866D02*
X125821428Y-77276247D01*
X125821428Y-77276247D02*
X125726190Y-77228628D01*
X125726190Y-77228628D02*
X125535714Y-77181009D01*
X125535714Y-77181009D02*
X125440476Y-77133390D01*
X125440476Y-77133390D02*
X125392857Y-77085771D01*
X125392857Y-77085771D02*
X125345238Y-76990533D01*
X125345238Y-76990533D02*
X125345238Y-76895295D01*
X125345238Y-76895295D02*
X125392857Y-76800057D01*
X125392857Y-76800057D02*
X125440476Y-76752438D01*
X125440476Y-76752438D02*
X125535714Y-76704819D01*
X125535714Y-76704819D02*
X125773809Y-76704819D01*
X125773809Y-76704819D02*
X125916666Y-76752438D01*
X126345238Y-77181009D02*
X126678571Y-77181009D01*
X126821428Y-77704819D02*
X126345238Y-77704819D01*
X126345238Y-77704819D02*
X126345238Y-76704819D01*
X126345238Y-76704819D02*
X126821428Y-76704819D01*
X127821428Y-77704819D02*
X127488095Y-77228628D01*
X127250000Y-77704819D02*
X127250000Y-76704819D01*
X127250000Y-76704819D02*
X127630952Y-76704819D01*
X127630952Y-76704819D02*
X127726190Y-76752438D01*
X127726190Y-76752438D02*
X127773809Y-76800057D01*
X127773809Y-76800057D02*
X127821428Y-76895295D01*
X127821428Y-76895295D02*
X127821428Y-77038152D01*
X127821428Y-77038152D02*
X127773809Y-77133390D01*
X127773809Y-77133390D02*
X127726190Y-77181009D01*
X127726190Y-77181009D02*
X127630952Y-77228628D01*
X127630952Y-77228628D02*
X127250000Y-77228628D01*
X128107143Y-76704819D02*
X128440476Y-77704819D01*
X128440476Y-77704819D02*
X128773809Y-76704819D01*
X129297619Y-76704819D02*
X129488095Y-76704819D01*
X129488095Y-76704819D02*
X129583333Y-76752438D01*
X129583333Y-76752438D02*
X129678571Y-76847676D01*
X129678571Y-76847676D02*
X129726190Y-77038152D01*
X129726190Y-77038152D02*
X129726190Y-77371485D01*
X129726190Y-77371485D02*
X129678571Y-77561961D01*
X129678571Y-77561961D02*
X129583333Y-77657200D01*
X129583333Y-77657200D02*
X129488095Y-77704819D01*
X129488095Y-77704819D02*
X129297619Y-77704819D01*
X129297619Y-77704819D02*
X129202381Y-77657200D01*
X129202381Y-77657200D02*
X129107143Y-77561961D01*
X129107143Y-77561961D02*
X129059524Y-77371485D01*
X129059524Y-77371485D02*
X129059524Y-77038152D01*
X129059524Y-77038152D02*
X129107143Y-76847676D01*
X129107143Y-76847676D02*
X129202381Y-76752438D01*
X129202381Y-76752438D02*
X129297619Y-76704819D01*
X129916667Y-77800057D02*
X130678571Y-77800057D01*
X131345238Y-77038152D02*
X131345238Y-77704819D01*
X131107143Y-76657200D02*
X130869048Y-77371485D01*
X130869048Y-77371485D02*
X131488095Y-77371485D01*
X131630953Y-77800057D02*
X132392857Y-77800057D01*
X132583334Y-76800057D02*
X132630953Y-76752438D01*
X132630953Y-76752438D02*
X132726191Y-76704819D01*
X132726191Y-76704819D02*
X132964286Y-76704819D01*
X132964286Y-76704819D02*
X133059524Y-76752438D01*
X133059524Y-76752438D02*
X133107143Y-76800057D01*
X133107143Y-76800057D02*
X133154762Y-76895295D01*
X133154762Y-76895295D02*
X133154762Y-76990533D01*
X133154762Y-76990533D02*
X133107143Y-77133390D01*
X133107143Y-77133390D02*
X132535715Y-77704819D01*
X132535715Y-77704819D02*
X133154762Y-77704819D01*
X99190476Y-73954819D02*
X99190476Y-74669104D01*
X99190476Y-74669104D02*
X99142857Y-74811961D01*
X99142857Y-74811961D02*
X99047619Y-74907200D01*
X99047619Y-74907200D02*
X98904762Y-74954819D01*
X98904762Y-74954819D02*
X98809524Y-74954819D01*
X100190476Y-74954819D02*
X99619048Y-74954819D01*
X99904762Y-74954819D02*
X99904762Y-73954819D01*
X99904762Y-73954819D02*
X99809524Y-74097676D01*
X99809524Y-74097676D02*
X99714286Y-74192914D01*
X99714286Y-74192914D02*
X99619048Y-74240533D01*
X101142857Y-74954819D02*
X100571429Y-74954819D01*
X100857143Y-74954819D02*
X100857143Y-73954819D01*
X100857143Y-73954819D02*
X100761905Y-74097676D01*
X100761905Y-74097676D02*
X100666667Y-74192914D01*
X100666667Y-74192914D02*
X100571429Y-74240533D01*
X90345238Y-77407200D02*
X90488095Y-77454819D01*
X90488095Y-77454819D02*
X90726190Y-77454819D01*
X90726190Y-77454819D02*
X90821428Y-77407200D01*
X90821428Y-77407200D02*
X90869047Y-77359580D01*
X90869047Y-77359580D02*
X90916666Y-77264342D01*
X90916666Y-77264342D02*
X90916666Y-77169104D01*
X90916666Y-77169104D02*
X90869047Y-77073866D01*
X90869047Y-77073866D02*
X90821428Y-77026247D01*
X90821428Y-77026247D02*
X90726190Y-76978628D01*
X90726190Y-76978628D02*
X90535714Y-76931009D01*
X90535714Y-76931009D02*
X90440476Y-76883390D01*
X90440476Y-76883390D02*
X90392857Y-76835771D01*
X90392857Y-76835771D02*
X90345238Y-76740533D01*
X90345238Y-76740533D02*
X90345238Y-76645295D01*
X90345238Y-76645295D02*
X90392857Y-76550057D01*
X90392857Y-76550057D02*
X90440476Y-76502438D01*
X90440476Y-76502438D02*
X90535714Y-76454819D01*
X90535714Y-76454819D02*
X90773809Y-76454819D01*
X90773809Y-76454819D02*
X90916666Y-76502438D01*
X91345238Y-76931009D02*
X91678571Y-76931009D01*
X91821428Y-77454819D02*
X91345238Y-77454819D01*
X91345238Y-77454819D02*
X91345238Y-76454819D01*
X91345238Y-76454819D02*
X91821428Y-76454819D01*
X92821428Y-77454819D02*
X92488095Y-76978628D01*
X92250000Y-77454819D02*
X92250000Y-76454819D01*
X92250000Y-76454819D02*
X92630952Y-76454819D01*
X92630952Y-76454819D02*
X92726190Y-76502438D01*
X92726190Y-76502438D02*
X92773809Y-76550057D01*
X92773809Y-76550057D02*
X92821428Y-76645295D01*
X92821428Y-76645295D02*
X92821428Y-76788152D01*
X92821428Y-76788152D02*
X92773809Y-76883390D01*
X92773809Y-76883390D02*
X92726190Y-76931009D01*
X92726190Y-76931009D02*
X92630952Y-76978628D01*
X92630952Y-76978628D02*
X92250000Y-76978628D01*
X93107143Y-76454819D02*
X93440476Y-77454819D01*
X93440476Y-77454819D02*
X93773809Y-76454819D01*
X94297619Y-76454819D02*
X94488095Y-76454819D01*
X94488095Y-76454819D02*
X94583333Y-76502438D01*
X94583333Y-76502438D02*
X94678571Y-76597676D01*
X94678571Y-76597676D02*
X94726190Y-76788152D01*
X94726190Y-76788152D02*
X94726190Y-77121485D01*
X94726190Y-77121485D02*
X94678571Y-77311961D01*
X94678571Y-77311961D02*
X94583333Y-77407200D01*
X94583333Y-77407200D02*
X94488095Y-77454819D01*
X94488095Y-77454819D02*
X94297619Y-77454819D01*
X94297619Y-77454819D02*
X94202381Y-77407200D01*
X94202381Y-77407200D02*
X94107143Y-77311961D01*
X94107143Y-77311961D02*
X94059524Y-77121485D01*
X94059524Y-77121485D02*
X94059524Y-76788152D01*
X94059524Y-76788152D02*
X94107143Y-76597676D01*
X94107143Y-76597676D02*
X94202381Y-76502438D01*
X94202381Y-76502438D02*
X94297619Y-76454819D01*
X94916667Y-77550057D02*
X95678571Y-77550057D01*
X96440476Y-77454819D02*
X95869048Y-77454819D01*
X96154762Y-77454819D02*
X96154762Y-76454819D01*
X96154762Y-76454819D02*
X96059524Y-76597676D01*
X96059524Y-76597676D02*
X95964286Y-76692914D01*
X95964286Y-76692914D02*
X95869048Y-76740533D01*
X96630953Y-77550057D02*
X97392857Y-77550057D01*
X97583334Y-76550057D02*
X97630953Y-76502438D01*
X97630953Y-76502438D02*
X97726191Y-76454819D01*
X97726191Y-76454819D02*
X97964286Y-76454819D01*
X97964286Y-76454819D02*
X98059524Y-76502438D01*
X98059524Y-76502438D02*
X98107143Y-76550057D01*
X98107143Y-76550057D02*
X98154762Y-76645295D01*
X98154762Y-76645295D02*
X98154762Y-76740533D01*
X98154762Y-76740533D02*
X98107143Y-76883390D01*
X98107143Y-76883390D02*
X97535715Y-77454819D01*
X97535715Y-77454819D02*
X98154762Y-77454819D01*
X145690476Y-73954819D02*
X145690476Y-74669104D01*
X145690476Y-74669104D02*
X145642857Y-74811961D01*
X145642857Y-74811961D02*
X145547619Y-74907200D01*
X145547619Y-74907200D02*
X145404762Y-74954819D01*
X145404762Y-74954819D02*
X145309524Y-74954819D01*
X146690476Y-74954819D02*
X146119048Y-74954819D01*
X146404762Y-74954819D02*
X146404762Y-73954819D01*
X146404762Y-73954819D02*
X146309524Y-74097676D01*
X146309524Y-74097676D02*
X146214286Y-74192914D01*
X146214286Y-74192914D02*
X146119048Y-74240533D01*
X147595238Y-73954819D02*
X147119048Y-73954819D01*
X147119048Y-73954819D02*
X147071429Y-74431009D01*
X147071429Y-74431009D02*
X147119048Y-74383390D01*
X147119048Y-74383390D02*
X147214286Y-74335771D01*
X147214286Y-74335771D02*
X147452381Y-74335771D01*
X147452381Y-74335771D02*
X147547619Y-74383390D01*
X147547619Y-74383390D02*
X147595238Y-74431009D01*
X147595238Y-74431009D02*
X147642857Y-74526247D01*
X147642857Y-74526247D02*
X147642857Y-74764342D01*
X147642857Y-74764342D02*
X147595238Y-74859580D01*
X147595238Y-74859580D02*
X147547619Y-74907200D01*
X147547619Y-74907200D02*
X147452381Y-74954819D01*
X147452381Y-74954819D02*
X147214286Y-74954819D01*
X147214286Y-74954819D02*
X147119048Y-74907200D01*
X147119048Y-74907200D02*
X147071429Y-74859580D01*
X136845238Y-77657200D02*
X136988095Y-77704819D01*
X136988095Y-77704819D02*
X137226190Y-77704819D01*
X137226190Y-77704819D02*
X137321428Y-77657200D01*
X137321428Y-77657200D02*
X137369047Y-77609580D01*
X137369047Y-77609580D02*
X137416666Y-77514342D01*
X137416666Y-77514342D02*
X137416666Y-77419104D01*
X137416666Y-77419104D02*
X137369047Y-77323866D01*
X137369047Y-77323866D02*
X137321428Y-77276247D01*
X137321428Y-77276247D02*
X137226190Y-77228628D01*
X137226190Y-77228628D02*
X137035714Y-77181009D01*
X137035714Y-77181009D02*
X136940476Y-77133390D01*
X136940476Y-77133390D02*
X136892857Y-77085771D01*
X136892857Y-77085771D02*
X136845238Y-76990533D01*
X136845238Y-76990533D02*
X136845238Y-76895295D01*
X136845238Y-76895295D02*
X136892857Y-76800057D01*
X136892857Y-76800057D02*
X136940476Y-76752438D01*
X136940476Y-76752438D02*
X137035714Y-76704819D01*
X137035714Y-76704819D02*
X137273809Y-76704819D01*
X137273809Y-76704819D02*
X137416666Y-76752438D01*
X137845238Y-77181009D02*
X138178571Y-77181009D01*
X138321428Y-77704819D02*
X137845238Y-77704819D01*
X137845238Y-77704819D02*
X137845238Y-76704819D01*
X137845238Y-76704819D02*
X138321428Y-76704819D01*
X139321428Y-77704819D02*
X138988095Y-77228628D01*
X138750000Y-77704819D02*
X138750000Y-76704819D01*
X138750000Y-76704819D02*
X139130952Y-76704819D01*
X139130952Y-76704819D02*
X139226190Y-76752438D01*
X139226190Y-76752438D02*
X139273809Y-76800057D01*
X139273809Y-76800057D02*
X139321428Y-76895295D01*
X139321428Y-76895295D02*
X139321428Y-77038152D01*
X139321428Y-77038152D02*
X139273809Y-77133390D01*
X139273809Y-77133390D02*
X139226190Y-77181009D01*
X139226190Y-77181009D02*
X139130952Y-77228628D01*
X139130952Y-77228628D02*
X138750000Y-77228628D01*
X139607143Y-76704819D02*
X139940476Y-77704819D01*
X139940476Y-77704819D02*
X140273809Y-76704819D01*
X140797619Y-76704819D02*
X140988095Y-76704819D01*
X140988095Y-76704819D02*
X141083333Y-76752438D01*
X141083333Y-76752438D02*
X141178571Y-76847676D01*
X141178571Y-76847676D02*
X141226190Y-77038152D01*
X141226190Y-77038152D02*
X141226190Y-77371485D01*
X141226190Y-77371485D02*
X141178571Y-77561961D01*
X141178571Y-77561961D02*
X141083333Y-77657200D01*
X141083333Y-77657200D02*
X140988095Y-77704819D01*
X140988095Y-77704819D02*
X140797619Y-77704819D01*
X140797619Y-77704819D02*
X140702381Y-77657200D01*
X140702381Y-77657200D02*
X140607143Y-77561961D01*
X140607143Y-77561961D02*
X140559524Y-77371485D01*
X140559524Y-77371485D02*
X140559524Y-77038152D01*
X140559524Y-77038152D02*
X140607143Y-76847676D01*
X140607143Y-76847676D02*
X140702381Y-76752438D01*
X140702381Y-76752438D02*
X140797619Y-76704819D01*
X141416667Y-77800057D02*
X142178571Y-77800057D01*
X142892857Y-76704819D02*
X142416667Y-76704819D01*
X142416667Y-76704819D02*
X142369048Y-77181009D01*
X142369048Y-77181009D02*
X142416667Y-77133390D01*
X142416667Y-77133390D02*
X142511905Y-77085771D01*
X142511905Y-77085771D02*
X142750000Y-77085771D01*
X142750000Y-77085771D02*
X142845238Y-77133390D01*
X142845238Y-77133390D02*
X142892857Y-77181009D01*
X142892857Y-77181009D02*
X142940476Y-77276247D01*
X142940476Y-77276247D02*
X142940476Y-77514342D01*
X142940476Y-77514342D02*
X142892857Y-77609580D01*
X142892857Y-77609580D02*
X142845238Y-77657200D01*
X142845238Y-77657200D02*
X142750000Y-77704819D01*
X142750000Y-77704819D02*
X142511905Y-77704819D01*
X142511905Y-77704819D02*
X142416667Y-77657200D01*
X142416667Y-77657200D02*
X142369048Y-77609580D01*
X143130953Y-77800057D02*
X143892857Y-77800057D01*
X144083334Y-76800057D02*
X144130953Y-76752438D01*
X144130953Y-76752438D02*
X144226191Y-76704819D01*
X144226191Y-76704819D02*
X144464286Y-76704819D01*
X144464286Y-76704819D02*
X144559524Y-76752438D01*
X144559524Y-76752438D02*
X144607143Y-76800057D01*
X144607143Y-76800057D02*
X144654762Y-76895295D01*
X144654762Y-76895295D02*
X144654762Y-76990533D01*
X144654762Y-76990533D02*
X144607143Y-77133390D01*
X144607143Y-77133390D02*
X144035715Y-77704819D01*
X144035715Y-77704819D02*
X144654762Y-77704819D01*
X168690476Y-73954819D02*
X168690476Y-74669104D01*
X168690476Y-74669104D02*
X168642857Y-74811961D01*
X168642857Y-74811961D02*
X168547619Y-74907200D01*
X168547619Y-74907200D02*
X168404762Y-74954819D01*
X168404762Y-74954819D02*
X168309524Y-74954819D01*
X169690476Y-74954819D02*
X169119048Y-74954819D01*
X169404762Y-74954819D02*
X169404762Y-73954819D01*
X169404762Y-73954819D02*
X169309524Y-74097676D01*
X169309524Y-74097676D02*
X169214286Y-74192914D01*
X169214286Y-74192914D02*
X169119048Y-74240533D01*
X170023810Y-73954819D02*
X170690476Y-73954819D01*
X170690476Y-73954819D02*
X170261905Y-74954819D01*
X160095238Y-77907200D02*
X160238095Y-77954819D01*
X160238095Y-77954819D02*
X160476190Y-77954819D01*
X160476190Y-77954819D02*
X160571428Y-77907200D01*
X160571428Y-77907200D02*
X160619047Y-77859580D01*
X160619047Y-77859580D02*
X160666666Y-77764342D01*
X160666666Y-77764342D02*
X160666666Y-77669104D01*
X160666666Y-77669104D02*
X160619047Y-77573866D01*
X160619047Y-77573866D02*
X160571428Y-77526247D01*
X160571428Y-77526247D02*
X160476190Y-77478628D01*
X160476190Y-77478628D02*
X160285714Y-77431009D01*
X160285714Y-77431009D02*
X160190476Y-77383390D01*
X160190476Y-77383390D02*
X160142857Y-77335771D01*
X160142857Y-77335771D02*
X160095238Y-77240533D01*
X160095238Y-77240533D02*
X160095238Y-77145295D01*
X160095238Y-77145295D02*
X160142857Y-77050057D01*
X160142857Y-77050057D02*
X160190476Y-77002438D01*
X160190476Y-77002438D02*
X160285714Y-76954819D01*
X160285714Y-76954819D02*
X160523809Y-76954819D01*
X160523809Y-76954819D02*
X160666666Y-77002438D01*
X161095238Y-77431009D02*
X161428571Y-77431009D01*
X161571428Y-77954819D02*
X161095238Y-77954819D01*
X161095238Y-77954819D02*
X161095238Y-76954819D01*
X161095238Y-76954819D02*
X161571428Y-76954819D01*
X162571428Y-77954819D02*
X162238095Y-77478628D01*
X162000000Y-77954819D02*
X162000000Y-76954819D01*
X162000000Y-76954819D02*
X162380952Y-76954819D01*
X162380952Y-76954819D02*
X162476190Y-77002438D01*
X162476190Y-77002438D02*
X162523809Y-77050057D01*
X162523809Y-77050057D02*
X162571428Y-77145295D01*
X162571428Y-77145295D02*
X162571428Y-77288152D01*
X162571428Y-77288152D02*
X162523809Y-77383390D01*
X162523809Y-77383390D02*
X162476190Y-77431009D01*
X162476190Y-77431009D02*
X162380952Y-77478628D01*
X162380952Y-77478628D02*
X162000000Y-77478628D01*
X162857143Y-76954819D02*
X163190476Y-77954819D01*
X163190476Y-77954819D02*
X163523809Y-76954819D01*
X164047619Y-76954819D02*
X164238095Y-76954819D01*
X164238095Y-76954819D02*
X164333333Y-77002438D01*
X164333333Y-77002438D02*
X164428571Y-77097676D01*
X164428571Y-77097676D02*
X164476190Y-77288152D01*
X164476190Y-77288152D02*
X164476190Y-77621485D01*
X164476190Y-77621485D02*
X164428571Y-77811961D01*
X164428571Y-77811961D02*
X164333333Y-77907200D01*
X164333333Y-77907200D02*
X164238095Y-77954819D01*
X164238095Y-77954819D02*
X164047619Y-77954819D01*
X164047619Y-77954819D02*
X163952381Y-77907200D01*
X163952381Y-77907200D02*
X163857143Y-77811961D01*
X163857143Y-77811961D02*
X163809524Y-77621485D01*
X163809524Y-77621485D02*
X163809524Y-77288152D01*
X163809524Y-77288152D02*
X163857143Y-77097676D01*
X163857143Y-77097676D02*
X163952381Y-77002438D01*
X163952381Y-77002438D02*
X164047619Y-76954819D01*
X164666667Y-78050057D02*
X165428571Y-78050057D01*
X165571429Y-76954819D02*
X166238095Y-76954819D01*
X166238095Y-76954819D02*
X165809524Y-77954819D01*
X166380953Y-78050057D02*
X167142857Y-78050057D01*
X167333334Y-77050057D02*
X167380953Y-77002438D01*
X167380953Y-77002438D02*
X167476191Y-76954819D01*
X167476191Y-76954819D02*
X167714286Y-76954819D01*
X167714286Y-76954819D02*
X167809524Y-77002438D01*
X167809524Y-77002438D02*
X167857143Y-77050057D01*
X167857143Y-77050057D02*
X167904762Y-77145295D01*
X167904762Y-77145295D02*
X167904762Y-77240533D01*
X167904762Y-77240533D02*
X167857143Y-77383390D01*
X167857143Y-77383390D02*
X167285715Y-77954819D01*
X167285715Y-77954819D02*
X167904762Y-77954819D01*
X144916666Y-111204819D02*
X144916666Y-111919104D01*
X144916666Y-111919104D02*
X144869047Y-112061961D01*
X144869047Y-112061961D02*
X144773809Y-112157200D01*
X144773809Y-112157200D02*
X144630952Y-112204819D01*
X144630952Y-112204819D02*
X144535714Y-112204819D01*
X145535714Y-111633390D02*
X145440476Y-111585771D01*
X145440476Y-111585771D02*
X145392857Y-111538152D01*
X145392857Y-111538152D02*
X145345238Y-111442914D01*
X145345238Y-111442914D02*
X145345238Y-111395295D01*
X145345238Y-111395295D02*
X145392857Y-111300057D01*
X145392857Y-111300057D02*
X145440476Y-111252438D01*
X145440476Y-111252438D02*
X145535714Y-111204819D01*
X145535714Y-111204819D02*
X145726190Y-111204819D01*
X145726190Y-111204819D02*
X145821428Y-111252438D01*
X145821428Y-111252438D02*
X145869047Y-111300057D01*
X145869047Y-111300057D02*
X145916666Y-111395295D01*
X145916666Y-111395295D02*
X145916666Y-111442914D01*
X145916666Y-111442914D02*
X145869047Y-111538152D01*
X145869047Y-111538152D02*
X145821428Y-111585771D01*
X145821428Y-111585771D02*
X145726190Y-111633390D01*
X145726190Y-111633390D02*
X145535714Y-111633390D01*
X145535714Y-111633390D02*
X145440476Y-111681009D01*
X145440476Y-111681009D02*
X145392857Y-111728628D01*
X145392857Y-111728628D02*
X145345238Y-111823866D01*
X145345238Y-111823866D02*
X145345238Y-112014342D01*
X145345238Y-112014342D02*
X145392857Y-112109580D01*
X145392857Y-112109580D02*
X145440476Y-112157200D01*
X145440476Y-112157200D02*
X145535714Y-112204819D01*
X145535714Y-112204819D02*
X145726190Y-112204819D01*
X145726190Y-112204819D02*
X145821428Y-112157200D01*
X145821428Y-112157200D02*
X145869047Y-112109580D01*
X145869047Y-112109580D02*
X145916666Y-112014342D01*
X145916666Y-112014342D02*
X145916666Y-111823866D01*
X145916666Y-111823866D02*
X145869047Y-111728628D01*
X145869047Y-111728628D02*
X145821428Y-111681009D01*
X145821428Y-111681009D02*
X145726190Y-111633390D01*
X135595238Y-109407200D02*
X135738095Y-109454819D01*
X135738095Y-109454819D02*
X135976190Y-109454819D01*
X135976190Y-109454819D02*
X136071428Y-109407200D01*
X136071428Y-109407200D02*
X136119047Y-109359580D01*
X136119047Y-109359580D02*
X136166666Y-109264342D01*
X136166666Y-109264342D02*
X136166666Y-109169104D01*
X136166666Y-109169104D02*
X136119047Y-109073866D01*
X136119047Y-109073866D02*
X136071428Y-109026247D01*
X136071428Y-109026247D02*
X135976190Y-108978628D01*
X135976190Y-108978628D02*
X135785714Y-108931009D01*
X135785714Y-108931009D02*
X135690476Y-108883390D01*
X135690476Y-108883390D02*
X135642857Y-108835771D01*
X135642857Y-108835771D02*
X135595238Y-108740533D01*
X135595238Y-108740533D02*
X135595238Y-108645295D01*
X135595238Y-108645295D02*
X135642857Y-108550057D01*
X135642857Y-108550057D02*
X135690476Y-108502438D01*
X135690476Y-108502438D02*
X135785714Y-108454819D01*
X135785714Y-108454819D02*
X136023809Y-108454819D01*
X136023809Y-108454819D02*
X136166666Y-108502438D01*
X136595238Y-108931009D02*
X136928571Y-108931009D01*
X137071428Y-109454819D02*
X136595238Y-109454819D01*
X136595238Y-109454819D02*
X136595238Y-108454819D01*
X136595238Y-108454819D02*
X137071428Y-108454819D01*
X138071428Y-109454819D02*
X137738095Y-108978628D01*
X137500000Y-109454819D02*
X137500000Y-108454819D01*
X137500000Y-108454819D02*
X137880952Y-108454819D01*
X137880952Y-108454819D02*
X137976190Y-108502438D01*
X137976190Y-108502438D02*
X138023809Y-108550057D01*
X138023809Y-108550057D02*
X138071428Y-108645295D01*
X138071428Y-108645295D02*
X138071428Y-108788152D01*
X138071428Y-108788152D02*
X138023809Y-108883390D01*
X138023809Y-108883390D02*
X137976190Y-108931009D01*
X137976190Y-108931009D02*
X137880952Y-108978628D01*
X137880952Y-108978628D02*
X137500000Y-108978628D01*
X138357143Y-108454819D02*
X138690476Y-109454819D01*
X138690476Y-109454819D02*
X139023809Y-108454819D01*
X139547619Y-108454819D02*
X139738095Y-108454819D01*
X139738095Y-108454819D02*
X139833333Y-108502438D01*
X139833333Y-108502438D02*
X139928571Y-108597676D01*
X139928571Y-108597676D02*
X139976190Y-108788152D01*
X139976190Y-108788152D02*
X139976190Y-109121485D01*
X139976190Y-109121485D02*
X139928571Y-109311961D01*
X139928571Y-109311961D02*
X139833333Y-109407200D01*
X139833333Y-109407200D02*
X139738095Y-109454819D01*
X139738095Y-109454819D02*
X139547619Y-109454819D01*
X139547619Y-109454819D02*
X139452381Y-109407200D01*
X139452381Y-109407200D02*
X139357143Y-109311961D01*
X139357143Y-109311961D02*
X139309524Y-109121485D01*
X139309524Y-109121485D02*
X139309524Y-108788152D01*
X139309524Y-108788152D02*
X139357143Y-108597676D01*
X139357143Y-108597676D02*
X139452381Y-108502438D01*
X139452381Y-108502438D02*
X139547619Y-108454819D01*
X140166667Y-109550057D02*
X140928571Y-109550057D01*
X141642857Y-108454819D02*
X141166667Y-108454819D01*
X141166667Y-108454819D02*
X141119048Y-108931009D01*
X141119048Y-108931009D02*
X141166667Y-108883390D01*
X141166667Y-108883390D02*
X141261905Y-108835771D01*
X141261905Y-108835771D02*
X141500000Y-108835771D01*
X141500000Y-108835771D02*
X141595238Y-108883390D01*
X141595238Y-108883390D02*
X141642857Y-108931009D01*
X141642857Y-108931009D02*
X141690476Y-109026247D01*
X141690476Y-109026247D02*
X141690476Y-109264342D01*
X141690476Y-109264342D02*
X141642857Y-109359580D01*
X141642857Y-109359580D02*
X141595238Y-109407200D01*
X141595238Y-109407200D02*
X141500000Y-109454819D01*
X141500000Y-109454819D02*
X141261905Y-109454819D01*
X141261905Y-109454819D02*
X141166667Y-109407200D01*
X141166667Y-109407200D02*
X141119048Y-109359580D01*
X141880953Y-109550057D02*
X142642857Y-109550057D01*
X143404762Y-109454819D02*
X142833334Y-109454819D01*
X143119048Y-109454819D02*
X143119048Y-108454819D01*
X143119048Y-108454819D02*
X143023810Y-108597676D01*
X143023810Y-108597676D02*
X142928572Y-108692914D01*
X142928572Y-108692914D02*
X142833334Y-108740533D01*
%TO.C,J10*%
D16*
X158370000Y-110620000D02*
X158370000Y-113380000D01*
X163560000Y-110620000D02*
X158370000Y-110620000D01*
X163560000Y-110620000D02*
X163560000Y-113380000D01*
X163560000Y-113380000D02*
X158370000Y-113380000D01*
X164830000Y-110620000D02*
X166210000Y-110620000D01*
X166210000Y-110620000D02*
X166210000Y-112000000D01*
%TO.C,J16*%
X148290000Y-73120000D02*
X148290000Y-75880000D01*
X153480000Y-73120000D02*
X148290000Y-73120000D01*
X153480000Y-73120000D02*
X153480000Y-75880000D01*
X153480000Y-75880000D02*
X148290000Y-75880000D01*
X154750000Y-73120000D02*
X156130000Y-73120000D01*
X156130000Y-73120000D02*
X156130000Y-74500000D01*
%TO.C,J9*%
X147120000Y-110620000D02*
X147120000Y-113380000D01*
X152310000Y-110620000D02*
X147120000Y-110620000D01*
X152310000Y-110620000D02*
X152310000Y-113380000D01*
X152310000Y-113380000D02*
X147120000Y-113380000D01*
X153580000Y-110620000D02*
X154960000Y-110620000D01*
X154960000Y-110620000D02*
X154960000Y-112000000D01*
%TO.C,JP2*%
X119836638Y-98875000D02*
X119836638Y-99475000D01*
X120136638Y-99175000D02*
X119836638Y-98875000D01*
X120136638Y-99175000D02*
X119836638Y-99475000D01*
X120336638Y-98425000D02*
X122336638Y-98425000D01*
X120336638Y-102525000D02*
X120336638Y-98425000D01*
X122336638Y-98425000D02*
X122336638Y-102525000D01*
X122336638Y-102525000D02*
X120336638Y-102525000D01*
%TO.C,C2*%
X143060000Y-98504785D02*
X138340000Y-98504785D01*
X143060000Y-98544785D02*
X138355000Y-98544785D01*
X143060000Y-98584785D02*
X138370000Y-98584785D01*
X143060000Y-98624785D02*
X138386000Y-98624785D01*
X143060000Y-98664785D02*
X138402000Y-98664785D01*
X143060000Y-98704785D02*
X138418000Y-98704785D01*
X143060000Y-98744785D02*
X138435000Y-98744785D01*
X143060000Y-98784785D02*
X138452000Y-98784785D01*
X143060000Y-98824785D02*
X138469000Y-98824785D01*
X143060000Y-98864785D02*
X138487000Y-98864785D01*
X143060000Y-98904785D02*
X138505000Y-98904785D01*
X143060000Y-98944785D02*
X138523000Y-98944785D01*
X143060000Y-98984785D02*
X138541000Y-98984785D01*
X143060000Y-99024785D02*
X138560000Y-99024785D01*
X143060000Y-99064785D02*
X138579000Y-99064785D01*
X143060000Y-99104785D02*
X138599000Y-99104785D01*
X143060000Y-99144785D02*
X138619000Y-99144785D01*
X143060000Y-99184785D02*
X138639000Y-99184785D01*
X143060000Y-99224785D02*
X138659000Y-99224785D01*
X143060000Y-99264785D02*
X138680000Y-99264785D01*
X143060000Y-99304785D02*
X138701000Y-99304785D01*
X143060000Y-99344785D02*
X138723000Y-99344785D01*
X143060000Y-99384785D02*
X138745000Y-99384785D01*
X143060000Y-99424785D02*
X138767000Y-99424785D01*
X143060000Y-99464785D02*
X138790000Y-99464785D01*
X143060000Y-99504785D02*
X138813000Y-99504785D01*
X143060000Y-99544785D02*
X138836000Y-99544785D01*
X143060000Y-99584785D02*
X138860000Y-99584785D01*
X143060000Y-99624785D02*
X138884000Y-99624785D01*
X143060000Y-99664785D02*
X138908000Y-99664785D01*
X143060000Y-99704785D02*
X138933000Y-99704785D01*
X143060000Y-99744785D02*
X138959000Y-99744785D01*
X143060000Y-99784785D02*
X138984000Y-99784785D01*
X143060000Y-99824785D02*
X139011000Y-99824785D01*
X143060000Y-99864785D02*
X139037000Y-99864785D01*
X143060000Y-99904785D02*
X139064000Y-99904785D01*
X143060000Y-99944785D02*
X139091000Y-99944785D01*
X143060000Y-99984785D02*
X139119000Y-99984785D01*
X143060000Y-100024785D02*
X139148000Y-100024785D01*
X143060000Y-100064785D02*
X139176000Y-100064785D01*
X143060000Y-100104785D02*
X139205000Y-100104785D01*
X143060000Y-100144785D02*
X139235000Y-100144785D01*
X143060000Y-100184785D02*
X139265000Y-100184785D01*
X143060000Y-100224785D02*
X139296000Y-100224785D01*
X143060000Y-100264785D02*
X139327000Y-100264785D01*
X143060000Y-100304785D02*
X139358000Y-100304785D01*
X143060000Y-100344785D02*
X139390000Y-100344785D01*
X143060000Y-100384785D02*
X139423000Y-100384785D01*
X143060000Y-100424785D02*
X139456000Y-100424785D01*
X143060000Y-100464785D02*
X139490000Y-100464785D01*
X143060000Y-100504785D02*
X139524000Y-100504785D01*
X143060000Y-100544785D02*
X139559000Y-100544785D01*
X143060000Y-100584785D02*
X139594000Y-100584785D01*
X143060000Y-100624785D02*
X139630000Y-100624785D01*
X143060000Y-100664785D02*
X139666000Y-100664785D01*
X143060000Y-100704785D02*
X139703000Y-100704785D01*
X143060000Y-100744785D02*
X139741000Y-100744785D01*
X143060000Y-100784785D02*
X139779000Y-100784785D01*
X143060000Y-100824785D02*
X139818000Y-100824785D01*
X143060000Y-100864785D02*
X139858000Y-100864785D01*
X143060000Y-100904785D02*
X139898000Y-100904785D01*
X143060000Y-100944785D02*
X139939000Y-100944785D01*
X143060000Y-100984785D02*
X139981000Y-100984785D01*
X143060000Y-101024785D02*
X140023000Y-101024785D01*
X143060000Y-101064785D02*
X140067000Y-101064785D01*
X143060000Y-101104785D02*
X140111000Y-101104785D01*
X143060000Y-101144785D02*
X140156000Y-101144785D01*
X143060000Y-101184785D02*
X140201000Y-101184785D01*
X143060000Y-101224785D02*
X140248000Y-101224785D01*
X143060000Y-101264785D02*
X140295000Y-101264785D01*
X143060000Y-101304785D02*
X140344000Y-101304785D01*
X143060000Y-101344785D02*
X140393000Y-101344785D01*
X144974000Y-102784785D02*
X144026000Y-102784785D01*
X145349000Y-102744785D02*
X143651000Y-102744785D01*
X145606000Y-102704785D02*
X143394000Y-102704785D01*
X145814000Y-102664785D02*
X143186000Y-102664785D01*
X145993000Y-102624785D02*
X143007000Y-102624785D01*
X146152000Y-102584785D02*
X142848000Y-102584785D01*
X146297000Y-102544785D02*
X142703000Y-102544785D01*
X146430000Y-102504785D02*
X142570000Y-102504785D01*
X146554000Y-102464785D02*
X142446000Y-102464785D01*
X146671000Y-102424785D02*
X142329000Y-102424785D01*
X146780000Y-102384785D02*
X142220000Y-102384785D01*
X146885000Y-102344785D02*
X142115000Y-102344785D01*
X146984000Y-102304785D02*
X142016000Y-102304785D01*
X147079000Y-102264785D02*
X141921000Y-102264785D01*
X147170000Y-102224785D02*
X141830000Y-102224785D01*
X147257000Y-102184785D02*
X141743000Y-102184785D01*
X147341000Y-102144785D02*
X141659000Y-102144785D01*
X147423000Y-102104785D02*
X141577000Y-102104785D01*
X147501000Y-102064785D02*
X141499000Y-102064785D01*
X147577000Y-102024785D02*
X141423000Y-102024785D01*
X147651000Y-101984785D02*
X141349000Y-101984785D01*
X147723000Y-101944785D02*
X141277000Y-101944785D01*
X147793000Y-101904785D02*
X141207000Y-101904785D01*
X147860000Y-101864785D02*
X141140000Y-101864785D01*
X147926000Y-101824785D02*
X141074000Y-101824785D01*
X147990000Y-101784785D02*
X141010000Y-101784785D01*
X148053000Y-101744785D02*
X140947000Y-101744785D01*
X148114000Y-101704785D02*
X140886000Y-101704785D01*
X148174000Y-101664785D02*
X140826000Y-101664785D01*
X148215000Y-89100216D02*
X148215000Y-90400216D01*
X148232000Y-101624785D02*
X140768000Y-101624785D01*
X148289000Y-101584785D02*
X140711000Y-101584785D01*
X148345000Y-101544785D02*
X140655000Y-101544785D01*
X148400000Y-101504785D02*
X140600000Y-101504785D01*
X148453000Y-101464785D02*
X140547000Y-101464785D01*
X148506000Y-101424785D02*
X140494000Y-101424785D01*
X148557000Y-101384785D02*
X140443000Y-101384785D01*
X148607000Y-101344785D02*
X145940000Y-101344785D01*
X148656000Y-101304785D02*
X145940000Y-101304785D01*
X148705000Y-101264785D02*
X145940000Y-101264785D01*
X148752000Y-101224785D02*
X145940000Y-101224785D01*
X148799000Y-101184785D02*
X145940000Y-101184785D01*
X148844000Y-101144785D02*
X145940000Y-101144785D01*
X148865000Y-89750216D02*
X147565000Y-89750216D01*
X148889000Y-101104785D02*
X145940000Y-101104785D01*
X148933000Y-101064785D02*
X145940000Y-101064785D01*
X148977000Y-101024785D02*
X145940000Y-101024785D01*
X149019000Y-100984785D02*
X145940000Y-100984785D01*
X149061000Y-100944785D02*
X145940000Y-100944785D01*
X149102000Y-100904785D02*
X145940000Y-100904785D01*
X149142000Y-100864785D02*
X145940000Y-100864785D01*
X149182000Y-100824785D02*
X145940000Y-100824785D01*
X149221000Y-100784785D02*
X145940000Y-100784785D01*
X149259000Y-100744785D02*
X145940000Y-100744785D01*
X149297000Y-100704785D02*
X145940000Y-100704785D01*
X149334000Y-100664785D02*
X145940000Y-100664785D01*
X149370000Y-100624785D02*
X145940000Y-100624785D01*
X149406000Y-100584785D02*
X145940000Y-100584785D01*
X149441000Y-100544785D02*
X145940000Y-100544785D01*
X149476000Y-100504785D02*
X145940000Y-100504785D01*
X149510000Y-100464785D02*
X145940000Y-100464785D01*
X149544000Y-100424785D02*
X145940000Y-100424785D01*
X149577000Y-100384785D02*
X145940000Y-100384785D01*
X149610000Y-100344785D02*
X145940000Y-100344785D01*
X149642000Y-100304785D02*
X145940000Y-100304785D01*
X149673000Y-100264785D02*
X145940000Y-100264785D01*
X149704000Y-100224785D02*
X145940000Y-100224785D01*
X149735000Y-100184785D02*
X145940000Y-100184785D01*
X149765000Y-100144785D02*
X145940000Y-100144785D01*
X149795000Y-100104785D02*
X145940000Y-100104785D01*
X149824000Y-100064785D02*
X145940000Y-100064785D01*
X149852000Y-100024785D02*
X145940000Y-100024785D01*
X149881000Y-99984785D02*
X145940000Y-99984785D01*
X149909000Y-99944785D02*
X145940000Y-99944785D01*
X149936000Y-99904785D02*
X145940000Y-99904785D01*
X149963000Y-99864785D02*
X145940000Y-99864785D01*
X149989000Y-99824785D02*
X145940000Y-99824785D01*
X150016000Y-99784785D02*
X145940000Y-99784785D01*
X150041000Y-99744785D02*
X145940000Y-99744785D01*
X150067000Y-99704785D02*
X145940000Y-99704785D01*
X150092000Y-99664785D02*
X145940000Y-99664785D01*
X150116000Y-99624785D02*
X145940000Y-99624785D01*
X150140000Y-99584785D02*
X145940000Y-99584785D01*
X150164000Y-99544785D02*
X145940000Y-99544785D01*
X150187000Y-99504785D02*
X145940000Y-99504785D01*
X150210000Y-99464785D02*
X145940000Y-99464785D01*
X150233000Y-99424785D02*
X145940000Y-99424785D01*
X150255000Y-99384785D02*
X145940000Y-99384785D01*
X150277000Y-99344785D02*
X145940000Y-99344785D01*
X150299000Y-99304785D02*
X145940000Y-99304785D01*
X150320000Y-99264785D02*
X145940000Y-99264785D01*
X150341000Y-99224785D02*
X145940000Y-99224785D01*
X150361000Y-99184785D02*
X145940000Y-99184785D01*
X150381000Y-99144785D02*
X145940000Y-99144785D01*
X150401000Y-99104785D02*
X145940000Y-99104785D01*
X150421000Y-99064785D02*
X145940000Y-99064785D01*
X150440000Y-99024785D02*
X145940000Y-99024785D01*
X150459000Y-98984785D02*
X145940000Y-98984785D01*
X150477000Y-98944785D02*
X145940000Y-98944785D01*
X150495000Y-98904785D02*
X145940000Y-98904785D01*
X150513000Y-98864785D02*
X145940000Y-98864785D01*
X150531000Y-98824785D02*
X145940000Y-98824785D01*
X150548000Y-98784785D02*
X145940000Y-98784785D01*
X150565000Y-98744785D02*
X145940000Y-98744785D01*
X150582000Y-98704785D02*
X145940000Y-98704785D01*
X150598000Y-98664785D02*
X145940000Y-98664785D01*
X150614000Y-98624785D02*
X145940000Y-98624785D01*
X150630000Y-98584785D02*
X145940000Y-98584785D01*
X150645000Y-98544785D02*
X145940000Y-98544785D01*
X150660000Y-98504785D02*
X145940000Y-98504785D01*
X150675000Y-98464785D02*
X138325000Y-98464785D01*
X150690000Y-98424785D02*
X138310000Y-98424785D01*
X150704000Y-98384785D02*
X138296000Y-98384785D01*
X150718000Y-98344785D02*
X138282000Y-98344785D01*
X150731000Y-98304785D02*
X138269000Y-98304785D01*
X150745000Y-98264785D02*
X138255000Y-98264785D01*
X150758000Y-98224785D02*
X138242000Y-98224785D01*
X150771000Y-98184785D02*
X138229000Y-98184785D01*
X150783000Y-98144785D02*
X138217000Y-98144785D01*
X150795000Y-98104785D02*
X138205000Y-98104785D01*
X150807000Y-98064785D02*
X138193000Y-98064785D01*
X150819000Y-98024785D02*
X138181000Y-98024785D01*
X150831000Y-97984785D02*
X138169000Y-97984785D01*
X150842000Y-97944785D02*
X138158000Y-97944785D01*
X150853000Y-97904785D02*
X138147000Y-97904785D01*
X150863000Y-97864785D02*
X138137000Y-97864785D01*
X150874000Y-97824785D02*
X138126000Y-97824785D01*
X150884000Y-97784785D02*
X138116000Y-97784785D01*
X150894000Y-97744785D02*
X138106000Y-97744785D01*
X150903000Y-97704785D02*
X138097000Y-97704785D01*
X150912000Y-97664785D02*
X138088000Y-97664785D01*
X150921000Y-97624785D02*
X138079000Y-97624785D01*
X150930000Y-97584785D02*
X138070000Y-97584785D01*
X150939000Y-97544785D02*
X138061000Y-97544785D01*
X150947000Y-97504785D02*
X138053000Y-97504785D01*
X150955000Y-97464785D02*
X138045000Y-97464785D01*
X150963000Y-97424785D02*
X138037000Y-97424785D01*
X150970000Y-97384785D02*
X138030000Y-97384785D01*
X150978000Y-97344785D02*
X138022000Y-97344785D01*
X150985000Y-97304785D02*
X138015000Y-97304785D01*
X150991000Y-97264785D02*
X138009000Y-97264785D01*
X150998000Y-97224785D02*
X138002000Y-97224785D01*
X151004000Y-97184785D02*
X137996000Y-97184785D01*
X151010000Y-97144785D02*
X137990000Y-97144785D01*
X151016000Y-97104785D02*
X137984000Y-97104785D01*
X151021000Y-97064785D02*
X137979000Y-97064785D01*
X151026000Y-97024785D02*
X137974000Y-97024785D01*
X151031000Y-96984785D02*
X137969000Y-96984785D01*
X151036000Y-96944785D02*
X137964000Y-96944785D01*
X151041000Y-96904785D02*
X137959000Y-96904785D01*
X151045000Y-96864785D02*
X137955000Y-96864785D01*
X151049000Y-96824785D02*
X137951000Y-96824785D01*
X151053000Y-96784785D02*
X137947000Y-96784785D01*
X151056000Y-96744785D02*
X137944000Y-96744785D01*
X151060000Y-96704785D02*
X137940000Y-96704785D01*
X151063000Y-96664785D02*
X137937000Y-96664785D01*
X151065000Y-96624785D02*
X137935000Y-96624785D01*
X151068000Y-96584785D02*
X137932000Y-96584785D01*
X151070000Y-96544785D02*
X137930000Y-96544785D01*
X151072000Y-96504785D02*
X137928000Y-96504785D01*
X151074000Y-96464785D02*
X137926000Y-96464785D01*
X151076000Y-96424785D02*
X137924000Y-96424785D01*
X151077000Y-96384785D02*
X137923000Y-96384785D01*
X151078000Y-96344785D02*
X137922000Y-96344785D01*
X151079000Y-96304785D02*
X137921000Y-96304785D01*
X151080000Y-96184785D02*
X137920000Y-96184785D01*
X151080000Y-96224785D02*
X137920000Y-96224785D01*
X151080000Y-96264785D02*
X137920000Y-96264785D01*
X151120000Y-96184785D02*
G75*
G02*
X137880000Y-96184785I-6620000J0D01*
G01*
X137880000Y-96184785D02*
G75*
G02*
X151120000Y-96184785I6620000J0D01*
G01*
%TO.C,J6*%
X113660000Y-110370000D02*
X113660000Y-113130000D01*
X118850000Y-110370000D02*
X113660000Y-110370000D01*
X118850000Y-110370000D02*
X118850000Y-113130000D01*
X118850000Y-113130000D02*
X113660000Y-113130000D01*
X120120000Y-110370000D02*
X121500000Y-110370000D01*
X121500000Y-110370000D02*
X121500000Y-111750000D01*
%TO.C,J12*%
X102040000Y-72870000D02*
X102040000Y-75630000D01*
X107230000Y-72870000D02*
X102040000Y-72870000D01*
X107230000Y-72870000D02*
X107230000Y-75630000D01*
X107230000Y-75630000D02*
X102040000Y-75630000D01*
X108500000Y-72870000D02*
X109880000Y-72870000D01*
X109880000Y-72870000D02*
X109880000Y-74250000D01*
%TO.C,JP1*%
X112586638Y-98875000D02*
X112586638Y-99475000D01*
X112886638Y-99175000D02*
X112586638Y-98875000D01*
X112886638Y-99175000D02*
X112586638Y-99475000D01*
X113086638Y-98425000D02*
X115086638Y-98425000D01*
X113086638Y-102525000D02*
X113086638Y-98425000D01*
X115086638Y-98425000D02*
X115086638Y-102525000D01*
X115086638Y-102525000D02*
X113086638Y-102525000D01*
%TO.C,R2*%
X100756638Y-87805000D02*
X100756638Y-88135000D01*
X100756638Y-90545000D02*
X100756638Y-90215000D01*
X107296638Y-87805000D02*
X100756638Y-87805000D01*
X107296638Y-88135000D02*
X107296638Y-87805000D01*
X107296638Y-90215000D02*
X107296638Y-90545000D01*
X107296638Y-90545000D02*
X100756638Y-90545000D01*
%TO.C,J2*%
X91120000Y-110370000D02*
X91120000Y-113130000D01*
X96310000Y-110370000D02*
X91120000Y-110370000D01*
X96310000Y-110370000D02*
X96310000Y-113130000D01*
X96310000Y-113130000D02*
X91120000Y-113130000D01*
X97580000Y-110370000D02*
X98960000Y-110370000D01*
X98960000Y-110370000D02*
X98960000Y-111750000D01*
%TO.C,J4*%
X98931638Y-102555000D02*
X98931638Y-101175000D01*
X100311638Y-102555000D02*
X98931638Y-102555000D01*
X101581638Y-99795000D02*
X104231638Y-99795000D01*
X101581638Y-102555000D02*
X101581638Y-99795000D01*
X101581638Y-102555000D02*
X104231638Y-102555000D01*
X104231638Y-102555000D02*
X104231638Y-99795000D01*
%TO.C,J3*%
X102370000Y-110370000D02*
X102370000Y-113130000D01*
X107560000Y-110370000D02*
X102370000Y-110370000D01*
X107560000Y-110370000D02*
X107560000Y-113130000D01*
X107560000Y-113130000D02*
X102370000Y-113130000D01*
X108830000Y-110370000D02*
X110210000Y-110370000D01*
X110210000Y-110370000D02*
X110210000Y-111750000D01*
%TO.C,J1*%
X103416638Y-85055000D02*
X103416638Y-83675000D01*
X104796638Y-85055000D02*
X103416638Y-85055000D01*
X106066638Y-82295000D02*
X108716638Y-82295000D01*
X106066638Y-85055000D02*
X106066638Y-82295000D01*
X106066638Y-85055000D02*
X108716638Y-85055000D01*
X108716638Y-85055000D02*
X108716638Y-82295000D01*
%TO.C,J7*%
X124870000Y-110370000D02*
X124870000Y-113130000D01*
X130060000Y-110370000D02*
X124870000Y-110370000D01*
X130060000Y-110370000D02*
X130060000Y-113130000D01*
X130060000Y-113130000D02*
X124870000Y-113130000D01*
X131330000Y-110370000D02*
X132710000Y-110370000D01*
X132710000Y-110370000D02*
X132710000Y-111750000D01*
%TO.C,R1*%
X100756638Y-91805000D02*
X100756638Y-92135000D01*
X100756638Y-94545000D02*
X100756638Y-94215000D01*
X107296638Y-91805000D02*
X100756638Y-91805000D01*
X107296638Y-92135000D02*
X107296638Y-91805000D01*
X107296638Y-94215000D02*
X107296638Y-94545000D01*
X107296638Y-94545000D02*
X100756638Y-94545000D01*
%TO.C,J5*%
X154430000Y-91880000D02*
X164470000Y-91880000D01*
X154430000Y-102120000D02*
X154430000Y-91880000D01*
X157450000Y-102120000D02*
X157450000Y-91880000D01*
X162350000Y-102120000D02*
X162350000Y-91880000D01*
X163850000Y-102120000D02*
X163850000Y-91880000D01*
X164470000Y-91880000D02*
X164470000Y-99200000D01*
X164470000Y-99800000D02*
X164470000Y-102120000D01*
X164470000Y-102120000D02*
X154430000Y-102120000D01*
X165080000Y-99940000D02*
X164470000Y-99500000D01*
X165080000Y-99060000D01*
X165080000Y-99940000D01*
G36*
X165080000Y-99940000D02*
G01*
X164470000Y-99500000D01*
X165080000Y-99060000D01*
X165080000Y-99940000D01*
G37*
%TO.C,C1*%
X106006638Y-100045000D02*
X106006638Y-99305000D01*
X106046638Y-100212000D02*
X106046638Y-99138000D01*
X106086638Y-100338000D02*
X106086638Y-99012000D01*
X106126638Y-100443000D02*
X106126638Y-98907000D01*
X106166638Y-100534000D02*
X106166638Y-98816000D01*
X106206638Y-100615000D02*
X106206638Y-98735000D01*
X106246638Y-100688000D02*
X106246638Y-98662000D01*
X106286638Y-98835000D02*
X106286638Y-98595000D01*
X106286638Y-100755000D02*
X106286638Y-100515000D01*
X106326638Y-98835000D02*
X106326638Y-98533000D01*
X106326638Y-100817000D02*
X106326638Y-100515000D01*
X106366638Y-98835000D02*
X106366638Y-98476000D01*
X106366638Y-100874000D02*
X106366638Y-100515000D01*
X106406638Y-98835000D02*
X106406638Y-98422000D01*
X106406638Y-100928000D02*
X106406638Y-100515000D01*
X106446638Y-98835000D02*
X106446638Y-98372000D01*
X106446638Y-100978000D02*
X106446638Y-100515000D01*
X106486638Y-98835000D02*
X106486638Y-98324000D01*
X106486638Y-101026000D02*
X106486638Y-100515000D01*
X106526638Y-98835000D02*
X106526638Y-98279000D01*
X106526638Y-101071000D02*
X106526638Y-100515000D01*
X106566638Y-98835000D02*
X106566638Y-98237000D01*
X106566638Y-101113000D02*
X106566638Y-100515000D01*
X106606638Y-98835000D02*
X106606638Y-98197000D01*
X106606638Y-101153000D02*
X106606638Y-100515000D01*
X106646638Y-98835000D02*
X106646638Y-98159000D01*
X106646638Y-101191000D02*
X106646638Y-100515000D01*
X106686638Y-98835000D02*
X106686638Y-98123000D01*
X106686638Y-101227000D02*
X106686638Y-100515000D01*
X106726638Y-98835000D02*
X106726638Y-98089000D01*
X106726638Y-101261000D02*
X106726638Y-100515000D01*
X106766638Y-98835000D02*
X106766638Y-98056000D01*
X106766638Y-101294000D02*
X106766638Y-100515000D01*
X106806638Y-98835000D02*
X106806638Y-98025000D01*
X106806638Y-101325000D02*
X106806638Y-100515000D01*
X106846638Y-98835000D02*
X106846638Y-97995000D01*
X106846638Y-101355000D02*
X106846638Y-100515000D01*
X106886638Y-98835000D02*
X106886638Y-97967000D01*
X106886638Y-101383000D02*
X106886638Y-100515000D01*
X106926638Y-98835000D02*
X106926638Y-97941000D01*
X106926638Y-101409000D02*
X106926638Y-100515000D01*
X106966638Y-98835000D02*
X106966638Y-97915000D01*
X106966638Y-101435000D02*
X106966638Y-100515000D01*
X107006638Y-98835000D02*
X107006638Y-97891000D01*
X107006638Y-101459000D02*
X107006638Y-100515000D01*
X107046638Y-98835000D02*
X107046638Y-97868000D01*
X107046638Y-101482000D02*
X107046638Y-100515000D01*
X107086638Y-98835000D02*
X107086638Y-97846000D01*
X107086638Y-101504000D02*
X107086638Y-100515000D01*
X107126638Y-98835000D02*
X107126638Y-97825000D01*
X107126638Y-101525000D02*
X107126638Y-100515000D01*
X107166638Y-98835000D02*
X107166638Y-97805000D01*
X107166638Y-101545000D02*
X107166638Y-100515000D01*
X107206638Y-98835000D02*
X107206638Y-97786000D01*
X107206638Y-101564000D02*
X107206638Y-100515000D01*
X107246638Y-98835000D02*
X107246638Y-97769000D01*
X107246638Y-101581000D02*
X107246638Y-100515000D01*
X107286638Y-98835000D02*
X107286638Y-97752000D01*
X107286638Y-101598000D02*
X107286638Y-100515000D01*
X107326638Y-98835000D02*
X107326638Y-97736000D01*
X107326638Y-101614000D02*
X107326638Y-100515000D01*
X107366638Y-98835000D02*
X107366638Y-97721000D01*
X107366638Y-101629000D02*
X107366638Y-100515000D01*
X107406638Y-98835000D02*
X107406638Y-97707000D01*
X107406638Y-101643000D02*
X107406638Y-100515000D01*
X107446638Y-98835000D02*
X107446638Y-97694000D01*
X107446638Y-101656000D02*
X107446638Y-100515000D01*
X107486638Y-98835000D02*
X107486638Y-97682000D01*
X107486638Y-101668000D02*
X107486638Y-100515000D01*
X107526638Y-98835000D02*
X107526638Y-97670000D01*
X107526638Y-101680000D02*
X107526638Y-100515000D01*
X107566638Y-98835000D02*
X107566638Y-97660000D01*
X107566638Y-101690000D02*
X107566638Y-100515000D01*
X107606638Y-98835000D02*
X107606638Y-97650000D01*
X107606638Y-101700000D02*
X107606638Y-100515000D01*
X107646638Y-98835000D02*
X107646638Y-97641000D01*
X107646638Y-101709000D02*
X107646638Y-100515000D01*
X107686638Y-98835000D02*
X107686638Y-97633000D01*
X107686638Y-101717000D02*
X107686638Y-100515000D01*
X107726638Y-98835000D02*
X107726638Y-97626000D01*
X107726638Y-101724000D02*
X107726638Y-100515000D01*
X107766638Y-98835000D02*
X107766638Y-97619000D01*
X107766638Y-101731000D02*
X107766638Y-100515000D01*
X107806638Y-98835000D02*
X107806638Y-97614000D01*
X107806638Y-101736000D02*
X107806638Y-100515000D01*
X107846638Y-98835000D02*
X107846638Y-97609000D01*
X107846638Y-101741000D02*
X107846638Y-100515000D01*
X107886638Y-98835000D02*
X107886638Y-97604000D01*
X107886638Y-101746000D02*
X107886638Y-100515000D01*
X107926638Y-101749000D02*
X107926638Y-97601000D01*
X107966638Y-101752000D02*
X107966638Y-97598000D01*
X108006638Y-101753000D02*
X108006638Y-97597000D01*
X108046638Y-101755000D02*
X108046638Y-97595000D01*
X108086638Y-101755000D02*
X108086638Y-97595000D01*
X110156439Y-101070000D02*
X110156439Y-100670000D01*
X110356439Y-100870000D02*
X109956439Y-100870000D01*
X110206638Y-99675000D02*
G75*
G02*
X105966638Y-99675000I-2120000J0D01*
G01*
X105966638Y-99675000D02*
G75*
G02*
X110206638Y-99675000I2120000J0D01*
G01*
%TO.C,J13*%
X113790000Y-73120000D02*
X113790000Y-75880000D01*
X118980000Y-73120000D02*
X113790000Y-73120000D01*
X118980000Y-73120000D02*
X118980000Y-75880000D01*
X118980000Y-75880000D02*
X113790000Y-75880000D01*
X120250000Y-73120000D02*
X121630000Y-73120000D01*
X121630000Y-73120000D02*
X121630000Y-74500000D01*
%TO.C,U1*%
X114664138Y-84940000D02*
X119284138Y-84940000D01*
X114664138Y-85215000D02*
X114664138Y-84940000D01*
X114664138Y-94860000D02*
X114664138Y-94585000D01*
X119284138Y-84940000D02*
X119284138Y-85215000D01*
X119284138Y-94585000D02*
X119284138Y-94860000D01*
X119284138Y-94860000D02*
X114664138Y-94860000D01*
X120264138Y-95060000D02*
X119584138Y-95060000D01*
X119924138Y-94590000D01*
X120264138Y-95060000D01*
G36*
X120264138Y-95060000D02*
G01*
X119584138Y-95060000D01*
X119924138Y-94590000D01*
X120264138Y-95060000D01*
G37*
%TO.C,J14*%
X125290000Y-73120000D02*
X125290000Y-75880000D01*
X130480000Y-73120000D02*
X125290000Y-73120000D01*
X130480000Y-73120000D02*
X130480000Y-75880000D01*
X130480000Y-75880000D02*
X125290000Y-75880000D01*
X131750000Y-73120000D02*
X133130000Y-73120000D01*
X133130000Y-73120000D02*
X133130000Y-74500000D01*
%TO.C,J11*%
X90290000Y-72870000D02*
X90290000Y-75630000D01*
X95480000Y-72870000D02*
X90290000Y-72870000D01*
X95480000Y-72870000D02*
X95480000Y-75630000D01*
X95480000Y-75630000D02*
X90290000Y-75630000D01*
X96750000Y-72870000D02*
X98130000Y-72870000D01*
X98130000Y-72870000D02*
X98130000Y-74250000D01*
%TO.C,J15*%
X136790000Y-73120000D02*
X136790000Y-75880000D01*
X141980000Y-73120000D02*
X136790000Y-73120000D01*
X141980000Y-73120000D02*
X141980000Y-75880000D01*
X141980000Y-75880000D02*
X136790000Y-75880000D01*
X143250000Y-73120000D02*
X144630000Y-73120000D01*
X144630000Y-73120000D02*
X144630000Y-74500000D01*
%TO.C,J17*%
X159750000Y-73120000D02*
X159750000Y-75880000D01*
X164940000Y-73120000D02*
X159750000Y-73120000D01*
X164940000Y-73120000D02*
X164940000Y-75880000D01*
X164940000Y-75880000D02*
X159750000Y-75880000D01*
X166210000Y-73120000D02*
X167590000Y-73120000D01*
X167590000Y-73120000D02*
X167590000Y-74500000D01*
%TO.C,J8*%
X135870000Y-110370000D02*
X135870000Y-113130000D01*
X141060000Y-110370000D02*
X135870000Y-110370000D01*
X141060000Y-110370000D02*
X141060000Y-113130000D01*
X141060000Y-113130000D02*
X135870000Y-113130000D01*
X142330000Y-110370000D02*
X143710000Y-110370000D01*
X143710000Y-110370000D02*
X143710000Y-111750000D01*
%TD*%
M02*
