%TF.GenerationSoftware,KiCad,Pcbnew,10.0.1*%
%TF.CreationDate,2026-07-18T21:35:24+01:00*%
%TF.ProjectId,SERVO PCB,53455256-4f20-4504-9342-2e6b69636164,rev?*%
%TF.SameCoordinates,Original*%
%TF.FileFunction,Copper,L1,Top*%
%TF.FilePolarity,Positive*%
%FSLAX46Y46*%
G04 Gerber Fmt 4.6, Leading zero omitted, Abs format (unit mm)*
G04 Created by KiCad (PCBNEW 10.0.1) date 2026-07-18 21:35:24*
%MOMM*%
%LPD*%
G01*
G04 APERTURE LIST*
G04 Aperture macros list*
%AMRoundRect*
0 Rectangle with rounded corners*
0 $1 Rounding radius*
0 $2 $3 $4 $5 $6 $7 $8 $9 X,Y pos of 4 corners*
0 Add a 4 corners polygon primitive as box body*
4,1,4,$2,$3,$4,$5,$6,$7,$8,$9,$2,$3,0*
0 Add four circle primitives for the rounded corners*
1,1,$1+$1,$2,$3*
1,1,$1+$1,$4,$5*
1,1,$1+$1,$6,$7*
1,1,$1+$1,$8,$9*
0 Add four rect primitives between the rounded corners*
20,1,$1+$1,$2,$3,$4,$5,0*
20,1,$1+$1,$4,$5,$6,$7,0*
20,1,$1+$1,$6,$7,$8,$9,0*
20,1,$1+$1,$8,$9,$2,$3,0*%
G04 Aperture macros list end*
%TA.AperFunction,ComponentPad*%
%ADD10R,1.700000X1.700000*%
%TD*%
%TA.AperFunction,ComponentPad*%
%ADD11C,1.700000*%
%TD*%
%TA.AperFunction,SMDPad,CuDef*%
%ADD12R,1.500000X1.000000*%
%TD*%
%TA.AperFunction,ComponentPad*%
%ADD13RoundRect,0.250001X-0.949999X0.949999X-0.949999X-0.949999X0.949999X-0.949999X0.949999X0.949999X0*%
%TD*%
%TA.AperFunction,ComponentPad*%
%ADD14C,2.400000*%
%TD*%
%TA.AperFunction,ComponentPad*%
%ADD15C,1.600000*%
%TD*%
%TA.AperFunction,ComponentPad*%
%ADD16RoundRect,0.250000X1.050000X-1.050000X1.050000X1.050000X-1.050000X1.050000X-1.050000X-1.050000X0*%
%TD*%
%TA.AperFunction,ComponentPad*%
%ADD17C,2.600000*%
%TD*%
%TA.AperFunction,ComponentPad*%
%ADD18RoundRect,0.250000X0.350000X0.350000X-0.350000X0.350000X-0.350000X-0.350000X0.350000X-0.350000X0*%
%TD*%
%TA.AperFunction,ComponentPad*%
%ADD19C,1.200000*%
%TD*%
%TA.AperFunction,SMDPad,CuDef*%
%ADD20RoundRect,0.100000X0.637500X0.100000X-0.637500X0.100000X-0.637500X-0.100000X0.637500X-0.100000X0*%
%TD*%
%TA.AperFunction,ViaPad*%
%ADD21C,0.600000*%
%TD*%
%TA.AperFunction,Conductor*%
%ADD22C,0.200000*%
%TD*%
%TA.AperFunction,Conductor*%
%ADD23C,2.500000*%
%TD*%
%TA.AperFunction,Conductor*%
%ADD24C,0.500000*%
%TD*%
G04 APERTURE END LIST*
D10*
%TO.P,J10,1,Pin_1_1*%
%TO.N,Net-(J10-Pin_1)*%
X164830000Y-112000000D03*
D11*
%TO.P,J10,2,Pin_2_2*%
%TO.N,Net-(J10-Pin_2)*%
X162290000Y-112000000D03*
%TO.P,J10,3,Pin_3_3*%
%TO.N,Net-(J10-Pin_3)*%
X159750000Y-112000000D03*
%TD*%
D10*
%TO.P,J16,1,Pin_1_1*%
%TO.N,Net-(J16-Pin_1)*%
X154750000Y-74500000D03*
D11*
%TO.P,J16,2,Pin_2_2*%
%TO.N,Net-(J10-Pin_2)*%
X152210000Y-74500000D03*
%TO.P,J16,3,Pin_3_3*%
%TO.N,Net-(J10-Pin_3)*%
X149670000Y-74500000D03*
%TD*%
D10*
%TO.P,J9,1,Pin_1_1*%
%TO.N,Net-(J9-Pin_1)*%
X153580000Y-112000000D03*
D11*
%TO.P,J9,2,Pin_2_2*%
%TO.N,Net-(J10-Pin_2)*%
X151040000Y-112000000D03*
%TO.P,J9,3,Pin_3_3*%
%TO.N,Net-(J10-Pin_3)*%
X148500000Y-112000000D03*
%TD*%
D12*
%TO.P,JP2,1,A_1*%
%TO.N,Net-(J4-Pin_1)*%
X121336638Y-99175000D03*
%TO.P,JP2,2,C_2*%
%TO.N,Net-(JP2-C)*%
X121336638Y-100475000D03*
%TO.P,JP2,3,B_3*%
%TO.N,Net-(J4-Pin_2)*%
X121336638Y-101775000D03*
%TD*%
D13*
%TO.P,C2,1*%
%TO.N,Net-(J10-Pin_2)*%
X144500000Y-92434785D03*
D14*
%TO.P,C2,2*%
%TO.N,Net-(J10-Pin_3)*%
X144500000Y-99934785D03*
%TD*%
D10*
%TO.P,J6,1,Pin_1_1*%
%TO.N,Net-(J6-Pin_1)*%
X120120000Y-111750000D03*
D11*
%TO.P,J6,2,Pin_2_2*%
%TO.N,Net-(J10-Pin_2)*%
X117580000Y-111750000D03*
%TO.P,J6,3,Pin_3_3*%
%TO.N,Net-(J10-Pin_3)*%
X115040000Y-111750000D03*
%TD*%
D10*
%TO.P,J12,1,Pin_1_1*%
%TO.N,Net-(J12-Pin_1)*%
X108500000Y-74250000D03*
D11*
%TO.P,J12,2,Pin_2_2*%
%TO.N,Net-(J10-Pin_2)*%
X105960000Y-74250000D03*
%TO.P,J12,3,Pin_3_3*%
%TO.N,Net-(J10-Pin_3)*%
X103420000Y-74250000D03*
%TD*%
D12*
%TO.P,JP1,1,A_1*%
%TO.N,Net-(J4-Pin_1)*%
X114086638Y-99175000D03*
%TO.P,JP1,2,C_2*%
%TO.N,Net-(JP1-C)*%
X114086638Y-100475000D03*
%TO.P,JP1,3,B_3*%
%TO.N,Net-(J4-Pin_2)*%
X114086638Y-101775000D03*
%TD*%
D15*
%TO.P,R2,1*%
%TO.N,Net-(J1-Pin_2)*%
X107836638Y-89175000D03*
%TO.P,R2,2*%
%TO.N,Net-(J4-Pin_1)*%
X100216638Y-89175000D03*
%TD*%
D10*
%TO.P,J2,1,Pin_1_1*%
%TO.N,Net-(J2-Pin_1)*%
X97580000Y-111750000D03*
D11*
%TO.P,J2,2,Pin_2_2*%
%TO.N,Net-(J10-Pin_2)*%
X95040000Y-111750000D03*
%TO.P,J2,3,Pin_3_3*%
%TO.N,Net-(J10-Pin_3)*%
X92500000Y-111750000D03*
%TD*%
D10*
%TO.P,J4,1,Pin_1_1*%
%TO.N,Net-(J4-Pin_1)*%
X100311638Y-101175000D03*
D11*
%TO.P,J4,2,Pin_2_2*%
%TO.N,Net-(J4-Pin_2)*%
X102851638Y-101175000D03*
%TD*%
D10*
%TO.P,J3,1,Pin_1_1*%
%TO.N,Net-(J3-Pin_1)*%
X108830000Y-111750000D03*
D11*
%TO.P,J3,2,Pin_2_2*%
%TO.N,Net-(J10-Pin_2)*%
X106290000Y-111750000D03*
%TO.P,J3,3,Pin_3_3*%
%TO.N,Net-(J10-Pin_3)*%
X103750000Y-111750000D03*
%TD*%
D10*
%TO.P,J1,1,Pin_1_1*%
%TO.N,Net-(J1-Pin_1)*%
X104796638Y-83675000D03*
D11*
%TO.P,J1,2,Pin_2_2*%
%TO.N,Net-(J1-Pin_2)*%
X107336638Y-83675000D03*
%TD*%
D10*
%TO.P,J7,1,Pin_1_1*%
%TO.N,Net-(J7-Pin_1)*%
X131330000Y-111750000D03*
D11*
%TO.P,J7,2,Pin_2_2*%
%TO.N,Net-(J10-Pin_2)*%
X128790000Y-111750000D03*
%TO.P,J7,3,Pin_3_3*%
%TO.N,Net-(J10-Pin_3)*%
X126250000Y-111750000D03*
%TD*%
D15*
%TO.P,R1,1*%
%TO.N,Net-(J1-Pin_1)*%
X107836638Y-93175000D03*
%TO.P,R1,2*%
%TO.N,Net-(J4-Pin_1)*%
X100216638Y-93175000D03*
%TD*%
D16*
%TO.P,J5,1,Pin_1_1*%
%TO.N,Net-(J10-Pin_3)*%
X159750000Y-99500000D03*
D17*
%TO.P,J5,2,Pin_2_2*%
%TO.N,Net-(J10-Pin_2)*%
X159750000Y-94500000D03*
%TD*%
D18*
%TO.P,C1,1*%
%TO.N,Net-(J4-Pin_1)*%
X109086638Y-99675000D03*
D19*
%TO.P,C1,2*%
%TO.N,Net-(J4-Pin_2)*%
X107086638Y-99675000D03*
%TD*%
D10*
%TO.P,J13,1,Pin_1_1*%
%TO.N,Net-(J13-Pin_1)*%
X120250000Y-74500000D03*
D11*
%TO.P,J13,2,Pin_2_2*%
%TO.N,Net-(J10-Pin_2)*%
X117710000Y-74500000D03*
%TO.P,J13,3,Pin_3_3*%
%TO.N,Net-(J10-Pin_3)*%
X115170000Y-74500000D03*
%TD*%
D20*
%TO.P,U1,1,A0_1*%
%TO.N,Net-(JP1-C)*%
X119836638Y-94125000D03*
%TO.P,U1,2,A1_2*%
%TO.N,Net-(JP2-C)*%
X119836638Y-93475000D03*
%TO.P,U1,3,A2_3*%
%TO.N,unconnected-(U1-A2-Pad3)*%
X119836638Y-92825000D03*
%TO.P,U1,4,A3_4*%
%TO.N,unconnected-(U1-A3-Pad4)*%
X119836638Y-92175000D03*
%TO.P,U1,5,A4_5*%
%TO.N,unconnected-(U1-A4-Pad5)*%
X119836638Y-91525000D03*
%TO.P,U1,6,LED0_6*%
%TO.N,Net-(J2-Pin_1)*%
X119836638Y-90875000D03*
%TO.P,U1,7,LED1_7*%
%TO.N,Net-(J3-Pin_1)*%
X119836638Y-90225000D03*
%TO.P,U1,8,LED2_8*%
%TO.N,Net-(J6-Pin_1)*%
X119836638Y-89575000D03*
%TO.P,U1,9,LED3_9*%
%TO.N,Net-(J7-Pin_1)*%
X119836638Y-88925000D03*
%TO.P,U1,10,LED4_10*%
%TO.N,Net-(J8-Pin_1)*%
X119836638Y-88275000D03*
%TO.P,U1,11,LED5_11*%
%TO.N,Net-(J9-Pin_1)*%
X119836638Y-87625000D03*
%TO.P,U1,12,LED6_12*%
%TO.N,Net-(J10-Pin_1)*%
X119836638Y-86975000D03*
%TO.P,U1,13,LED7_13*%
%TO.N,unconnected-(U1-LED7-Pad13)*%
X119836638Y-86325000D03*
%TO.P,U1,14,VSS_14*%
%TO.N,Net-(J4-Pin_1)*%
X119836638Y-85675000D03*
%TO.P,U1,15,LED8_15*%
%TO.N,unconnected-(U1-LED8-Pad15)*%
X114111638Y-85675000D03*
%TO.P,U1,16,LED9_16*%
%TO.N,Net-(J11-Pin_1)*%
X114111638Y-86325000D03*
%TO.P,U1,17,LED10_17*%
%TO.N,Net-(J12-Pin_1)*%
X114111638Y-86975000D03*
%TO.P,U1,18,LED11_18*%
%TO.N,Net-(J13-Pin_1)*%
X114111638Y-87625000D03*
%TO.P,U1,19,LED12_19*%
%TO.N,Net-(J14-Pin_1)*%
X114111638Y-88275000D03*
%TO.P,U1,20,LED13_20*%
%TO.N,Net-(J15-Pin_1)*%
X114111638Y-88925000D03*
%TO.P,U1,21,LED14_21*%
%TO.N,Net-(J16-Pin_1)*%
X114111638Y-89575000D03*
%TO.P,U1,22,LED15_22*%
%TO.N,Net-(J17-Pin_1)*%
X114111638Y-90225000D03*
%TO.P,U1,23,~{OE}_23*%
%TO.N,Net-(J4-Pin_2)*%
X114111638Y-90875000D03*
%TO.P,U1,24,A5_24*%
%TO.N,unconnected-(U1-A5-Pad24)*%
X114111638Y-91525000D03*
%TO.P,U1,25,EXTCLK_25*%
%TO.N,unconnected-(U1-EXTCLK-Pad25)*%
X114111638Y-92175000D03*
%TO.P,U1,26,SCL_26*%
%TO.N,Net-(J1-Pin_2)*%
X114111638Y-92825000D03*
%TO.P,U1,27,SDA_27*%
%TO.N,Net-(J1-Pin_1)*%
X114111638Y-93475000D03*
%TO.P,U1,28,VDD_28*%
%TO.N,Net-(J4-Pin_2)*%
X114111638Y-94125000D03*
%TD*%
D10*
%TO.P,J14,1,Pin_1_1*%
%TO.N,Net-(J14-Pin_1)*%
X131750000Y-74500000D03*
D11*
%TO.P,J14,2,Pin_2_2*%
%TO.N,Net-(J10-Pin_2)*%
X129210000Y-74500000D03*
%TO.P,J14,3,Pin_3_3*%
%TO.N,Net-(J10-Pin_3)*%
X126670000Y-74500000D03*
%TD*%
D10*
%TO.P,J11,1,Pin_1_1*%
%TO.N,Net-(J11-Pin_1)*%
X96750000Y-74250000D03*
D11*
%TO.P,J11,2,Pin_2_2*%
%TO.N,Net-(J10-Pin_2)*%
X94210000Y-74250000D03*
%TO.P,J11,3,Pin_3_3*%
%TO.N,Net-(J10-Pin_3)*%
X91670000Y-74250000D03*
%TD*%
D10*
%TO.P,J15,1,Pin_1_1*%
%TO.N,Net-(J15-Pin_1)*%
X143250000Y-74500000D03*
D11*
%TO.P,J15,2,Pin_2_2*%
%TO.N,Net-(J10-Pin_2)*%
X140710000Y-74500000D03*
%TO.P,J15,3,Pin_3_3*%
%TO.N,Net-(J10-Pin_3)*%
X138170000Y-74500000D03*
%TD*%
D10*
%TO.P,J17,1,Pin_1_1*%
%TO.N,Net-(J17-Pin_1)*%
X166210000Y-74500000D03*
D11*
%TO.P,J17,2,Pin_2_2*%
%TO.N,Net-(J10-Pin_2)*%
X163670000Y-74500000D03*
%TO.P,J17,3,Pin_3_3*%
%TO.N,Net-(J10-Pin_3)*%
X161130000Y-74500000D03*
%TD*%
D10*
%TO.P,J8,1,Pin_1_1*%
%TO.N,Net-(J8-Pin_1)*%
X142330000Y-111750000D03*
D11*
%TO.P,J8,2,Pin_2_2*%
%TO.N,Net-(J10-Pin_2)*%
X139790000Y-111750000D03*
%TO.P,J8,3,Pin_3_3*%
%TO.N,Net-(J10-Pin_3)*%
X137250000Y-111750000D03*
%TD*%
D21*
%TO.N,Net-(J10-Pin_1)*%
X121500000Y-87000000D03*
%TO.N,Net-(J16-Pin_1)*%
X117677083Y-89125859D03*
%TO.N,Net-(J9-Pin_1)*%
X123008263Y-87636374D03*
%TO.N,Net-(J4-Pin_2)*%
X112573833Y-91176164D03*
X114149138Y-94750000D03*
%TO.N,Net-(J6-Pin_1)*%
X122441481Y-89842951D03*
%TO.N,Net-(J12-Pin_1)*%
X115250000Y-87000000D03*
%TO.N,Net-(JP1-C)*%
X119750000Y-95500000D03*
X119750000Y-99775000D03*
%TO.N,Net-(J2-Pin_1)*%
X121500000Y-91000000D03*
%TO.N,Net-(J3-Pin_1)*%
X122500000Y-90750000D03*
%TO.N,Net-(J7-Pin_1)*%
X122500000Y-89000000D03*
%TO.N,Net-(J13-Pin_1)*%
X116000000Y-87675000D03*
%TO.N,Net-(J8-Pin_1)*%
X123065687Y-88434313D03*
%TO.N,Net-(J11-Pin_1)*%
X112500000Y-86500000D03*
%TO.N,Net-(J14-Pin_1)*%
X116980448Y-87980448D03*
%TO.N,Net-(J15-Pin_1)*%
X116909708Y-88899718D03*
%TO.N,Net-(J17-Pin_1)*%
X117899138Y-90250000D03*
%TD*%
%TO.N,Net-(J10-Pin_1)*%
D22*
X119861638Y-87000000D02*
X119836638Y-86975000D01*
X121500000Y-87000000D02*
X119861638Y-87000000D01*
%TO.N,Net-(J10-Pin_2)*%
D23*
X159750000Y-94500000D02*
X146116409Y-94500000D01*
D22*
X159077500Y-94000000D02*
X159077500Y-94100862D01*
D23*
X94210000Y-77460000D02*
X94250000Y-77500000D01*
X106250000Y-109000000D02*
X106250000Y-110250000D01*
X117870000Y-77370000D02*
X117870000Y-74660000D01*
X128790000Y-109040000D02*
X128790000Y-111750000D01*
X151040000Y-109790000D02*
X151040000Y-112000000D01*
X129250000Y-77500000D02*
X129210000Y-77460000D01*
X128750000Y-109000000D02*
X128790000Y-109040000D01*
X150250000Y-109000000D02*
X161750000Y-109000000D01*
X94210000Y-74250000D02*
X94210000Y-77460000D01*
X146116409Y-94051194D02*
X144500000Y-92434785D01*
X129250000Y-77500000D02*
X140750000Y-77500000D01*
X129210000Y-77460000D02*
X129210000Y-74500000D01*
X139750000Y-109000000D02*
X135750000Y-109000000D01*
X94250000Y-74290000D02*
X94210000Y-74250000D01*
X161872081Y-92377919D02*
X161872081Y-77500000D01*
X163670000Y-75702081D02*
X163670000Y-74500000D01*
X117500000Y-111670000D02*
X117580000Y-111750000D01*
X106250000Y-109000000D02*
X95250000Y-109000000D01*
X105750000Y-77500000D02*
X106120000Y-77130000D01*
X106290000Y-110290000D02*
X106290000Y-111750000D01*
X117500000Y-109000000D02*
X117500000Y-111670000D01*
X140750000Y-77500000D02*
X140750000Y-76000000D01*
X139790000Y-109040000D02*
X139790000Y-111750000D01*
X140750000Y-76000000D02*
X140710000Y-75960000D01*
X94250000Y-77500000D02*
X105750000Y-77500000D01*
X135750000Y-104866409D02*
X135750000Y-109000000D01*
X162290000Y-109540000D02*
X162290000Y-112000000D01*
X150250000Y-109000000D02*
X151040000Y-109790000D01*
X159750000Y-94500000D02*
X161872081Y-92377919D01*
X152500000Y-77500000D02*
X161872081Y-77500000D01*
X118000000Y-77500000D02*
X117870000Y-77370000D01*
X95040000Y-110210000D02*
X95040000Y-111750000D01*
X118000000Y-77500000D02*
X129250000Y-77500000D01*
X95250000Y-110000000D02*
X95040000Y-110210000D01*
X105750000Y-77500000D02*
X118000000Y-77500000D01*
X128750000Y-109000000D02*
X117500000Y-109000000D01*
X135750000Y-109000000D02*
X133500000Y-109000000D01*
X117500000Y-109000000D02*
X106250000Y-109000000D01*
X152210000Y-77210000D02*
X152210000Y-74500000D01*
X152500000Y-77500000D02*
X152210000Y-77210000D01*
X146116409Y-94500000D02*
X146116409Y-94051194D01*
D22*
X144500000Y-92500000D02*
X144500000Y-92434785D01*
D23*
X106120000Y-77130000D02*
X106120000Y-74250000D01*
X140710000Y-75960000D02*
X140710000Y-74500000D01*
X161750000Y-109000000D02*
X162290000Y-109540000D01*
X139750000Y-109000000D02*
X139790000Y-109040000D01*
X150250000Y-109000000D02*
X139750000Y-109000000D01*
X161872081Y-77500000D02*
X163670000Y-75702081D01*
X95250000Y-109000000D02*
X95250000Y-110000000D01*
X133500000Y-109000000D02*
X128750000Y-109000000D01*
X106250000Y-110250000D02*
X106290000Y-110290000D01*
X140750000Y-77500000D02*
X152500000Y-77500000D01*
X146116409Y-94500000D02*
X135750000Y-104866409D01*
%TO.N,Net-(J10-Pin_3)*%
X126500000Y-71000000D02*
X126500000Y-72500000D01*
X126250000Y-114750000D02*
X126090000Y-114590000D01*
X160970000Y-71030000D02*
X160970000Y-74500000D01*
X91510000Y-71240000D02*
X91510000Y-74250000D01*
X92500000Y-114750000D02*
X92340000Y-114590000D01*
X137090000Y-113090000D02*
X137090000Y-111750000D01*
X166680000Y-114750000D02*
X159750000Y-114750000D01*
X148340000Y-113118377D02*
X148340000Y-112000000D01*
X103750000Y-114750000D02*
X92500000Y-114750000D01*
X167130000Y-114300000D02*
X166680000Y-114750000D01*
X149510000Y-71010000D02*
X149510000Y-74500000D01*
X115250000Y-71000000D02*
X103250000Y-71000000D01*
X149500000Y-71000000D02*
X149510000Y-71010000D01*
X126500000Y-71000000D02*
X115250000Y-71000000D01*
X148500000Y-114750000D02*
X148500000Y-113278377D01*
X167310000Y-71000000D02*
X161000000Y-71000000D01*
X161000000Y-71000000D02*
X149500000Y-71000000D01*
X168510000Y-90740000D02*
X168510000Y-85740000D01*
X137250000Y-114750000D02*
X126250000Y-114750000D01*
X115170000Y-72580000D02*
X115170000Y-74500000D01*
X126500000Y-72500000D02*
X126510000Y-72510000D01*
X126250000Y-114750000D02*
X115000000Y-114750000D01*
X168510000Y-85740000D02*
X168510000Y-72200000D01*
X103420000Y-71170000D02*
X103420000Y-74250000D01*
X159750000Y-114750000D02*
X159590000Y-114590000D01*
X167130000Y-101880000D02*
X167130000Y-114300000D01*
X148500000Y-113278377D02*
X148340000Y-113118377D01*
X159590000Y-114590000D02*
X159590000Y-112000000D01*
X159750000Y-114750000D02*
X148500000Y-114750000D01*
X159750000Y-99500000D02*
X164750000Y-99500000D01*
X114800000Y-114550000D02*
X114800000Y-111750000D01*
X103590000Y-113090000D02*
X103590000Y-111750000D01*
X115000000Y-114750000D02*
X103750000Y-114750000D01*
X103250000Y-71000000D02*
X103420000Y-71170000D01*
X103750000Y-113250000D02*
X103590000Y-113090000D01*
X115250000Y-72500000D02*
X115170000Y-72580000D01*
X161000000Y-71000000D02*
X160970000Y-71030000D01*
X103750000Y-114750000D02*
X103750000Y-113250000D01*
X103250000Y-71000000D02*
X91750000Y-71000000D01*
X144934785Y-99500000D02*
X144500000Y-99934785D01*
X138500000Y-71000000D02*
X138010000Y-71490000D01*
X159750000Y-99500000D02*
X144934785Y-99500000D01*
X149500000Y-71000000D02*
X138500000Y-71000000D01*
X159750000Y-99500000D02*
X168510000Y-90740000D01*
X115250000Y-71000000D02*
X115250000Y-72500000D01*
X137250000Y-113250000D02*
X137090000Y-113090000D01*
X168510000Y-72200000D02*
X167310000Y-71000000D01*
X126090000Y-114590000D02*
X126090000Y-111750000D01*
X126510000Y-72510000D02*
X126510000Y-74500000D01*
X138010000Y-71490000D02*
X138010000Y-74500000D01*
X148500000Y-114750000D02*
X137250000Y-114750000D01*
X138500000Y-71000000D02*
X126500000Y-71000000D01*
X92340000Y-114590000D02*
X92340000Y-111750000D01*
X137250000Y-114750000D02*
X137250000Y-113250000D01*
X164750000Y-99500000D02*
X167130000Y-101880000D01*
X91750000Y-71000000D02*
X91510000Y-71240000D01*
X115000000Y-114750000D02*
X114800000Y-114550000D01*
%TO.N,Net-(J16-Pin_1)*%
D22*
X117677083Y-89125859D02*
X117227942Y-89575000D01*
X117227942Y-89575000D02*
X114111638Y-89575000D01*
%TO.N,Net-(J9-Pin_1)*%
X122636374Y-87636374D02*
X122625000Y-87625000D01*
X122625000Y-87625000D02*
X119836638Y-87625000D01*
X123008263Y-87636374D02*
X122636374Y-87636374D01*
%TO.N,Net-(J4-Pin_1)*%
D24*
X112955388Y-97056250D02*
X118649138Y-91362500D01*
D22*
X100311638Y-93270000D02*
X100216638Y-93175000D01*
X100311638Y-101175000D02*
X100311638Y-93270000D01*
X100311638Y-101175000D02*
X100311638Y-101900000D01*
D24*
X118649138Y-91362500D02*
X118649138Y-85994412D01*
X118968550Y-85675000D02*
X119836638Y-85675000D01*
D22*
X100216638Y-93175000D02*
X100216638Y-89175000D01*
D24*
X109086638Y-99675000D02*
X110336638Y-99675000D01*
X110336638Y-99675000D02*
X110836638Y-99175000D01*
D22*
X121336638Y-99175000D02*
X114086638Y-99175000D01*
X114086638Y-99175000D02*
X113686638Y-98775000D01*
D24*
X100311638Y-101175000D02*
X104430388Y-97056250D01*
D22*
X119180682Y-85675000D02*
X119836638Y-85675000D01*
X100311638Y-100950000D02*
X100336638Y-100925000D01*
X100311638Y-101175000D02*
X100311638Y-100950000D01*
D24*
X118649138Y-85994412D02*
X118968550Y-85675000D01*
X110836638Y-99175000D02*
X112955388Y-97056250D01*
X104430388Y-97056250D02*
X112955388Y-97056250D01*
D22*
X121336638Y-99325000D02*
X121886638Y-99325000D01*
X114086638Y-99175000D02*
X110836638Y-99175000D01*
X100336638Y-100925000D02*
X100216638Y-100805000D01*
%TO.N,Net-(JP2-C)*%
X122286638Y-100475000D02*
X122386638Y-100375000D01*
X122386638Y-95287501D02*
X120574137Y-93475000D01*
X122386638Y-100375000D02*
X122386638Y-95287501D01*
X121336638Y-100475000D02*
X122286638Y-100475000D01*
X120574137Y-93475000D02*
X119836638Y-93475000D01*
%TO.N,Net-(J4-Pin_2)*%
D24*
X102851638Y-101175000D02*
X104351638Y-99675000D01*
D22*
X114111638Y-94125000D02*
X114111638Y-94712500D01*
X121336638Y-101925000D02*
X121886638Y-101925000D01*
X121336638Y-101775000D02*
X114086638Y-101775000D01*
X114086638Y-101775000D02*
X103451638Y-101775000D01*
X112874997Y-90875000D02*
X112573833Y-91176164D01*
X114111638Y-90875000D02*
X112874997Y-90875000D01*
D24*
X104351638Y-99675000D02*
X107086638Y-99675000D01*
D22*
X114236638Y-101925000D02*
X114086638Y-101775000D01*
X103451638Y-101775000D02*
X102851638Y-101175000D01*
X121186638Y-101775000D02*
X121336638Y-101925000D01*
X114111638Y-94712500D02*
X114149138Y-94750000D01*
%TO.N,Net-(J6-Pin_1)*%
X122441481Y-89842951D02*
X122173530Y-89575000D01*
X122173530Y-89575000D02*
X119836638Y-89575000D01*
%TO.N,Net-(J12-Pin_1)*%
X114136638Y-87000000D02*
X114111638Y-86975000D01*
X115250000Y-87000000D02*
X114136638Y-87000000D01*
%TO.N,Net-(JP1-C)*%
X114086638Y-100475000D02*
X119050000Y-100475000D01*
X119750000Y-94211638D02*
X119836638Y-94125000D01*
X119750000Y-95500000D02*
X119750000Y-94211638D01*
X119050000Y-100475000D02*
X119750000Y-99775000D01*
%TO.N,Net-(J1-Pin_2)*%
X113374139Y-92825000D02*
X114111638Y-92825000D01*
X107336638Y-83675000D02*
X107336638Y-86787499D01*
X111486638Y-92825000D02*
X114111638Y-92825000D01*
X107836638Y-89175000D02*
X111486638Y-92825000D01*
X107336638Y-88675000D02*
X107836638Y-89175000D01*
X107336638Y-86787499D02*
X113374139Y-92825000D01*
%TO.N,Net-(J2-Pin_1)*%
X119961638Y-91000000D02*
X119836638Y-90875000D01*
X121500000Y-91000000D02*
X119961638Y-91000000D01*
%TO.N,Net-(J3-Pin_1)*%
X122500000Y-90750000D02*
X121975000Y-90225000D01*
X121975000Y-90225000D02*
X119836638Y-90225000D01*
%TO.N,Net-(J1-Pin_1)*%
X107836638Y-93175000D02*
X108136638Y-93475000D01*
X108136638Y-93475000D02*
X114111638Y-93475000D01*
X104796638Y-83675000D02*
X104796638Y-87690635D01*
X104796638Y-87690635D02*
X110581003Y-93475000D01*
X110581003Y-93475000D02*
X114111638Y-93475000D01*
%TO.N,Net-(J7-Pin_1)*%
X122425000Y-88925000D02*
X119836638Y-88925000D01*
X122500000Y-89000000D02*
X122425000Y-88925000D01*
%TO.N,Net-(J13-Pin_1)*%
X114161638Y-87675000D02*
X114111638Y-87625000D01*
X114767594Y-87625000D02*
X114111638Y-87625000D01*
X116000000Y-87675000D02*
X114161638Y-87675000D01*
%TO.N,Net-(J8-Pin_1)*%
X119961641Y-88400003D02*
X119836638Y-88275000D01*
X122906374Y-88275000D02*
X119836638Y-88275000D01*
X123065687Y-88434313D02*
X122906374Y-88275000D01*
%TO.N,Net-(J11-Pin_1)*%
X112500000Y-86500000D02*
X112675000Y-86325000D01*
X112675000Y-86325000D02*
X114111638Y-86325000D01*
%TO.N,Net-(J14-Pin_1)*%
X116980448Y-87980448D02*
X116685896Y-88275000D01*
X116685896Y-88275000D02*
X114111638Y-88275000D01*
%TO.N,Net-(J15-Pin_1)*%
X116909708Y-88899718D02*
X116884426Y-88925000D01*
X116884426Y-88925000D02*
X114111638Y-88925000D01*
%TO.N,Net-(J17-Pin_1)*%
X117874138Y-90225000D02*
X114111638Y-90225000D01*
X117899138Y-90250000D02*
X117874138Y-90225000D01*
%TD*%
M02*
