M48
; DRILL file KiCad 10.0.1 date 2026-07-18T21:35:19
; FORMAT={-:-/ absolute / metric / decimal}
; #@! TF.CreationDate,2026-07-18T21:35:19+01:00
; #@! TF.GenerationSoftware,Kicad,Pcbnew,10.0.1
; #@! TF.FileFunction,Plated,1,2,PTH
FMAT,2
METRIC
; #@! TA.AperFunction,Plated,PTH,ViaDrill
T1C0.300
; #@! TA.AperFunction,Plated,PTH,ComponentDrill
T2C0.600
; #@! TA.AperFunction,Plated,PTH,ComponentDrill
T3C0.800
; #@! TA.AperFunction,Plated,PTH,ComponentDrill
T4C1.000
; #@! TA.AperFunction,Plated,PTH,ComponentDrill
T5C1.200
; #@! TA.AperFunction,Plated,PTH,ComponentDrill
T6C1.300
%
G90
G05
T1
X112.5Y-86.5
X112.574Y-91.176
X114.149Y-94.75
X115.25Y-87.0
X116.0Y-87.675
X116.91Y-88.9
X116.98Y-87.98
X117.677Y-89.126
X117.899Y-90.25
X119.75Y-95.5
X119.75Y-99.775
X121.5Y-87.0
X121.5Y-91.0
X122.441Y-89.843
X122.5Y-89.0
X122.5Y-90.75
X123.008Y-87.636
X123.066Y-88.434
T2
X107.087Y-99.675
X109.087Y-99.675
T3
X100.217Y-89.175
X100.217Y-93.175
X107.837Y-89.175
X107.837Y-93.175
T4
X91.67Y-74.25
X92.5Y-111.75
X94.21Y-74.25
X95.04Y-111.75
X96.75Y-74.25
X97.58Y-111.75
X100.312Y-101.175
X102.852Y-101.175
X103.42Y-74.25
X103.75Y-111.75
X104.797Y-83.675
X105.96Y-74.25
X106.29Y-111.75
X107.337Y-83.675
X108.5Y-74.25
X108.83Y-111.75
X115.04Y-111.75
X115.17Y-74.5
X117.58Y-111.75
X117.71Y-74.5
X120.12Y-111.75
X120.25Y-74.5
X126.25Y-111.75
X126.67Y-74.5
X128.79Y-111.75
X129.21Y-74.5
X131.33Y-111.75
X131.75Y-74.5
X137.25Y-111.75
X138.17Y-74.5
X139.79Y-111.75
X140.71Y-74.5
X142.33Y-111.75
X143.25Y-74.5
X148.5Y-112.0
X149.67Y-74.5
X151.04Y-112.0
X152.21Y-74.5
X153.58Y-112.0
X154.75Y-74.5
X159.75Y-112.0
X161.13Y-74.5
X162.29Y-112.0
X163.67Y-74.5
X164.83Y-112.0
X166.21Y-74.5
T5
X144.5Y-92.435
X144.5Y-99.935
T6
X159.75Y-94.5
X159.75Y-99.5
M30
